<svg id="Layer_1" data-name="Layer 1" xmlns="http://www.w3.org/2000/svg" viewBox="0 0 500.54427 198.25102"><defs><style>.cls-1{fill:#999;}.cls-2{fill:#fff;}.cls-3{fill:#009639;}</style></defs><title>NGINX Logo White Endorsement RGB</title><path class="cls-1" d="M352.88019,162.558h-4.251v-5.827h10.041v-2.608h-12.807v11.012h6.891c2.456,0,3.873,1.133,3.873,3.18v2.235c0,2.299-1.574,3.59-4.408,3.59-2.708,0-4.283-1.291-4.283-3.59v-2.078h-2.765v2.015c0,3.779,2.828,6.23,7.048,6.23,4.314,0,7.142-2.451,7.142-6.23v-2.109c0-3.526-2.545-5.82-6.481-5.82" transform="translate(0)"/><polygon class="cls-1" points="342.701 156.731 342.701 154.123 329.14 154.123 329.14 176.308 331.906 176.308 331.906 167.369 341.6 167.369 341.6 164.729 331.906 164.729 331.906 156.731 342.701 156.731"/><path class="cls-1" d="M317.80712,154.623h1.385v-2.546h-1.7c-3.618,0-5.661,2.231-5.661,6.042v2.299h-1.857v2.514h1.857v13.376h2.671V162.932h4.406v-2.514h-4.406v-2.079c0-2.646,1.039-3.716,3.305-3.716" transform="translate(0)"/><path class="cls-1" d="M282.90651,173.762c-2.172,0-3.242-1.007-3.242-3.557v-7.273h4.344v-2.514h-4.344V155.76h-2.671v4.658h-2.14v2.514h2.14v7.871c0,3.808,1.791,5.505,5.347,5.505h1.951v-2.546Z" transform="translate(0)"/><path class="cls-1" d="M271.85544,160.134a6.71809,6.71809,0,0,0-4.909,1.917l-.534-1.633h-1.855v15.89h2.672V166.302c0-2.615,1.92-3.843,4.186-3.843a6.58054,6.58054,0,0,1,1.353.158v-2.451a9.01142,9.01142,0,0,0-.913-.032" transform="translate(0)"/><polygon class="cls-2" points="477.704 65.052 464.655 65.052 450.282 87.84 436.288 65.052 422.766 65.052 442.907 97.958 422.577 131.998 435.437 131.998 449.715 109.021 463.709 131.998 477.231 131.998 456.901 98.809 477.704 65.052"/><polygon class="cls-2" points="405.911 65.052 405.911 110.629 379.624 65.052 368.75 65.052 368.75 131.998 379.624 131.998 379.624 86.706 405.911 131.998 416.88 131.998 416.88 65.052 405.911 65.052"/><rect class="cls-2" x="348.17358" y="65.05175" width="11.63101" height="66.94601"/><path class="cls-2" d="M339.22857,88.87975v-3.782c0-12.954-9.55-21.37-26.287-21.37-16.642,0-26.192,8.416-26.192,21.37v26.854c0,12.955,9.645,21.37,26.287,21.37s26.192-8.415,26.192-21.37v-15.696h-26.665v10.779h15.035v4.255c0,6.998-5.295,11.253-14.657,11.253-9.266,0-14.561-4.255-14.561-11.253v-25.53c0-6.997,5.295-11.252,14.656-11.252,9.267,0,14.562,4.255,14.562,11.252v3.12Z" transform="translate(0)"/><polygon class="cls-2" points="266.78 65.052 266.78 110.629 240.493 65.052 229.619 65.052 229.619 131.998 240.493 131.998 240.493 86.706 266.78 131.998 277.749 131.998 277.749 65.052 266.78 65.052"/><path class="cls-1" d="M300.9425,160.00793c-4.439,0-6.765,2.483-6.765,6.57605v3.526c0,4.093,2.326,6.607,6.796,6.607,4.44,0,6.765-2.514,6.765-6.607v-3.526C307.73853,162.491,305.41351,160.00793,300.9425,160.00793Zm4.125,9.945c0,2.802-1.26,4.218-4.125,4.218-2.866,0-4.094-1.416-4.094-4.218v-3.212c0-2.802,1.26-4.187,4.125-4.187,2.866,0,4.094,1.385,4.094,4.187Z" transform="translate(0)"/><path class="cls-1" d="M259.10206,160.418l-.502,1.602a6.214,6.214,0,0,0-4.975-2.012c-3.904,0-6.198,1.949-6.198,6.702v3.306c0,4.721,2.294,6.701,6.198,6.701a6.21647,6.21647,0,0,0,4.975-2.011l.502,1.602h1.855v-15.89Zm-5.005,13.753c-2.676,0-3.999-1.322-3.999-4.344v-2.96c0-3.022,1.323-4.313,3.999-4.313,2.457,0,3.968,1.196,4.188,3.809v3.967c-.22,2.645-1.763,3.841-4.188,3.841" transform="translate(0)"/><path class="cls-1" d="M238.30362,154.123h-8.685v22.185h2.766v-8.057h5.95c4.313,0,6.765-2.232,6.765-5.852v-2.424c0-3.652-2.452-5.852-6.796-5.852m4.062,8.276c0,2.11-1.26,3.212-3.905,3.212h-6.076v-8.88h6.108c2.613,0,3.873,1.134,3.873,3.244Z" transform="translate(0)"/><path class="cls-3" d="M1.3531,148.69127a10.01465,10.01465,0,0,0,3.76239,3.73356l76.968,44.43752.0024-.0024a10.09962,10.09962,0,0,0,10.23005,0l76.97043-44.43752a10.09339,10.09339,0,0,0,5.11261-8.8558v-88.875l-.0024-.0024a10.09665,10.09665,0,0,0-5.115-8.85819L92.31116,1.39348v-.0024a10.08632,10.08632,0,0,0-10.22285,0v.0024L5.1203,45.831A10.09234,10.09234,0,0,0,.00287,54.68919l-.0024.0024v88.875a10.0346,10.0346,0,0,0,1.35023,5.12464" transform="translate(0)"/><path class="cls-2" d="M62.55632,132.96059a9.8985,9.8985,0,0,1-19.797,0l.0024.0024.00961-67.94886c0-5.264,4.65134-9.61739,11.23912-9.61739,4.7162,0,10.16037,1.90282,13.49271,6.03279l2.99117,3.5798L111.847,114.497V65.29043h-.0048a9.89849,9.89849,0,1,1,19.797,0h-.0024l-.0096,67.944c0,5.264-4.65374,9.6174-11.23912,9.6174-4.71861,0-10.16038-1.90042-13.49271-6.0328L62.55152,83.7516V132.963Z" transform="translate(0)"/><path class="cls-1" d="M491.362,128.99761h1.26481v-2.81707h1.00048a2.85458,2.85458,0,0,1,1.40531.23465,1.76,1.76,0,0,1,.66785,1.63867v.5776l.02833.21531a.4353.4353,0,0,1,.01936.09025c.00645.03481.009.04513.02837.06059h1.17195l-.04254-.07993a.822.822,0,0,1-.05673-.36615c-.01676-.20242-.01676-.37518-.01676-.53505v-.53377a2.043,2.043,0,0,0-.392-1.11651,1.8209,1.8209,0,0,0-1.248-.70137,3.08092,3.08092,0,0,0,1.04046-.33779,1.56053,1.56053,0,0,0,.69878-1.41821,1.76245,1.76245,0,0,0-1.10621-1.81917,5.50444,5.50444,0,0,0-1.961-.25657H491.362Zm3.5971-3.86267a3.27173,3.27173,0,0,1-1.20291.15987h-1.12938V122.6866h1.07783a3.18139,3.18139,0,0,1,1.52.27977,1.08521,1.08521,0,0,1,.47577,1.04561,1.10379,1.10379,0,0,1-.74135,1.123m3.67316-4.30619a6.35477,6.35477,0,0,0-4.64527-1.89911,6.53409,6.53409,0,0,0,0,13.06813,6.54571,6.54571,0,0,0,4.64527-11.169m-.664.6485a5.35175,5.35175,0,0,1,1.63992,3.97485,5.615,5.615,0,0,1-9.59739,3.99419,5.54315,5.54315,0,0,1-1.63221-3.99419,5.63433,5.63433,0,0,1,5.60837-5.64317,5.3582,5.3582,0,0,1,3.98131,1.66832" transform="translate(0)"/><path class="cls-1" d="M165.10942,179.84189h1.26478v-2.81707h1.00049a2.85441,2.85441,0,0,1,1.40531.23465,1.76,1.76,0,0,1,.66785,1.63867v.5776l.02835.21531a.43791.43791,0,0,1,.01936.09025c.00643.03481.009.04512.02834.06059h1.172l-.04255-.07993a.82232.82232,0,0,1-.05674-.36616c-.01676-.20242-.01676-.37518-.01676-.53505V178.327a2.043,2.043,0,0,0-.39194-1.11652,1.82085,1.82085,0,0,0-1.248-.70136,3.08054,3.08054,0,0,0,1.04045-.3378,1.5605,1.5605,0,0,0,.6988-1.4182,1.76244,1.76244,0,0,0-1.1062-1.81917,5.50437,5.50437,0,0,0-1.961-.25657h-2.50248Zm3.59708-3.86268a3.27167,3.27167,0,0,1-1.2029.15987h-1.1294v-2.60821H167.452a3.18154,3.18154,0,0,1,1.52006.27978,1.0852,1.0852,0,0,1,.47575,1.0456,1.10377,1.10377,0,0,1-.74135,1.123m3.67317-4.30619a6.35482,6.35482,0,0,0-4.64529-1.89911,6.53409,6.53409,0,0,0,0,13.06813,6.54573,6.54573,0,0,0,4.64529-11.169m-.664.64851a5.35169,5.35169,0,0,1,1.63995,3.97484,5.615,5.615,0,0,1-9.59738,3.99419,5.54311,5.54311,0,0,1-1.63223-3.99419,5.63438,5.63438,0,0,1,5.60835-5.64317,5.35816,5.35816,0,0,1,3.98131,1.66833" transform="translate(0)"/></svg>