<?xml version="1.0" encoding="utf-8"?>
<!-- Generator: Adobe Illustrator 24.1.3, SVG Export Plug-In . SVG Version: 6.00 Build 0)  -->
<svg version="1.1" id="Layer_1" xmlns="http://www.w3.org/2000/svg" xmlns:xlink="http://www.w3.org/1999/xlink" x="0px" y="0px"
	 viewBox="0 0 500.5 198.3" style="enable-background:new 0 0 500.5 198.3;" xml:space="preserve">
<style type="text/css">
	.st0{fill:#999999;}
	.st1{fill:#FFFFFF;}
	.st2{fill:#009639;}
</style>
<path class="st0" d="M352.9,162.6h-4.3v-5.8h10v-2.6h-12.8v11h6.9c2.5,0,3.9,1.1,3.9,3.2v2.2c0,2.3-1.6,3.6-4.4,3.6
	c-2.7,0-4.3-1.3-4.3-3.6v-2.1h-2.8v2c0,3.8,2.8,6.2,7,6.2c4.3,0,7.1-2.5,7.1-6.2v-2.1C359.4,164.9,356.8,162.6,352.9,162.6"/>
<polygon class="st0" points="342.7,156.7 342.7,154.1 329.1,154.1 329.1,176.3 331.9,176.3 331.9,167.4 341.6,167.4 341.6,164.7 
	331.9,164.7 331.9,156.7 "/>
<path class="st0" d="M317.8,154.6h1.4v-2.5h-1.7c-3.6,0-5.7,2.2-5.7,6v2.3H310v2.5h1.9v13.4h2.7v-13.4h4.4v-2.5h-4.4v-2.1
	C314.5,155.7,315.5,154.6,317.8,154.6"/>
<path class="st0" d="M282.9,173.8c-2.2,0-3.2-1-3.2-3.6v-7.3h4.3v-2.5h-4.3v-4.7H277v4.7h-2.1v2.5h2.1v7.9c0,3.8,1.8,5.5,5.3,5.5h2
	v-2.5L282.9,173.8z"/>
<path class="st0" d="M271.9,160.1c-1.8-0.1-3.6,0.6-4.9,1.9l-0.5-1.6h-1.9v15.9h2.7v-10c0-2.6,1.9-3.8,4.2-3.8
	c0.5,0,0.9,0.1,1.4,0.2v-2.5C272.5,160.1,272.2,160.1,271.9,160.1"/>
<polygon class="st1" points="477.7,65.1 464.7,65.1 450.3,87.8 436.3,65.1 422.8,65.1 442.9,98 422.6,132 435.4,132 449.7,109 
	463.7,132 477.2,132 456.9,98.8 "/>
<polygon class="st1" points="405.9,65.1 405.9,110.6 379.6,65.1 368.8,65.1 368.8,132 379.6,132 379.6,86.7 405.9,132 416.9,132 
	416.9,65.1 "/>
<rect x="348.2" y="65.1" class="st1" width="11.6" height="66.9"/>
<path class="st1" d="M339.2,88.9v-3.8c0-13-9.5-21.4-26.3-21.4c-16.6,0-26.2,8.4-26.2,21.4V112c0,13,9.6,21.4,26.3,21.4
	s26.2-8.4,26.2-21.4V96.3h-26.7V107h15v4.3c0,7-5.3,11.3-14.7,11.3c-9.3,0-14.6-4.3-14.6-11.3V85.8c0-7,5.3-11.3,14.7-11.3
	c9.3,0,14.6,4.3,14.6,11.3v3.1L339.2,88.9z"/>
<polygon class="st1" points="266.8,65.1 266.8,110.6 240.5,65.1 229.6,65.1 229.6,132 240.5,132 240.5,86.7 266.8,132 277.7,132 
	277.7,65.1 "/>
<path class="st0" d="M300.9,160c-4.4,0-6.8,2.5-6.8,6.6v3.5c0,4.1,2.3,6.6,6.8,6.6c4.4,0,6.8-2.5,6.8-6.6v-3.5
	C307.7,162.5,305.4,160,300.9,160z M305.1,170c0,2.8-1.3,4.2-4.1,4.2c-2.9,0-4.1-1.4-4.1-4.2v-3.2c0-2.8,1.3-4.2,4.1-4.2
	c2.9,0,4.1,1.4,4.1,4.2V170z"/>
<path class="st0" d="M259.1,160.4l-0.5,1.6c-1.3-1.4-3.1-2.1-5-2c-3.9,0-6.2,1.9-6.2,6.7v3.3c0,4.7,2.3,6.7,6.2,6.7
	c1.9,0.1,3.7-0.6,5-2l0.5,1.6h1.9v-15.9L259.1,160.4z M254.1,174.2c-2.7,0-4-1.3-4-4.3v-3c0-3,1.3-4.3,4-4.3c2.5,0,4,1.2,4.2,3.8v4
	C258.1,173,256.5,174.2,254.1,174.2"/>
<path class="st0" d="M238.3,154.1h-8.7v22.2h2.8v-8.1h5.9c4.3,0,6.8-2.2,6.8-5.9V160C245.1,156.3,242.6,154.1,238.3,154.1
	 M242.4,162.4c0,2.1-1.3,3.2-3.9,3.2h-6.1v-8.9h6.1c2.6,0,3.9,1.1,3.9,3.2V162.4z"/>
<path class="st2" d="M1.4,148.7c0.9,1.6,2.2,2.8,3.8,3.7l77,44.4l0,0c3.2,1.9,7.1,1.9,10.2,0l77-44.4c3.2-1.8,5.1-5.2,5.1-8.9V54.7
	l0,0c0-3.7-1.9-7.1-5.1-8.9l-77-44.4v0c-3.2-1.9-7.1-1.9-10.2,0v0l-77,44.4C1.9,47.6,0,51,0,54.7l0,0v88.9
	C0,145.4,0.4,147.1,1.4,148.7"/>
<path class="st1" d="M62.6,133c0,5.5-4.4,9.9-9.9,9.9s-9.9-4.4-9.9-9.9l0,0l0-67.9c0-5.3,4.7-9.6,11.2-9.6c4.7,0,10.2,1.9,13.5,6
	l3,3.6l41.4,49.5V65.3h0c0-5.5,4.4-9.9,9.9-9.9c5.5,0,9.9,4.4,9.9,9.9h0l0,67.9c0,5.3-4.7,9.6-11.2,9.6c-4.7,0-10.2-1.9-13.5-6
	L62.6,83.8L62.6,133L62.6,133z"/>
<path class="st0" d="M491.4,129h1.3v-2.8h1c0.5,0,1,0,1.4,0.2c0.5,0.4,0.8,1,0.7,1.6v0.6l0,0.2c0,0,0,0.1,0,0.1c0,0,0,0,0,0.1h1.2
	l0-0.1c0-0.1-0.1-0.2-0.1-0.4c0-0.2,0-0.4,0-0.5v-0.5c0-0.4-0.2-0.8-0.4-1.1c-0.3-0.4-0.8-0.6-1.2-0.7c0.4,0,0.7-0.2,1-0.3
	c0.5-0.3,0.7-0.9,0.7-1.4c0.1-0.8-0.4-1.5-1.1-1.8c-0.6-0.2-1.3-0.3-2-0.3h-2.5V129z M495,125.1c-0.4,0.1-0.8,0.2-1.2,0.2h-1.1v-2.6
	h1.1c0.5,0,1,0.1,1.5,0.3c0.3,0.2,0.5,0.6,0.5,1C495.7,124.5,495.4,125,495,125.1 M498.6,120.8c-1.2-1.2-2.9-1.9-4.6-1.9
	c-3.6,0-6.5,2.9-6.5,6.6c0,3.6,2.9,6.5,6.5,6.5c3.6,0,6.6-2.9,6.6-6.5C500.5,123.7,499.9,122.1,498.6,120.8 M498,121.5
	c1.1,1,1.7,2.5,1.6,4c0,3.1-2.5,5.6-5.6,5.7c-1.5,0-3-0.6-4-1.7c-1.1-1.1-1.6-2.5-1.6-4c0-3.1,2.5-5.6,5.6-5.6
	C495.5,119.8,496.9,120.4,498,121.5"/>
</svg>
