<?xml version="1.0" encoding="UTF-8" standalone="no"?>
<!-- Created with Inkscape (http://www.inkscape.org/) -->

<svg
   xmlns:dc="http://purl.org/dc/elements/1.1/"
   xmlns:cc="http://creativecommons.org/ns#"
   xmlns:rdf="http://www.w3.org/1999/02/22-rdf-syntax-ns#"
   xmlns:svg="http://www.w3.org/2000/svg"
   xmlns="http://www.w3.org/2000/svg"
   xmlns:sodipodi="http://sodipodi.sourceforge.net/DTD/sodipodi-0.dtd"
   xmlns:inkscape="http://www.inkscape.org/namespaces/inkscape"
   width="64"
   height="64"
   id="svg2759"
   sodipodi:version="0.32"
   inkscape:version="0.48.4 r9939"
   version="1.0"
   sodipodi:docname="cc.by-nc-nd.jp.svg"
   inkscape:output_extension="org.inkscape.output.svg.inkscape">
  <defs
     id="defs2761" />
  <sodipodi:namedview
     id="base"
     pagecolor="#ffffff"
     bordercolor="#8b8b8b"
     borderopacity="1"
     gridtolerance="10000"
     guidetolerance="10"
     objecttolerance="10"
     inkscape:pageopacity="0.0"
     inkscape:pageshadow="2"
     inkscape:zoom="7.6176656"
     inkscape:cx="28.977879"
     inkscape:cy="33.754226"
     inkscape:document-units="px"
     inkscape:current-layer="g2985"
     width="120px"
     height="42px"
     inkscape:showpageshadow="false"
     inkscape:window-width="1920"
     inkscape:window-height="1018"
     inkscape:window-x="-5"
     inkscape:window-y="-5"
     showgrid="false"
     inkscape:window-maximized="1" />
  <metadata
     id="metadata2764">
    <rdf:RDF>
      <cc:Work
         rdf:about="">
        <dc:format>image/svg+xml</dc:format>
        <dc:type
           rdf:resource="http://purl.org/dc/dcmitype/StillImage" />
        <dc:title></dc:title>
      </cc:Work>
    </rdf:RDF>
  </metadata>
  <g
     inkscape:label="Layer 1"
     inkscape:groupmode="layer"
     id="layer1"
     transform="translate(0,22)">
    <g
       id="g6402_1_"
       transform="matrix(0.621103,0,0,0.6210385,-141.0936,260.32415)" />
    <g
       id="g2985"
       transform="matrix(0.19328125,0,0,0.19328125,35.330487,6.1734552)">
	
	<path
   id="path2989"
   d="m 54.708,-19.536398 c -6.196,-6.186 -13.776,-9.279 -22.75,-9.279 -8.863,0 -16.366,3.093 -22.505,9.279 C 3.15,-13.135398 0,-5.5623983 0,3.1846017 0,11.930602 3.15,19.452602 9.453,25.745602 c 6.299,6.293 13.802,9.439 22.505,9.439 8.812,0 16.449,-3.173 22.909,-9.52 6.089,-6.026 9.133,-13.521 9.133,-22.4800003 0,-8.96 -3.098,-16.5339997 -9.292,-22.7209997 z m -4.007,41.041 c -5.287,5.227 -11.508,7.839 -18.661,7.839 -7.156,0 -13.324,-2.587 -18.503,-7.761 -5.18,-5.171 -7.769,-11.305 -7.769,-18.3980003 0,-2.72799999 0.391,-5.318 1.164,-7.777 l 16.383,7.295 H 19.71 v 4.981 h 7.496 l 0.733,1.521 V 11.618602 H 19.71 v 4.98 h 8.229 v 7.234 h 7.963 v -7.234 h 8.281 v -4.604 l 10.448,4.653 c -1.07,1.739 -2.379,3.359 -3.93,4.857 z m -7.364,-9.886 H 35.904 V 9.2046017 l 0.375,-0.728 7.058,3.1420003 z m 0.847,-6.6250003 v -2.291 H 39.205 L 47.33,-12.266398 H 38.838 L 33.243,0.12160171 30.274,-1.2003983 25.161,-12.266398 H 16.67 l 3.524,6.5779997 -10.566,-4.7049997 c 1.098,-1.741 2.424,-3.403 3.988,-4.983 5.02,-5.12 11.16,-7.68 18.424,-7.68 7.26,0 13.429,2.56 18.502,7.68 5.126,5.067 7.688,11.2529997 7.688,18.5609997 0,2.707 -0.342,5.241 -1.021,7.6070003 L 44.184,4.9936017 z m -220.7751,-40.3416457 318.72229,0 c 1.87455,0 3.3983,1.524907 3.3983,3.399264 0,0 0,43.571773 0,75.094231 l -227.801873,0 c -8.349723,15.095153 -24.438617,25.345128 -42.900137,25.345128 -18.46689,0 -34.55041,-10.240595 -42.89478,-25.345128 l -11.92473,0 c 0,-31.522432 0,-75.094231 0,-75.094231 -3e-5,-1.874331 1.52638,-3.399264 3.40093,-3.399264 z m 318.72229,-2.800795 -318.72229,0 c -3.41969,0 -6.20204,2.782065 -6.20204,6.200059 l 0,108.294172 c 0,0.77251 0.62664,1.39906 1.40054,1.39906 l 328.3226,0 c 0.77394,0 1.40054,-0.62658 1.40054,-1.39906 l 0,-108.294172 c 0,-3.417994 -2.78235,-6.200059 -6.19935,-6.200059 z m -248.67088,49.731761 c -1.07925,-2.3496333 -2.66194,-3.5238653 -4.74533,-3.5238653 -3.88027,0 -5.82181,2.5598553 -5.82181,7.6795603 0,5.120875 1.94154,7.679411 5.82181,7.679411 2.51732,0 4.27928,-1.246396 5.28358,-3.74459 l 5.39066,2.807453 c -2.50928,4.464949 -6.27444,6.69946 -11.29282,6.69946 -3.87226,0 -6.97059,-1.188998 -9.30307,-3.565344 -2.32709,-2.377685 -3.49458,-5.655095 -3.49458,-9.832257 0,-4.106172 1.18357,-7.3647443 3.55083,-9.7786463 2.36462,-2.413897 5.37459,-3.618815 9.03265,-3.618815 5.30492,0 9.10483,2.092531 11.39714,6.276393 l -5.81906,2.9212403 z m -24.80828,0 c -1.07648,-2.3496333 -2.68854,-3.5238653 -4.84161,-3.5238653 -3.80255,0 -5.70389,2.5598553 -5.70389,7.6795603 0,5.120875 1.90134,7.679411 5.70389,7.679411 2.51191,0 4.30616,-1.246396 5.38263,-3.74459 l 5.27277,2.807453 c -2.51455,4.464949 -6.28509,6.69946 -11.31152,6.69946 -3.87749,0 -6.98388,-1.188998 -9.31638,-3.565344 -2.33511,-2.377685 -3.50276,-5.655095 -3.50276,-9.832257 0,-4.106172 1.20504,-7.3647443 3.60986,-9.7786463 2.40481,-2.413897 5.4041,-3.618815 8.9951,-3.618815 5.3157,0 9.11827,2.092531 11.42124,6.276393 l -5.70933,2.9212403 z m -18.56057,-20.8307263 c -7.05358,7.123846 -10.58042,15.468659 -10.58042,25.0413263 0,9.569743 3.49208,17.843712 10.47072,24.82292 6.98402,6.979208 15.29349,10.469494 24.93668,10.469494 9.64319,0 18.02497,-3.525044 25.150874,-10.576576 6.764453,-6.548121 10.146664,-14.784544 10.146664,-24.715864 0,-9.8563623 -3.438466,-18.2226733 -10.312648,-25.0947923 -6.87154,-6.8708317 -15.19982,-10.3076217 -24.98489,-10.3076217 -9.78507,0 -18.06516,3.454215 -24.82698,10.3611137 z m 55.339155,-5.6109627 c 8.34159,8.3421837 12.513774,18.5573437 12.513774,30.641512 0,12.085487 -4.09987,22.190906 -12.29961,30.320266 -8.703189,8.558984 -18.986459,12.837821 -30.854909,12.837821 -11.72383,0 -21.8303,-4.2426 -30.31391,-12.732053 -8.48902,-8.486824 -12.73074,-18.628335 -12.73074,-30.426034 0,-11.7962303 4.24172,-22.0100553 12.73074,-30.641512 8.26942,-8.346134 18.37577,-12.516569 30.31391,-12.516569 12.08542,0 22.29637,4.170435 30.640745,12.516569 z m 44.204401,82.216716 c 0.393624,0 0.768549,-0.03725 1.127389,-0.115117 0.358855,-0.07766 0.674824,-0.206176 0.950661,-0.382913 0.273125,-0.179428 0.490063,-0.423063 0.65341,-0.730992 0.163441,-0.305255 0.24379,-0.698852 0.24379,-1.175474 0,-0.937183 -0.265158,-1.606591 -0.795343,-2.008223 -0.530228,-0.398953 -1.229157,-0.59979 -2.102155,-0.59979 l -4.386421,0 0,5.012515 4.308757,0 z m -0.23308,-7.754409 c 0.714995,0 1.306816,-0.171357 1.76742,-0.511431 0.460624,-0.340075 0.690889,-0.891665 0.690889,-1.657445 0,-0.425753 -0.07761,-0.776506 -0.230338,-1.046967 -0.155214,-0.273125 -0.358855,-0.484682 -0.615921,-0.639958 -0.256931,-0.152627 -0.551647,-0.259725 -0.883722,-0.318655 -0.332107,-0.05888 -0.680201,-0.08837 -1.039041,-0.08837 l -3.76515,0 0,4.262799 4.075812,0 z m 0.511483,-7.390288 c 0.870317,0 1.668346,0.07766 2.386025,0.230286 0.717685,0.152628 1.330921,0.404333 1.845079,0.755092 0.511482,0.348094 0.907796,0.81401 1.191672,1.392359 0.281197,0.581034 0.423114,1.295987 0.423114,2.150142 0,0.921113 -0.20897,1.686899 -0.6293,2.300093 -0.417733,0.615859 -1.036355,1.116586 -1.858458,1.510183 1.130079,0.323984 1.973627,0.891664 2.530623,1.702964 0.556992,0.8113 0.835513,1.788647 0.835513,2.932018 0,0.921113 -0.179324,1.719033 -0.538262,2.393812 -0.358855,0.672098 -0.843553,1.223683 -1.448749,1.649415 -0.607886,0.428443 -1.301466,0.744371 -2.078054,0.947877 -0.779274,0.206177 -1.577303,0.307894 -2.399411,0.307894 l -8.874596,0 0,-18.272161 8.614804,0 0,2.6e-5 z m 7.433892,0 4.506909,0 4.279308,7.21623 4.252523,-7.21623 4.480145,0 -6.783141,11.259463 0,7.012723 -4.027576,0 0,-7.114482 -6.708168,-11.157704 z m 59.961098,0 7.63473,12.258194 0.04294,0 0,-12.258194 3.770495,0 0,18.272161 -4.019541,0 -7.605275,-12.234094 -0.05122,0 0,12.234094 -3.7705,0 0,-18.272161 3.998127,0 z m 26.704127,4.867963 c -0.238305,-0.385552 -0.538257,-0.722956 -0.897102,-1.012146 -0.358855,-0.289165 -0.763204,-0.516812 -1.215772,-0.677438 -0.452553,-0.163337 -0.926557,-0.243686 -1.4193,-0.243686 -0.905137,0 -1.67369,0.174046 -2.305681,0.524831 -0.631986,0.348093 -1.143458,0.81667 -1.534443,1.40577 -0.393623,0.589069 -0.680195,1.258477 -0.859618,2.008218 -0.179324,0.749742 -0.2679,1.526248 -0.2679,2.326853 0,0.768471 0.08832,1.515527 0.2679,2.23851 0.179324,0.725647 0.465953,1.378985 0.859618,1.95736 0.390985,0.581034 0.902457,1.044276 1.534443,1.39505 0.631991,0.350784 1.400544,0.524826 2.305681,0.524826 1.226498,0 2.187848,-0.374894 2.878743,-1.127275 0.69089,-0.749746 1.114009,-1.740474 1.266641,-2.969501 l 3.891019,0 c -0.101717,1.143344 -0.366875,2.176926 -0.792658,3.098014 -0.425753,0.923773 -0.990831,1.708334 -1.689756,2.358987 -0.698929,0.650653 -1.518378,1.146034 -2.458313,1.488768 -0.937277,0.342765 -1.970942,0.514121 -3.095676,0.514121 -1.400539,0 -2.659177,-0.243686 -3.778535,-0.730986 -1.116694,-0.484631 -2.06198,-1.156755 -2.830559,-2.008224 -0.771239,-0.854154 -1.36037,-1.858261 -1.770105,-3.009666 -0.409713,-1.154064 -0.615921,-2.393812 -0.615921,-3.727278 0,-1.365606 0.206228,-2.632113 0.615921,-3.802242 0.409714,-1.170134 0.998866,-2.19031 1.770105,-3.060535 0.768554,-0.870224 1.713865,-1.553037 2.830559,-2.048388 1.119358,-0.49534 2.377996,-0.741706 3.778535,-0.741706 1.006901,0 1.957562,0.144608 2.854669,0.436462 0.894417,0.289164 1.69779,0.712263 2.404755,1.269197 0.709645,0.554275 1.293431,1.242407 1.754035,2.061768 0.460624,0.81936 0.749819,1.759203 0.870312,2.816859 l -3.891019,0 c -0.0669,-0.460573 -0.222422,-0.88363 -0.460573,-1.266507 z m 44.592582,-4.867963 7.634735,12.258194 0.04294,0 0,-12.258194 3.770507,0 0,18.272161 -4.019543,0 -7.605285,-12.234094 -0.05122,0 0,12.234094 -3.7705,0 0,-18.272161 3.998127,0 z m 22.580142,14.887647 c 0.58109,0 1.14345,-0.0937 1.68975,-0.281145 0.5463,-0.187447 1.03366,-0.49803 1.45948,-0.934493 0.42576,-0.433772 0.76854,-0.998762 1.02563,-1.697619 0.2544,-0.698852 0.38296,-1.553032 0.38296,-2.557144 0,-0.921114 -0.0883,-1.751168 -0.26795,-2.49288 -0.17937,-0.741707 -0.47402,-1.376295 -0.88374,-1.903806 -0.40971,-0.527511 -0.95066,-0.934493 -1.62549,-1.215649 -0.6748,-0.281144 -1.50763,-0.420371 -2.49582,-0.420371 l -2.86805,0 0,11.503102 3.58309,0 0,3.1e-5 z m 0.2812,-14.887647 c 1.18095,0 2.27622,0.187447 3.29382,0.56231 1.0176,0.374843 1.89596,0.939838 2.64041,1.68958 0.7418,0.749746 1.3229,1.689584 1.74066,2.814204 0.42043,1.127275 0.62931,2.450021 0.62931,3.968264 0,1.330776 -0.17136,2.557144 -0.51149,3.684419 -0.34276,1.12462 -0.85962,2.099251 -1.55051,2.915952 -0.69357,0.819361 -1.55584,1.464664 -2.58955,1.933261 -1.03369,0.468592 -2.24944,0.704228 -3.65266,0.704228 l -7.8918,0 0,-18.272161 7.8918,0 0,-5.7e-5 z m -7.43406,-75.262887 c 7.26243,0 13.42974,2.561201 18.50435,7.682132 5.12552,5.06477 7.68566,11.2487927 7.68566,18.5574117 0,7.3580913 -2.50656,13.4630503 -7.52501,18.3149643 -5.28882,5.226787 -11.50969,7.836088 -18.665,7.836088 -7.155388,0 -13.322592,-2.583887 -18.501693,-7.758476 C 80.351586,16.411963 77.76208,10.278864 77.76208,3.1898887 c 0,-7.095784 2.61627,-13.2798027 7.851553,-18.5574117 5.018443,-5.120932 11.156235,-7.682132 18.418737,-7.682132 z m -0.0776,-5.755504 c -8.86393,0 -16.367348,3.089922 -22.507866,9.276668 -6.301087,6.398128 -9.450337,13.9691767 -9.450337,22.7183797 0,8.7451223 3.149235,16.2626233 9.450337,22.5550023 6.298485,6.29239 13.80464,9.438676 22.507866,9.438676 8.81038,0 16.44506,-3.174338 22.90683,-9.516288 6.08424,-6.027346 9.13171,-13.520784 9.13171,-22.4774053 0,-8.962059 -3.0983,-16.5317367 -9.29238,-22.7183797 -6.19398,-6.186731 -13.77784,-9.276653 -22.74616,-9.276653 z m 12.12824,34.6940997 -23.257583,0 0,5.5078233 23.257583,0 0,-5.5078233 z m 0,-10.283502 -23.257583,0 0,5.509277 23.257583,0 0,-5.509277 z m -147.464325,-0.338781 c 0,-1.141999 -0.926557,-2.065798 -2.06736,-2.065798 l -13.08695,0 c -1.140799,0 -2.067355,0.923773 -2.067355,2.065798 l 0,13.086934 3.649976,0 0,15.4981313 9.918991,0 0,-15.4981313 3.652672,0 0,-13.086934 2.6e-5,0 z m -4.134716,-8.2658547 c 0,2.471833 -2.004012,4.4756477 -4.476114,4.4756477 -2.472076,0 -4.47612,-2.0038147 -4.47612,-4.4756477 0,-2.471833 2.004044,-4.475649 4.47612,-4.475649 2.472102,0 4.476114,2.003816 4.476114,4.475649 z m -4.434548,-10.049159 c 7.2625,0 13.427035,2.559809 18.499001,7.679447 5.128206,5.064749 7.690969,11.2514257 7.690969,18.5559987 0,7.3581273 -2.509209,13.4658073 -7.530281,18.3176803 -5.286183,5.225395 -11.506988,7.837434 -18.659689,7.837434 -7.158051,0 -13.325302,-2.585249 -18.504376,-7.7571 -5.179075,-5.173187 -7.768622,-11.304972 -7.768622,-18.3980143 0,-7.091722 2.616311,-13.2770497 7.848945,-18.5559987 5.021093,-5.119613 11.161554,-7.679447 18.424053,-7.679447 z m -0.08309,-5.756911 c -8.861222,0 -16.364702,3.091319 -22.505163,9.277997 -6.301118,6.396871 -9.450348,13.9705367 -9.450348,22.7143597 0,8.7438283 3.14923,16.2652873 9.450348,22.5577193 6.301123,6.291091 13.804635,9.437304 22.505163,9.437304 8.810327,0 16.447736,-3.171663 22.909522,-9.518983 6.086902,-6.023347 9.1289969,-13.516702 9.1289969,-22.4760663 0,-8.959363 -3.0956749,-16.5290257 -9.2896849,-22.7143587 -6.193986,-6.186622 -13.77513,-9.277972 -22.748835,-9.277972 z"
   inkscape:connector-curvature="0" />

</g>
  </g>
</svg>
