<?xml version="1.0" encoding="UTF-8" standalone="no"?>
<!-- Created with Inkscape (http://www.inkscape.org/) -->

<svg
   xmlns:dc="http://purl.org/dc/elements/1.1/"
   xmlns:cc="http://creativecommons.org/ns#"
   xmlns:rdf="http://www.w3.org/1999/02/22-rdf-syntax-ns#"
   xmlns:svg="http://www.w3.org/2000/svg"
   xmlns="http://www.w3.org/2000/svg"
   xmlns:sodipodi="http://sodipodi.sourceforge.net/DTD/sodipodi-0.dtd"
   xmlns:inkscape="http://www.inkscape.org/namespaces/inkscape"
   width="64"
   height="64"
   id="svg2759"
   sodipodi:version="0.32"
   inkscape:version="0.48.4 r9939"
   version="1.0"
   sodipodi:docname="cc.by-nc-sa.eu.svg"
   inkscape:output_extension="org.inkscape.output.svg.inkscape">
  <defs
     id="defs2761" />
  <sodipodi:namedview
     id="base"
     pagecolor="#ffffff"
     bordercolor="#8b8b8b"
     borderopacity="1"
     gridtolerance="10000"
     guidetolerance="10"
     objecttolerance="10"
     inkscape:pageopacity="0.0"
     inkscape:pageshadow="2"
     inkscape:zoom="10.612645"
     inkscape:cx="66.083285"
     inkscape:cy="16.213563"
     inkscape:document-units="px"
     inkscape:current-layer="layer1"
     width="120px"
     height="42px"
     inkscape:showpageshadow="false"
     inkscape:window-width="1920"
     inkscape:window-height="1018"
     inkscape:window-x="-5"
     inkscape:window-y="-5"
     showgrid="false"
     inkscape:window-maximized="1" />
  <metadata
     id="metadata2764">
    <rdf:RDF>
      <cc:Work
         rdf:about="">
        <dc:format>image/svg+xml</dc:format>
        <dc:type
           rdf:resource="http://purl.org/dc/dcmitype/StillImage" />
        <dc:title></dc:title>
      </cc:Work>
    </rdf:RDF>
  </metadata>
  <g
     inkscape:label="Layer 1"
     inkscape:groupmode="layer"
     id="layer1"
     transform="translate(0,22)">
    <g
       id="g5706_5_"
       transform="matrix(0.8674921,0,0,0.8673951,-638.54905,153.79964)" />
    <g
       id="g130"
       transform="matrix(0.9937808,0,0,0.9936696,-437.12334,-74.436914)" />
    <g
       id="g6336_1_"
       transform="matrix(0.621108,0,0,0.6210385,-300.64866,184.76402)" />
    <path
       id="path45"
       d="m 1.1987283,-0.658654 61.6030277,0 c 0.362309,0 0.656826,0.294736 0.656826,0.657015 0,0 0,8.424712 0,14.517666 l -44.030183,0 c -1.613857,2.91787 -4.723564,4.898998 -8.291858,4.898998 -3.5693313,0 -6.6779997,-1.979316 -8.2908237,-4.898998 l -2.30433125,0 c 0,-6.092954 0,-14.517666 0,-14.517666 -5.28e-6,-0.362279 0.29502304,-0.657015 0.65734225,-0.657015 z M 62.80175,-1.2 1.1987283,-1.2 c -0.66096753,0 -1.198748708688,0.537721 -1.198748708688,1.198355 l 0,20.931234 C -2.0408688e-5,21.0789 0.12109894,21.2 0.27068018,21.2 l 63.45859582,0 c 0.149589,0 0.270704,-0.121106 0.270704,-0.270411 l 0,-20.931234 C 63.99998,-0.662279 63.462198,-1.2 62.80175,-1.2 z M 14.737927,8.415843 C 14.529354,7.961702 14.223419,7.734491 13.820736,7.734491 c -0.749962,0 -1.125255,0.495026 -1.125255,1.484569 0,0.989769 0.375293,1.484286 1.125255,1.484286 0.486554,0 0.827111,-0.240904 1.021226,-0.723791 l 1.041892,0.542656 c -0.484972,0.862991 -1.21268,1.294852 -2.18268,1.294852 -0.748439,0 -1.347268,-0.229779 -1.798123,-0.689086 -0.449786,-0.459563 -0.675469,-1.093307 -0.675469,-1.900646 0,-0.793391 0.228791,-1.42324 0.686369,-1.889774 0.457013,-0.466561 1.038788,-0.699731 1.745829,-0.699731 1.025348,0 1.759834,0.404729 2.202898,1.213363 l -1.124751,0.564654 z m -4.7949824,0 C 9.7348806,7.961702 9.423296,7.734491 9.0071126,7.734491 c -0.7349952,0 -1.1024923,0.495026 -1.1024923,1.484569 0,0.989769 0.3674971,1.484286 1.1024923,1.484286 0.4855365,0 0.8323066,-0.240904 1.0403704,-0.723791 l 1.019134,0.542656 c -0.48599,0.862991 -1.2147711,1.294852 -2.1862927,1.294852 -0.7495131,0 -1.3499194,-0.229779 -1.8007237,-0.689086 C 6.6282918,10.668414 6.4026049,10.03467 6.4026049,9.227331 c 0,-0.793391 0.2329136,-1.42324 0.6977232,-1.889774 0.4647536,-0.466561 1.0444927,-0.699731 1.7385973,-0.699731 1.0273792,0 1.7623736,0.404729 2.2075286,1.213363 L 9.9429446,8.415843 z M 6.3555014,4.389653 C 4.9921369,5.766559 4.3104547,7.379456 4.3104547,9.22939 c 0,1.849934 0.6749598,3.449137 2.0238104,4.797837 1.349864,1.349204 2.9559691,2.023811 4.8198329,2.023811 1.863863,0 3.483917,-0.681338 4.861231,-2.044253 1.307452,-1.265912 1.961175,-2.857857 1.961175,-4.777395 0,-1.904795 -0.664568,-3.521819 -1.993256,-4.850099 -1.328124,-1.327975 -2.937837,-1.992242 -4.82915,-1.992242 -1.8913134,0 -3.4917092,0.66763 -4.7985966,2.002604 z M 17.051577,3.304901 c 1.612314,1.612388 2.418698,3.586787 2.418698,5.92243 0,2.335897 -0.792434,4.28934 -2.377303,5.860325 -1.682176,1.654305 -3.669728,2.481324 -5.963724,2.481324 -2.2660421,0 -4.2194213,-0.820043 -5.8591296,-2.460881 -1.6407815,-1.640076 -2.460661,-3.60024 -2.460661,-5.880768 0,-2.280018 0.8198795,-4.254159 2.460661,-5.92243 1.5983089,-1.612897 3.5516928,-2.419218 5.8591296,-2.419218 2.335904,0 4.309506,0.806321 5.922329,2.419218 z m 12.21317,1.957317 c 0,-0.220727 -0.179086,-0.39954 -0.399584,-0.39954 l -2.529482,0 c -0.220498,0 -0.399585,0.178807 -0.399585,0.39954 l 0,2.529459 0.705479,0 0,2.995243 1.91717,0 0,-2.995243 0.705998,0 0,-2.529459 4e-6,0 z M 28.465578,3.664584 c 0,0.477759 -0.387341,0.865059 -0.865156,0.865059 -0.47781,0 -0.865157,-0.3873 -0.865157,-0.865059 0,-0.477759 0.387347,-0.86506 0.865157,-0.86506 0.477815,0 0.865156,0.387301 0.865156,0.86506 z M 27.608462,1.722009 c 1.403716,0 2.595215,0.495022 3.575538,1.484553 0.991194,0.978921 1.486532,2.17469 1.486532,3.586527 0,1.422188 -0.484986,2.602429 -1.455473,3.540464 -1.021729,1.009971 -2.224102,1.514829 -3.606597,1.514829 -1.383528,0 -2.575551,-0.499681 -3.576577,-1.499561 -1.001027,-0.999621 -1.501542,-2.18478 -1.501542,-3.555732 0,-1.370951 0.505688,-2.566206 1.517066,-3.586527 0.970497,-0.989525 2.157336,-1.484553 3.561053,-1.484553 z m -0.01606,-1.112698 c -1.712722,0 -3.163017,0.597755 -4.349861,1.793264 -1.217898,1.236655 -1.82659,2.700502 -1.82659,4.390519 0,1.690018 0.608692,3.143515 1.82659,4.359984 1.217898,1.215695 2.668198,1.824054 4.349861,1.824054 1.702884,0 3.179065,-0.613022 4.428016,-1.839841 1.176494,-1.164459 1.764478,-2.612525 1.764478,-4.344202 0,-1.731677 -0.598341,-3.195011 -1.795536,-4.39052 C 30.792164,1.20706 29.32686,0.609311 27.592402,0.609311 z M 25.7601,19.19248 c 0.07608,0 0.148548,-0.0073 0.217906,-0.02226 0.06936,-0.015 0.130432,-0.03985 0.183746,-0.07401 0.05279,-0.03466 0.09472,-0.08177 0.126292,-0.141286 0.03106,-0.059 0.04712,-0.135076 0.04712,-0.227198 0,-0.18114 -0.05125,-0.310523 -0.153726,-0.388151 -0.102484,-0.07711 -0.238094,-0.115928 -0.40631,-0.115928 l -0.84782,0 0,0.968825 0.83281,0 z m -0.04553,-1.498782 c 0.138716,0 0.252585,-0.03312 0.341612,-0.09885 0.08955,-0.06573 0.134057,-0.172342 0.134057,-0.320353 0,-0.08229 -0.015,-0.150085 -0.04452,-0.202359 -0.03,-0.05278 -0.06936,-0.09368 -0.119047,-0.123693 -0.04966,-0.02952 -0.106624,-0.05019 -0.170809,-0.06159 -0.0647,-0.01139 -0.13147,-0.01707 -0.200828,-0.01707 l -0.727739,0 0,0.823918 0.787265,0 z m 0.09938,-1.428399 c 0.168216,0 0.321942,0.015 0.460658,0.04452 0.138716,0.02952 0.257763,0.07815 0.357141,0.145944 0.09886,0.06728 0.175462,0.157334 0.230329,0.269118 0.05435,0.112303 0.08178,0.25049 0.08178,0.415582 0,0.178033 -0.04039,0.326045 -0.121634,0.444565 -0.08074,0.119033 -0.200828,0.215814 -0.359208,0.29189 0.218425,0.06262 0.381469,0.172342 0.489126,0.329151 0.107657,0.156809 0.161491,0.345712 0.161491,0.566704 0,0.178034 -0.03466,0.332257 -0.104037,0.462679 -0.06936,0.129903 -0.163044,0.236515 -0.280538,0.318801 -0.116974,0.08281 -0.251032,0.143873 -0.401138,0.183206 -0.15062,0.03985 -0.304865,0.05951 -0.463764,0.05951 l -1.715308,0 0,-3.531666 1.6651,0 0,5e-6 z m 1.436842,0 0.870595,0 0.827117,1.394762 0.822458,-1.394762 0.865936,0 -1.311584,2.176242 0,1.355429 -0.778462,0 0,-1.375095 -1.29606,-2.156576 z m 25.250831,2.658583 c 0.04299,0.08229 0.09938,0.14905 0.170289,0.200287 0.07091,0.05125 0.153726,0.08902 0.249478,0.113856 0.09524,0.02485 0.193579,0.03725 0.296062,0.03725 0.06884,0 0.142855,-0.0057 0.22205,-0.0176 0.07868,-0.01139 0.152693,-0.03365 0.222053,-0.06676 0.06884,-0.03259 0.126288,-0.07815 0.172875,-0.136114 0.04555,-0.05745 0.06884,-0.130936 0.06884,-0.219953 0,-0.09574 -0.03051,-0.172856 -0.09162,-0.232376 -0.06055,-0.05951 -0.140778,-0.108683 -0.239125,-0.148531 -0.09886,-0.03932 -0.211179,-0.07401 -0.335919,-0.104026 -0.125259,-0.02952 -0.25207,-0.06262 -0.38043,-0.09885 -0.131984,-0.03312 -0.260349,-0.07349 -0.385608,-0.121106 -0.124739,-0.04759 -0.23706,-0.109717 -0.335919,-0.185797 -0.09834,-0.07556 -0.178568,-0.17027 -0.239127,-0.284126 -0.06107,-0.113856 -0.09161,-0.251523 -0.09161,-0.412996 0,-0.181653 0.0388,-0.338987 0.115941,-0.472509 0.07764,-0.133523 0.179088,-0.244793 0.303827,-0.334329 0.125259,-0.08902 0.26708,-0.154742 0.42546,-0.197701 0.157865,-0.04298 0.31625,-0.06417 0.474115,-0.06417 0.18478,0 0.361802,0.02072 0.531567,0.06211 0.169259,0.04091 0.320395,0.108164 0.451862,0.200287 0.131984,0.09264 0.236544,0.210637 0.314181,0.353995 0.07712,0.143873 0.115941,0.317768 0.115941,0.522194 l -0.753621,0 c -0.0067,-0.105578 -0.02848,-0.193042 -0.06625,-0.261873 -0.03781,-0.06935 -0.08799,-0.123693 -0.150624,-0.16354 -0.06211,-0.03932 -0.133536,-0.0678 -0.213765,-0.08384 -0.08023,-0.01653 -0.168216,-0.02485 -0.263454,-0.02485 -0.06211,0 -0.12474,0.0067 -0.186852,0.01966 -0.06263,0.01346 -0.119047,0.03625 -0.16977,0.06935 -0.05125,0.03312 -0.09265,0.07401 -0.125773,0.123692 -0.0326,0.04966 -0.04918,0.112303 -0.04918,0.187864 0,0.06935 0.01293,0.125759 0.03933,0.168198 0.0264,0.04298 0.07816,0.08281 0.155799,0.119034 0.07764,0.03625 0.184265,0.07245 0.320909,0.108684 0.136643,0.03625 0.315733,0.08281 0.536229,0.1387 0.06573,0.01293 0.157355,0.03726 0.273808,0.07194 0.116976,0.03466 0.233435,0.08954 0.348341,0.165612 0.115424,0.07608 0.2148,0.177514 0.299168,0.304312 0.08385,0.126797 0.125776,0.289304 0.125776,0.487518 0,0.161473 -0.03157,0.311556 -0.0942,0.450257 -0.06262,0.1387 -0.155798,0.258248 -0.279499,0.358653 -0.123707,0.10092 -0.276912,0.179068 -0.460139,0.234963 -0.182709,0.05641 -0.394405,0.08436 -0.635608,0.08436 -0.194617,0 -0.383022,-0.02432 -0.566248,-0.07194 -0.183227,-0.04812 -0.344718,-0.123172 -0.484467,-0.225644 -0.140269,-0.102473 -0.251551,-0.233409 -0.334366,-0.391777 -0.0823,-0.158367 -0.122153,-0.346231 -0.118528,-0.564112 l 0.75362,0 c -1.6e-5,0.118519 0.0212,0.219439 0.06417,0.301725 z m 4.420791,-0.493215 -0.445125,-1.294877 -0.01035,0 -0.459627,1.294877 0.915104,0 z m -0.04453,-2.165368 1.320901,3.531666 -0.806411,0 -0.267082,-0.786658 -1.320902,0 -0.277429,0.786658 -0.781568,0 1.335909,-3.531666 0.796582,0 z m -18.201716,0 1.475662,2.369279 0.0083,0 0,-2.369279 0.728773,0 0,3.531666 -0.776909,0 -1.469969,-2.364621 -0.0099,0 0,2.364621 -0.728772,0 0,-3.531666 0.772769,0 z m 5.161449,0.940881 c -0.04606,-0.07452 -0.104037,-0.139734 -0.173395,-0.195629 -0.06936,-0.05589 -0.147514,-0.09989 -0.234988,-0.130937 -0.08747,-0.03158 -0.179087,-0.04711 -0.274326,-0.04711 -0.174948,0 -0.323495,0.03365 -0.445648,0.101439 -0.122153,0.06728 -0.221012,0.157848 -0.296582,0.271709 -0.07608,0.113856 -0.13147,0.243239 -0.166149,0.388151 -0.03466,0.144911 -0.05178,0.294996 -0.05178,0.449738 0,0.148531 0.01707,0.292923 0.05178,0.432662 0.03466,0.140253 0.09006,0.266531 0.166149,0.37832 0.07557,0.112304 0.174429,0.20184 0.296582,0.269637 0.122153,0.0678 0.2707,0.101439 0.445648,0.101439 0.23706,0 0.422874,-0.07245 0.556411,-0.217881 0.133538,-0.144911 0.215319,-0.336401 0.24482,-0.573949 l 0.752067,0 c -0.01966,0.220987 -0.07091,0.42076 -0.153207,0.598788 -0.0823,0.178548 -0.191511,0.33019 -0.326601,0.455949 -0.13509,0.125759 -0.293475,0.221506 -0.475149,0.287751 -0.181159,0.06624 -0.380949,0.09937 -0.598341,0.09937 -0.270701,0 -0.513973,-0.04711 -0.730326,-0.141287 -0.215838,-0.09368 -0.398545,-0.223578 -0.547098,-0.388151 -0.148548,-0.165092 -0.262936,-0.359168 -0.342131,-0.581713 -0.07919,-0.223059 -0.119047,-0.462679 -0.119047,-0.720413 0,-0.263945 0.03986,-0.508738 0.119047,-0.734902 0.07919,-0.226165 0.193578,-0.423346 0.342131,-0.591543 0.148553,-0.168198 0.33126,-0.300174 0.547098,-0.395916 0.216353,-0.09574 0.459625,-0.143358 0.730326,-0.143358 0.194617,0 0.378363,0.02793 0.551238,0.08436 0.173395,0.05589 0.328674,0.137667 0.465317,0.245312 0.137164,0.107131 0.249999,0.240134 0.339025,0.398501 0.08903,0.158367 0.144928,0.340021 0.168217,0.544447 l -0.752067,0 c -0.01346,-0.08902 -0.04299,-0.170784 -0.08902,-0.244793 z M 55.438918,1.718904 c 1.403723,0 2.595227,0.494506 3.576064,1.484306 0.990699,0.978902 1.486006,2.173896 1.486006,3.586519 0,1.422181 -0.484955,2.602174 -1.455478,3.540727 -1.021189,1.009713 -2.224101,1.514569 -3.606592,1.514569 -1.383013,0 -2.575009,-0.499944 -3.57606,-1.499568 C 50.861847,9.345588 50.36132,8.160683 50.36132,6.789729 c 0,-1.370955 0.505175,-2.566453 1.517064,-3.586519 0.969999,-0.9898 2.156817,-1.484306 3.560534,-1.484306 z m -0.01552,-1.113218 c -1.713221,0 -3.163525,0.598012 -4.349858,1.793006 -1.217872,1.236923 -1.82709,2.700768 -1.82709,4.391037 0,1.690268 0.609218,3.143259 1.82709,4.359723 1.217388,1.216222 2.667693,1.82432 4.349858,1.82432 1.702912,0 3.178571,-0.61354 4.427499,-1.839586 1.176507,-1.164972 1.765024,-2.613052 1.765024,-4.344461 0,-1.731428 -0.598341,-3.195274 -1.79608,-4.391037 -1.197168,-1.19499 -2.662475,-1.793002 -4.396443,-1.793002 z m -2.741165,5.311475 c 0.24638,-1.556236 1.341608,-2.387904 2.714797,-2.387904 1.97408,0 3.177478,1.432532 3.177478,3.34275 0,1.864165 -1.280512,3.311722 -3.208576,3.311722 -1.326566,0 -2.514436,-0.815902 -2.730287,-2.418188 l 1.557945,0 c 0.04656,0.831691 0.586454,1.124599 1.357664,1.124599 0.878891,0 1.449776,-0.816405 1.449776,-2.064186 0,-1.309881 -0.493248,-2.002606 -1.419248,-2.002606 -0.678565,0 -1.264496,0.246598 -1.388192,1.093813 l 0.452896,-0.003 -1.226165,1.226573 -1.226203,-1.226573 0.488115,0.003 z" />
    <path
       inkscape:connector-curvature="0"
       id="path3271"
       d="M 43.870426,7.138625 V 6.695817 H 42.908078 L 44.478489,3.80259 H 42.837144 L 41.755736,6.196958 41.181884,5.941441 40.193636,3.80259 h -1.641151 l 0.681124,1.271404 -2.04221,-0.909388 c 0.212223,-0.336503 0.468514,-0.657736 0.770805,-0.96312 0.970272,-0.9896 2.157019,-1.4844 3.561014,-1.4844 1.403222,0 2.595574,0.4948 3.57609,1.4844 0.99076,0.979356 1.485946,2.174994 1.485946,3.587493 0,0.523212 -0.0661,1.012987 -0.19734,1.47029 L 43.870426,7.138625 z m -0.16371,1.280488 H 42.270057 V 7.952532 l 0.07248,-0.140709 1.364179,0.60729 z m 1.423324,1.910778 c -1.021878,1.010282 -2.224281,1.515132 -3.606822,1.515132 -1.38312,0 -2.575279,-0.500018 -3.576283,-1.500056 -1.001197,-0.999457 -1.501602,-2.185044 -1.501602,-3.555988 0,-0.527271 0.07557,-1.02787 0.22498,-1.503148 l 3.166526,1.409986 H 39.14006 v 0.962734 h 1.448837 l 0.141675,0.293981 V 8.419113 H 39.14006 v 0.962541 h 1.590512 V 10.77985 H 42.26967 V 9.381654 h 1.600562 V 8.491787 l 2.019403,0.899337 c -0.206811,0.336117 -0.459816,0.649232 -0.759595,0.938767 z M 45.904518,2.397436 C 44.706947,1.201798 43.241875,0.603979 41.507369,0.603979 c -1.713052,0 -3.163241,0.597819 -4.349794,1.793457 -1.218252,1.237193 -1.827088,2.700912 -1.827088,4.391543 0,1.690438 0.608836,3.144299 1.827088,4.360618 1.217478,1.216319 2.667668,1.824382 4.349794,1.824382 1.703195,0 3.179283,-0.613281 4.42788,-1.840038 1.17689,-1.164712 1.765238,-2.613355 1.765238,-4.344962 0,-1.7318 -0.598785,-3.195712 -1.795969,-4.391543 z" />
  </g>
</svg>
