<?xml version="1.0" encoding="UTF-8" standalone="no"?>
<!-- Created with Inkscape (http://www.inkscape.org/) -->

<svg
   xmlns:dc="http://purl.org/dc/elements/1.1/"
   xmlns:cc="http://creativecommons.org/ns#"
   xmlns:rdf="http://www.w3.org/1999/02/22-rdf-syntax-ns#"
   xmlns:svg="http://www.w3.org/2000/svg"
   xmlns="http://www.w3.org/2000/svg"
   xmlns:sodipodi="http://sodipodi.sourceforge.net/DTD/sodipodi-0.dtd"
   xmlns:inkscape="http://www.inkscape.org/namespaces/inkscape"
   width="64"
   height="64"
   id="svg2759"
   sodipodi:version="0.32"
   inkscape:version="0.48.4 r9939"
   version="1.0"
   sodipodi:docname="cc.by-sa.svg"
   inkscape:output_extension="org.inkscape.output.svg.inkscape">
  <defs
     id="defs2761" />
  <sodipodi:namedview
     id="base"
     pagecolor="#ffffff"
     bordercolor="#8b8b8b"
     borderopacity="1"
     gridtolerance="10000"
     guidetolerance="10"
     objecttolerance="10"
     inkscape:pageopacity="0.0"
     inkscape:pageshadow="2"
     inkscape:zoom="2.8284271"
     inkscape:cx="15.191823"
     inkscape:cy="42.15481"
     inkscape:document-units="px"
     inkscape:current-layer="layer1"
     width="120px"
     height="42px"
     inkscape:showpageshadow="false"
     inkscape:window-width="1920"
     inkscape:window-height="1018"
     inkscape:window-x="-5"
     inkscape:window-y="-5"
     showgrid="false"
     inkscape:window-maximized="1" />
  <metadata
     id="metadata2764">
    <rdf:RDF>
      <cc:Work
         rdf:about="">
        <dc:format>image/svg+xml</dc:format>
        <dc:type
           rdf:resource="http://purl.org/dc/dcmitype/StillImage" />
      </cc:Work>
    </rdf:RDF>
  </metadata>
  <g
     inkscape:label="Layer 1"
     inkscape:groupmode="layer"
     id="layer1"
     transform="translate(0,22)">
    <g
       transform="matrix(0.53001638,0,0,0.52995702,-94.770183,-40.899418)"
       id="g287"
       inkscape:export-filename="/mnt/hgfs/Bov/Documents/Work/2007/cc/identity/srr buttons/big/by-sa.png"
       inkscape:export-xdpi="300.23013"
       inkscape:export-ydpi="300.23013">
      <g
         id="g5908_2_"
         transform="matrix(0.872921,0,0,0.872921,50.12536,143.2144)">
        <g
           id="g5706_2_"
           transform="translate(-289.6157,99.0653)">
          <path
             id="path5708_2_"
             d="m 473.88455,-167.54724 c 3.48541,3.48596 5.22839,7.75391 5.22839,12.80273 0,5.04938 -1.7128,9.27148 -5.13834,12.66736 -3.63531,3.5766 -7.93179,5.36432 -12.88947,5.36432 -4.89777,0 -9.11987,-1.77261 -12.6651,-5.31955 -3.54584,-3.54581 -5.31845,-7.78299 -5.31845,-12.71213 0,-4.92859 1.77261,-9.19598 5.31845,-12.80273 3.4552,-3.48651 7.67725,-5.22894 12.6651,-5.22894 5.04829,0 9.31401,1.74243 12.79942,5.22894 z m -23.11798,2.34485 c -2.94675,2.97638 -4.41956,6.46289 -4.41956,10.46234 0,3.99835 1.45828,7.4552 4.37424,10.37067 2.91653,2.9165 6.38849,4.37476 10.41705,4.37476 4.02853,0 7.53018,-1.47281 10.50656,-4.41901 2.8259,-2.73584 4.23941,-6.17706 4.23941,-10.32642 0,-4.11804 -1.43646,-7.61292 -4.30768,-10.48474 -2.87064,-2.87067 -6.34988,-4.30652 -10.43829,-4.30652 -4.08837,0 -7.54638,1.44318 -10.37173,4.32892 z m 7.75449,8.70312 c -0.45032,-0.98163 -1.12433,-1.47223 -2.02325,-1.47223 -1.58914,0 -2.38342,1.06952 -2.38342,3.2085 0,2.13959 0.79428,3.20911 2.38342,3.20911 1.04938,0 1.79895,-0.5213 2.24866,-1.56512 l 2.20276,1.17303 c -1.04993,1.86548 -2.62506,2.79901 -4.72549,2.79901 -1.6199,0 -2.91763,-0.4967 -3.89206,-1.48956 -0.97607,-0.99341 -1.46274,-2.36273 -1.46274,-4.10797 0,-1.71558 0.50229,-3.07709 1.50748,-4.08563 1.00519,-1.00793 2.25705,-1.51251 3.75781,-1.51251 2.22012,0 3.80984,0.87488 4.77081,2.62286 l -2.38398,1.22051 z m 10.36334,0 c -0.45087,-0.98163 -1.11148,-1.47223 -1.98239,-1.47223 -1.62106,0 -2.43213,1.06952 -2.43213,3.2085 0,2.13959 0.81107,3.20911 2.43213,3.20911 1.05103,0 1.78717,-0.5213 2.20724,-1.56512 l 2.25201,1.17303 c -1.04825,1.86548 -2.62119,2.79901 -4.71768,2.79901 -1.61771,0 -2.91263,-0.4967 -3.88647,-1.48956 -0.97217,-0.99341 -1.45938,-2.36273 -1.45938,-4.10797 0,-1.71558 0.49448,-3.07709 1.48288,-4.08563 0.98782,-1.00793 2.24527,-1.51251 3.77347,-1.51251 2.21619,0 3.80368,0.87488 4.76132,2.62286 l -2.431,1.22051 z"
             inkscape:connector-curvature="0" />
        </g>
      </g>
      <path
         d="M 2.25,0 C 1.0111729,0 0,1.0113116 0,2.25 L 0,41.5 C 0,41.779956 0.22002216,42 0.5,42 l 119,0 c 0.27999,0 0.5,-0.220044 0.5,-0.5 L 120,2.25 C 120,1.0113017 118.98883,0 117.75,0 L 2.25,0 z m 0,1 115.5,0 c 0.67934,0 1.25,0.5707276 1.25,1.25 l 0,27.25 -82.5625,0 C 33.411517,34.970518 27.565549,38.6875 20.875,38.6875 14.181539,38.6875 8.3682719,34.973916 5.34375,29.5 L 1,29.5 1,2.25 C 0.99998012,1.5707276 1.5706615,1 2.25,1 z m 85.1875,31.59375 c 0.346462,0 0.681682,0.01615 1,0.09375 0.317354,0.07711 0.597243,0.201784 0.84375,0.375 0.247471,0.173216 0.448181,0.418216 0.59375,0.6875 0.144605,0.269284 0.21875,0.585452 0.21875,0.96875 l -1.4375,0 c -0.01262,-0.197959 -0.05514,-0.370455 -0.125,-0.5 C 88.46039,34.088718 88.366451,33.980964 88.25,33.90625 88.132575,33.83252 87.994179,33.780565 87.84375,33.75 87.692357,33.719 87.553572,33.71875 87.375,33.71875 c -0.116461,0 -0.258539,0.007 -0.375,0.03125 -0.117425,0.02524 -0.217395,0.06333 -0.3125,0.125 -0.0961,0.0621 -0.157613,0.15733 -0.21875,0.25 -0.06112,0.09311 -0.09375,0.201586 -0.09375,0.34375 0,0.130032 0.01301,0.23245 0.0625,0.3125 0.04949,0.08059 0.167895,0.150823 0.3125,0.21875 0.144605,0.06797 0.337543,0.150823 0.59375,0.21875 0.256207,0.06797 0.585603,0.145198 1,0.25 0.123249,0.02474 0.280673,0.05997 0.5,0.125 0.219327,0.06499 0.439824,0.170336 0.65625,0.3125 0.216416,0.142641 0.40431,0.356005 0.5625,0.59375 0.157216,0.238232 0.25,0.535085 0.25,0.90625 0,0.303248 -0.0701,0.584174 -0.1875,0.84375 -0.117425,0.260063 -0.299312,0.467989 -0.53125,0.65625 -0.231948,0.189224 -0.501164,0.332211 -0.84375,0.4375 -0.34355,0.105289 -0.737188,0.1875 -1.1875,0.1875 -0.364906,0 -0.71894,-0.06648 -1.0625,-0.15625 -0.342586,-0.08973 -0.643246,-0.214114 -0.90625,-0.40625 -0.26203,-0.192136 -0.500972,-0.453062 -0.65625,-0.75 -0.154304,-0.297425 -0.224574,-0.653973 -0.21875,-1.0625 l 1.4375,0 c -3e-5,0.222701 0.01319,0.408213 0.09375,0.5625 0.0796,0.154774 0.210792,0.278932 0.34375,0.375 0.132958,0.09559 0.290178,0.172654 0.46875,0.21875 0.179536,0.0466 0.340066,0.09375 0.53125,0.09375 0.129072,0 0.289009,-0.04064 0.4375,-0.0625 0.147517,-0.02136 0.276204,-0.06341 0.40625,-0.125 0.129072,-0.06161 0.227094,-0.141799 0.3125,-0.25 0.08735,-0.108201 0.15625,-0.238856 0.15625,-0.40625 0,-0.179039 -0.07297,-0.325901 -0.1875,-0.4375 -0.113549,-0.111589 -0.25213,-0.206536 -0.4375,-0.28125 -0.184396,-0.07373 -0.391114,-0.131705 -0.625,-0.1875 C 87.42139,36.60041 87.178174,36.537164 86.9375,36.46875 86.690029,36.407142 86.45361,36.339768 86.21875,36.25 85.984864,36.160768 85.74786,36.048414 85.5625,35.90625 85.37714,35.764086 85.239523,35.58848 85.125,35.375 c -0.113549,-0.21348 -0.15625,-0.478489 -0.15625,-0.78125 0,-0.3406 0.07411,-0.655895 0.21875,-0.90625 0.145569,-0.250355 0.32764,-0.457606 0.5625,-0.625 0.233886,-0.166907 0.484279,-0.263203 0.78125,-0.34375 0.295998,-0.08009 0.610252,-0.125 0.90625,-0.125 z M 56.875,32.75 60,32.75 c 0.315406,0 0.614908,0.0384 0.875,0.09375 0.260092,0.05575 0.469916,0.123367 0.65625,0.25 0.18536,0.126633 0.335598,0.321168 0.4375,0.53125 0.101902,0.210082 0.15625,0.440939 0.15625,0.75 0,0.333813 -0.09766,0.621039 -0.25,0.84375 -0.151393,0.222701 -0.359288,0.420346 -0.65625,0.5625 0.409547,0.117412 0.704393,0.299733 0.90625,0.59375 0.201857,0.294017 0.3125,0.64814 0.3125,1.0625 0,0.333813 -0.05742,0.630458 -0.1875,0.875 -0.130046,0.244055 -0.311923,0.438976 -0.53125,0.59375 -0.220301,0.154774 -0.468561,0.27001 -0.75,0.34375 -0.282413,0.07472 -0.577065,0.125 -0.875,0.125 l -3.21875,0 0,-6.625 z m 5.8125,0 1.625,0 1.5625,2.625 1.53125,-2.625 1.625,0 -2.4375,4.0625 0,2.5625 -1.46875,0 0,-2.59375 L 62.6875,32.75 z m 30.28125,0 1.5,0 2.46875,6.625 -1.5,0 -0.5,-1.46875 -2.46875,0 -0.53125,1.46875 -1.46875,0 2.5,-6.625 z m -34.625,1.125 0,1.5625 1.46875,0 c 0.260092,0 0.457101,-0.06424 0.625,-0.1875 0.166925,-0.123722 0.25,-0.347468 0.25,-0.625 0,-0.154287 -0.0071,-0.276498 -0.0625,-0.375 C 60.56875,34.15103 60.499417,34.087045 60.40625,34.03125 60.31313,33.9759 60.182847,33.927624 60.0625,33.90625 59.941189,33.88439 59.817546,33.875 59.6875,33.875 l -1.34375,0 z m 35.34375,0.5 -0.84375,2.4375 1.71875,0 -0.84375,-2.4375 -0.03125,0 z m -35.34375,2.03125 0,1.84375 1.5625,0 c 0.142657,0 0.276204,-0.03438 0.40625,-0.0625 0.130046,-0.02762 0.24476,-0.06046 0.34375,-0.125 0.09898,-0.06499 0.15955,-0.170148 0.21875,-0.28125 0.05923,-0.111102 0.09375,-0.233034 0.09375,-0.40625 0,-0.339636 -0.08911,-0.604934 -0.28125,-0.75 -0.192157,-0.145066 -0.434594,-0.21875 -0.75,-0.21875 l -1.59375,0 z"
         transform="matrix(1.0062582,0,0,1.0063709,178.80614,74.910638)"
         id="path294"
         inkscape:connector-curvature="0" />
      <g
         id="g6316_1_"
         transform="matrix(0.624995,0,0,0.624995,391.2294,176.9332)">
        <g
           id="g6320_1_"
           transform="translate(-23.9521,-89.72962)">
          <path
             id="path6322_1_"
             d="m -168.2204,-68.05536 c -5.17194,0 -9.54852,1.80469 -13.13135,5.41333 -3.67661,3.73444 -5.51413,8.1532 -5.51413,13.25635 0,5.10315 1.83752,9.49152 5.51413,13.1626 3.67502,3.67194 8.05316,5.50787 13.13135,5.50787 5.14066,0 9.59537,-1.85156 13.36728,-5.55475 3.55005,-3.51562 5.3266,-7.88831 5.3266,-13.11572 0,-5.22662 -1.8078,-9.64697 -5.42191,-13.25635 -3.61407,-3.60864 -8.03756,-5.41333 -13.27197,-5.41333 z m 0.0469,3.36017 c 4.23752,0 7.836,1.49298 10.79697,4.48053 2.98907,2.9563 4.48441,6.56567 4.48441,10.82898 0,4.29382 -1.46252,7.85712 -4.39224,10.68915 -3.08438,3.04926 -6.71411,4.57349 -10.88913,4.57349 -4.17505,0 -7.7735,-1.5094 -10.79541,-4.52661 -3.02188,-3.01953 -4.53284,-6.59692 -4.53284,-10.73602 0,-4.13831 1.52658,-7.74847 4.57971,-10.82898 2.92815,-2.98756 6.51098,-4.48054 10.74853,-4.48054 z"
             inkscape:connector-curvature="0" />
          <path
             id="path6324_1_"
             d="m -176.49548,-52.02087 c 0.74377,-4.69769 4.05161,-7.20862 8.1954,-7.20862 5.96097,0 9.59225,4.32501 9.59225,10.09229 0,5.62738 -3.86411,9.99927 -9.686,9.99927 -4.00473,0 -7.58914,-2.46484 -8.24228,-7.30084 l 4.70319,0 c 0.14062,2.51099 1.77032,3.39459 4.09845,3.39459 2.65317,0 4.37817,-2.4649 4.37817,-6.23291 0,-3.95233 -1.49063,-6.04535 -4.28598,-6.04535 -2.04846,0 -3.8172,0.74457 -4.19064,3.30157 l 1.36874,-0.007 -3.70316,3.7016 -3.7016,-3.7016 1.47346,0.007 z"
             inkscape:connector-curvature="0" />
        </g>
      </g>
      <g
         id="g313">
        <g
           id="g317">
          <path
             d="m 245.68994,87.09766 c 0,-0.4165 -0.33789,-0.75342 -0.75391,-0.75342 l -4.77246,0 c -0.41602,0 -0.75391,0.33691 -0.75391,0.75342 l 0,4.77295 1.33105,0 0,5.65234 3.61719,0 0,-5.65234 1.33203,0 0,-4.77295 1e-5,0 z"
             id="path319"
             inkscape:connector-curvature="0" />
          <circle
             cx="242.5498"
             cy="84.083008"
             r="1.63232"
             id="circle321"
             sodipodi:cx="242.5498"
             sodipodi:cy="84.083008"
             sodipodi:rx="1.63232"
             sodipodi:ry="1.63232"
             d="m 244.18212,84.083008 c 0,0.901505 -0.73081,1.63232 -1.63232,1.63232 -0.9015,0 -1.63232,-0.730815 -1.63232,-1.63232 0,-0.901506 0.73082,-1.63232 1.63232,-1.63232 0.90151,0 1.63232,0.730814 1.63232,1.63232 z" />
        </g>
        <path
           clip-rule="evenodd"
           d="m 242.53467,78.31836 c -3.23145,0 -5.96826,1.12744 -8.20752,3.38379 -2.29785,2.33301 -3.44629,5.09521 -3.44629,8.28418 0,3.18897 1.14844,5.93213 3.44629,8.22705 2.29785,2.29443 5.03418,3.44189 8.20752,3.44189 3.21289,0 5.99805,-1.15674 8.35352,-3.47168 2.2207,-2.19678 3.33008,-4.92969 3.33008,-8.19727 0,-3.26758 -1.12891,-6.02881 -3.3877,-8.28418 -2.25879,-2.25634 -5.02442,-3.38378 -8.2959,-3.38378 z m 0.0293,2.09961 c 2.64844,0 4.89746,0.93359 6.74707,2.80078 1.87012,1.84717 2.80469,4.10352 2.80469,6.76758 0,2.68359 -0.91504,4.91113 -2.74609,6.68066 -1.92773,1.90576 -4.19629,2.8584 -6.80566,2.8584 -2.60937,0 -4.8584,-0.94287 -6.74658,-2.82959 -1.88965,-1.88623 -2.8335,-4.12256 -2.8335,-6.70947 0,-2.58643 0.9541,-4.84229 2.8623,-6.76758 1.83057,-1.86719 4.07031,-2.80078 6.71777,-2.80078 z"
           id="path323"
           style="fill-rule:evenodd"
           inkscape:connector-curvature="0" />
      </g>
    </g>
  </g>
</svg>
