<?xml version="1.0" encoding="UTF-8" standalone="no"?>
<!-- Created with Inkscape (http://www.inkscape.org/) -->

<svg
   xmlns:dc="http://purl.org/dc/elements/1.1/"
   xmlns:cc="http://creativecommons.org/ns#"
   xmlns:rdf="http://www.w3.org/1999/02/22-rdf-syntax-ns#"
   xmlns:svg="http://www.w3.org/2000/svg"
   xmlns="http://www.w3.org/2000/svg"
   xmlns:sodipodi="http://sodipodi.sourceforge.net/DTD/sodipodi-0.dtd"
   xmlns:inkscape="http://www.inkscape.org/namespaces/inkscape"
   width="64"
   height="64"
   id="svg2759"
   sodipodi:version="0.32"
   inkscape:version="0.48.4 r9939"
   version="1.0"
   sodipodi:docname="cc.by-nd.svg"
   inkscape:output_extension="org.inkscape.output.svg.inkscape">
  <defs
     id="defs2761" />
  <sodipodi:namedview
     id="base"
     pagecolor="#ffffff"
     bordercolor="#8b8b8b"
     borderopacity="1"
     gridtolerance="10000"
     guidetolerance="10"
     objecttolerance="10"
     inkscape:pageopacity="0.0"
     inkscape:pageshadow="2"
     inkscape:zoom="5.6568542"
     inkscape:cx="59.267294"
     inkscape:cy="45.977595"
     inkscape:document-units="px"
     inkscape:current-layer="layer1"
     width="120px"
     height="42px"
     inkscape:showpageshadow="false"
     inkscape:window-width="1920"
     inkscape:window-height="1018"
     inkscape:window-x="-5"
     inkscape:window-y="-5"
     showgrid="false"
     inkscape:window-maximized="1" />
  <metadata
     id="metadata2764">
    <rdf:RDF>
      <cc:Work
         rdf:about="">
        <dc:format>image/svg+xml</dc:format>
        <dc:type
           rdf:resource="http://purl.org/dc/dcmitype/StillImage" />
      </cc:Work>
    </rdf:RDF>
  </metadata>
  <g
     inkscape:label="Layer 1"
     inkscape:groupmode="layer"
     id="layer1"
     transform="translate(0,22)">
    <g
       transform="matrix(0.53001644,0,0,0.52995713,-94.770211,-120.29855)"
       id="g78"
       inkscape:export-filename="/mnt/hgfs/Bov/Documents/Work/2007/cc/identity/srr buttons/big/by-nd.png"
       inkscape:export-xdpi="300.23013"
       inkscape:export-ydpi="300.23013">
      <g
         id="g5908_6_"
         transform="matrix(0.872921,0,0,0.872921,50.12536,143.2144)">
        <g
           id="g5706_6_"
           transform="translate(-289.6157,99.0653)">
          <path
             id="path5708_6_"
             d="m 473.88458,4.04068 c 3.48541,3.48483 5.22839,7.75281 5.22839,12.80161 0,5.04996 -1.71283,9.27203 -5.13837,12.66852 -3.63531,3.57544 -7.93176,5.36319 -12.88943,5.36319 -4.8978,0 -9.11987,-1.77209 -12.66513,-5.31958 -3.54581,-3.54526 -5.31842,-7.78299 -5.31842,-12.71213 0,-4.92798 1.77261,-9.19595 5.31842,-12.80161 3.4552,-3.48709 7.67728,-5.23007 12.66513,-5.23007 5.04825,0 9.314,1.74298 12.79941,5.23007 z M 450.7666,6.38443 c -2.94678,2.97693 -4.41956,6.46402 -4.41956,10.46234 0,3.99835 1.45825,7.45523 4.37421,10.37173 2.91656,2.91541 6.38852,4.37424 10.41705,4.37424 4.02856,0 7.53021,-1.47223 10.50659,-4.41898 2.82587,-2.73642 4.23938,-6.17761 4.23938,-10.327 0,-4.11804 -1.43646,-7.61295 -4.30768,-10.48474 -2.87061,-2.86954 -6.34985,-4.30597 -10.43829,-4.30597 -4.08837,1e-5 -7.54638,1.44316 -10.3717,4.32838 z m 7.75446,8.7037 c -0.45029,-0.98224 -1.12433,-1.47226 -2.02322,-1.47226 -1.58914,0 -2.38345,1.06952 -2.38345,3.20853 0,2.13901 0.79431,3.20853 2.38345,3.20853 1.04935,0 1.79892,-0.52133 2.24863,-1.564 l 2.20279,1.17242 c -1.04993,1.86493 -2.62509,2.79907 -4.72549,2.79907 -1.61993,0 -2.91766,-0.49673 -3.89209,-1.49014 -0.97607,-0.99344 -1.46271,-2.36276 -1.46271,-4.108 0,-1.715 0.50229,-3.07651 1.50748,-4.08557 1.00516,-1.008 2.25705,-1.51141 3.75781,-1.51141 2.22012,0 3.80984,0.87372 4.77081,2.62228 l -2.38401,1.22055 z m 10.36334,0 c -0.45087,-0.98224 -1.11145,-1.47226 -1.98236,-1.47226 -1.62109,0 -2.43213,1.06952 -2.43213,3.20853 0,2.13901 0.81104,3.20853 2.43213,3.20853 1.05103,0 1.78717,-0.52133 2.20721,-1.564 l 2.25201,1.17242 c -1.04822,1.86493 -2.62115,2.79907 -4.71765,2.79907 -1.61774,0 -2.91266,-0.49673 -3.88647,-1.49014 -0.97217,-0.99344 -1.45941,-2.36276 -1.45941,-4.108 0,-1.715 0.49451,-3.07651 1.48291,-4.08557 0.98779,-1.008 2.24524,-1.51141 3.77344,-1.51141 2.21619,0 3.80371,0.87372 4.76135,2.62228 l -2.43103,1.22055 z"
             inkscape:connector-curvature="0" />
        </g>
      </g>
      <g
         id="g85">
        <g
           id="g89">
          <path
             d="m 245.68994,236.87988 c 0,-0.41699 -0.33789,-0.75391 -0.75391,-0.75391 l -4.77246,0 c -0.41602,0 -0.75391,0.33691 -0.75391,0.75391 l 0,4.77246 1.33105,0 0,5.65234 3.61719,0 0,-5.65234 1.33203,0 0,-4.77246 1e-5,0 z"
             id="path91"
             inkscape:connector-curvature="0" />
          <circle
             cx="242.5498"
             cy="233.86523"
             r="1.63232"
             id="circle93"
             sodipodi:cx="242.5498"
             sodipodi:cy="233.86523"
             sodipodi:rx="1.63232"
             sodipodi:ry="1.63232"
             d="m 244.18212,233.86523 c 0,0.90151 -0.73081,1.63232 -1.63232,1.63232 -0.9015,0 -1.63232,-0.73081 -1.63232,-1.63232 0,-0.9015 0.73082,-1.63232 1.63232,-1.63232 0.90151,0 1.63232,0.73082 1.63232,1.63232 z" />
        </g>
        <path
           clip-rule="evenodd"
           d="m 242.53467,228.10059 c -3.23145,0 -5.96826,1.12695 -8.20752,3.38379 -2.29785,2.33301 -3.44629,5.0957 -3.44629,8.28418 0,3.18848 1.14844,5.93164 3.44629,8.22656 2.29785,2.29492 5.03418,3.44238 8.20752,3.44238 3.21289,0 5.99805,-1.15723 8.35352,-3.47168 2.2207,-2.19727 3.33008,-4.92969 3.33008,-8.19727 0,-3.26758 -1.12891,-6.02832 -3.3877,-8.28418 -2.25879,-2.25683 -5.02442,-3.38378 -8.2959,-3.38378 z m 0.0293,2.09961 c 2.64844,0 4.89746,0.93359 6.74707,2.80078 1.87012,1.84668 2.80469,4.10352 2.80469,6.76758 0,2.68359 -0.91504,4.91113 -2.74609,6.68066 -1.92773,1.90527 -4.19629,2.8584 -6.80566,2.8584 -2.60937,0 -4.8584,-0.94336 -6.74658,-2.8291 -1.88965,-1.88672 -2.8335,-4.12305 -2.8335,-6.70996 0,-2.58691 0.9541,-4.84277 2.8623,-6.76758 1.83057,-1.86719 4.07031,-2.80078 6.71777,-2.80078 z"
           id="path95"
           style="fill-rule:evenodd"
           inkscape:connector-curvature="0" />
      </g>
      <path
         d="M 2.25,0 C 1.0111727,0 0,1.0117982 0,2.25 L 0,41.5 C 0,41.780443 0.2200122,42 0.5,42 l 119,0 c 0.27999,0 0.5,-0.219567 0.5,-0.5 L 120,2.25 C 120,1.0117982 118.98883,0 117.75,0 L 2.25,0 z m 0,1 115.5,0 c 0.67934,0 1.25,0.5707275 1.25,1.25 l 0,27.1875 -82.5625,0 C 33.411517,34.908506 27.56555,38.625 20.875,38.625 14.181538,38.625 8.3682722,34.911417 5.34375,29.4375 L 1,29.4375 1,2.25 C 1,1.5707275 1.5706614,1 2.25,1 z m 54.625,31.75 3.125,0 c 0.315893,0 0.614908,0.0384 0.875,0.09375 0.260092,0.05535 0.469916,0.12288 0.65625,0.25 0.18536,0.126146 0.335598,0.290405 0.4375,0.5 0.101902,0.210569 0.15625,0.471702 0.15625,0.78125 0,0.333813 -0.09766,0.620562 -0.25,0.84375 -0.151393,0.222214 -0.359288,0.420833 -0.65625,0.5625 0.409547,0.117412 0.704393,0.299733 0.90625,0.59375 0.201857,0.294017 0.3125,0.64814 0.3125,1.0625 0,0.333813 -0.05742,0.630458 -0.1875,0.875 -0.130046,0.244542 -0.311923,0.439463 -0.53125,0.59375 -0.220301,0.155261 -0.468561,0.27 -0.75,0.34375 -0.282413,0.07472 -0.577065,0.125 -0.875,0.125 l -3.21875,0 0,-6.625 z m 5.8125,0 1.625,0 1.5625,2.625 1.53125,-2.625 1.625,0 -2.4375,4.0625 0,2.5625 -1.46875,0 0,-2.59375 L 62.6875,32.75 z m 21.78125,0 1.46875,0 2.75,4.4375 0.03125,0 0,-4.4375 1.375,0 0,6.625 -1.46875,0 -2.75,-4.4375 -0.03125,0 0,4.4375 -1.375,0 0,-6.625 z m 6.875,0 2.875,0 c 0.427982,0 0.818718,0.05168 1.1875,0.1875 0.368782,0.136828 0.698958,0.353291 0.96875,0.625 0.268828,0.271709 0.473597,0.623686 0.625,1.03125 0.152366,0.408527 0.21875,0.887285 0.21875,1.4375 0,0.482278 -0.06425,0.904936 -0.1875,1.3125 -0.124223,0.408527 -0.312117,0.765562 -0.5625,1.0625 -0.251357,0.295964 -0.562884,0.548932 -0.9375,0.71875 -0.374606,0.170792 -0.803962,0.25 -1.3125,0.25 l -2.875,0 0,-6.625 z m -33,1.125 0,1.5625 1.46875,0 c 0.259605,0 0.457588,-0.06327 0.625,-0.1875 0.166925,-0.123235 0.25,-0.347478 0.25,-0.625 0,-0.154287 -0.0071,-0.276021 -0.0625,-0.375 -0.05625,-0.09897 -0.125583,-0.163442 -0.21875,-0.21875 -0.09272,-0.05624 -0.222916,-0.102652 -0.34375,-0.125 C 59.941676,33.88489 59.817546,33.875 59.6875,33.875 l -1.34375,0 z m 34.46875,0.09375 0,4.1875 1.3125,0 c 0.210592,0 0.395769,-0.05709 0.59375,-0.125 0.197981,-0.06797 0.376936,-0.155301 0.53125,-0.3125 0.154304,-0.158172 0.281833,-0.371724 0.375,-0.625 0.09222,-0.253267 0.15625,-0.572634 0.15625,-0.9375 0,-0.333813 -0.05991,-0.637452 -0.125,-0.90625 -0.06499,-0.268798 -0.164009,-0.496328 -0.3125,-0.6875 C 95.195259,34.371328 94.99456,34.227865 94.75,34.125 94.50544,34.024083 94.201869,33.96875 93.84375,33.96875 l -1.03125,0 z m -34.46875,2.4375 0,1.84375 1.5625,0 c 0.142657,0 0.275717,-0.03438 0.40625,-0.0625 0.129559,-0.02812 0.244759,-0.05996 0.34375,-0.125 0.09898,-0.06499 0.15955,-0.170635 0.21875,-0.28125 0.05923,-0.111589 0.09375,-0.232547 0.09375,-0.40625 0,-0.339636 -0.08911,-0.605411 -0.28125,-0.75 -0.192157,-0.145553 -0.434107,-0.21875 -0.75,-0.21875 l -1.59375,0 z"
         transform="matrix(1.0062581,0,0,1.0063707,178.80617,224.73243)"
         id="path97"
         inkscape:connector-curvature="0" />
      <g
         id="g6501"
         transform="matrix(0.624995,0,0,0.624995,-183.0107,316.9328)">
        <g
           id="g6505"
           transform="translate(-23.9521,-87.92102)">
          <path
             id="path6507"
             d="m 750.57263,-54.14914 c -5.17346,0 -9.55005,1.8031 -13.13287,5.41254 -3.67657,3.73441 -5.5141,8.15317 -5.5141,13.2579 0,5.10318 1.83752,9.48914 5.5141,13.1626 3.67657,3.67191 8.05316,5.50787 13.13287,5.50787 5.13916,0 9.59546,-1.85315 13.36572,-5.55475 3.55164,-3.51721 5.32825,-7.88913 5.32825,-13.11572 0,-5.22974 -1.80786,-9.64694 -5.422,-13.2579 -3.61401,-3.60944 -8.03906,-5.41254 -13.27197,-5.41254 z m 0.0469,3.35785 c 4.23596,0 7.83447,1.4953 10.79541,4.48438 2.99066,2.95471 4.48596,6.56256 4.48596,10.82822 0,4.29379 -1.46405,7.85632 -4.3938,10.68759 -3.08435,3.05002 -6.71411,4.57346 -10.88757,4.57346 -4.17657,0 -7.77502,-1.50781 -10.79694,-4.52814 -3.02191,-3.01721 -4.53284,-6.59537 -4.53284,-10.73291 0,-4.14066 1.52655,-7.7485 4.57971,-10.82822 2.92975,-2.98908 6.51252,-4.48438 10.75007,-4.48438 z"
             inkscape:connector-curvature="0" />
          <g
             id="g6509">
            <path
               id="path6511"
               d="m 757.65088,-39.90375 -13.57361,0 0,3.21411 13.57361,0 0,-3.21411 z m 0,6.00006 -13.57361,0 0,3.21408 13.57361,0 0,-3.21408 z"
               inkscape:connector-curvature="0" />
          </g>
        </g>
      </g>
    </g>
  </g>
</svg>
