<?xml version="1.0" encoding="UTF-8" standalone="no"?>
<!-- Created with Inkscape (http://www.inkscape.org/) -->

<svg
   xmlns:dc="http://purl.org/dc/elements/1.1/"
   xmlns:cc="http://creativecommons.org/ns#"
   xmlns:rdf="http://www.w3.org/1999/02/22-rdf-syntax-ns#"
   xmlns:svg="http://www.w3.org/2000/svg"
   xmlns="http://www.w3.org/2000/svg"
   xmlns:sodipodi="http://sodipodi.sourceforge.net/DTD/sodipodi-0.dtd"
   xmlns:inkscape="http://www.inkscape.org/namespaces/inkscape"
   width="64"
   height="64"
   id="svg2759"
   sodipodi:version="0.32"
   inkscape:version="0.48.4 r9939"
   version="1.0"
   sodipodi:docname="cc.by-nc-sa.svg"
   inkscape:output_extension="org.inkscape.output.svg.inkscape">
  <defs
     id="defs2761" />
  <sodipodi:namedview
     id="base"
     pagecolor="#ffffff"
     bordercolor="#8b8b8b"
     borderopacity="1"
     gridtolerance="10000"
     guidetolerance="10"
     objecttolerance="10"
     inkscape:pageopacity="0.0"
     inkscape:pageshadow="2"
     inkscape:zoom="10.612645"
     inkscape:cx="39.420409"
     inkscape:cy="52.893018"
     inkscape:document-units="px"
     inkscape:current-layer="layer1"
     width="120px"
     height="42px"
     inkscape:showpageshadow="false"
     inkscape:window-width="1920"
     inkscape:window-height="1018"
     inkscape:window-x="-5"
     inkscape:window-y="-5"
     showgrid="false"
     inkscape:window-maximized="1"
     showguides="true"
     inkscape:guide-bbox="true" />
  <metadata
     id="metadata2764">
    <rdf:RDF>
      <cc:Work
         rdf:about="">
        <dc:format>image/svg+xml</dc:format>
        <dc:type
           rdf:resource="http://purl.org/dc/dcmitype/StillImage" />
      </cc:Work>
    </rdf:RDF>
  </metadata>
  <g
     inkscape:label="Layer 1"
     inkscape:groupmode="layer"
     id="layer1"
     transform="translate(0,22)">
    <g
       transform="matrix(0.46266249,0,0,0.46261072,-206.5652,34.997806)"
       id="g5908_5_">
      <g
         transform="translate(-289.6157,99.0653)"
         id="g5706_5_" />
    </g>
    <g
       id="g126"
       transform="matrix(0.53001645,0,0,0.52995714,-233.13247,-40.899688)" />
    <g
       id="g138"
       enable-background="new    "
       transform="matrix(0.53001645,0,0,0.52995714,-233.13247,-40.899688)" />
    <g
       id="g144"
       enable-background="new    "
       transform="matrix(0.53001645,0,0,0.52995714,-233.13247,-40.899688)" />
    <g
       id="g150"
       enable-background="new    "
       transform="matrix(0.53001645,0,0,0.52995714,-233.13247,-40.899688)" />
    <g
       id="g3"
       transform="matrix(0.19325001,0,0,0.19325,48.124923,1.2820926)">
      <g
         id="g7">
        <path
           id="path9"
           d="m 37.443,-3.5 c 8.951,0 16.531,3.105 22.742,9.315 6.208,6.172 9.315,13.733 9.315,22.685 0,8.954 -3.049,16.457 -9.145,22.514 C 53.918,57.338 46.279,60.5 37.443,60.5 28.794,60.5 21.29,57.357 14.929,51.071 8.644,44.786 5.5,37.264 5.5,28.501 5.5,19.778 8.644,12.216 14.929,5.816 21.138,-0.395 28.643,-3.5 37.443,-3.5 z m 0.114,5.772 c -7.276,0 -13.428,2.572 -18.457,7.715 -5.22,5.296 -7.829,11.467 -7.829,18.513 0,7.125 2.59,13.257 7.77,18.4 5.181,5.182 11.352,7.771 18.514,7.771 7.123,0 13.334,-2.609 18.629,-7.828 5.029,-4.876 7.543,-10.99 7.543,-18.343 0,-7.313 -2.553,-13.485 -7.656,-18.513 C 51.004,4.842 44.832,2.272 37.557,2.272 z M 23.271,23.985 c 0.609,-3.924 2.189,-6.962 4.742,-9.114 2.552,-2.152 5.656,-3.228 9.314,-3.228 5.027,0 9.029,1.62 12,4.856 2.971,3.238 4.457,7.391 4.457,12.457 0,4.915 -1.543,9 -4.627,12.256 -3.088,3.256 -7.086,4.886 -12.002,4.886 -3.619,0 -6.743,-1.085 -9.371,-3.257 -2.629,-2.172 -4.209,-5.257 -4.743,-9.257 H 31.1 c 0.19,3.886 2.533,5.829 7.029,5.829 2.246,0 4.057,-0.972 5.428,-2.914 1.373,-1.942 2.059,-4.534 2.059,-7.771 0,-3.391 -0.629,-5.971 -1.885,-7.743 -1.258,-1.771 -3.066,-2.657 -5.43,-2.657 -4.268,0 -6.667,1.885 -7.2,5.656 h 2.343 l -6.342,6.343 -6.343,-6.343 2.512,10e-4 0,0 z m -266.09726,-34.027672 318.773764,0 c 1.874836,0 3.398841,1.5251524 3.398841,3.3998157 0,0 0,43.5948923 0,75.1237643 l -227.840525,0 c -8.35113,15.098939 -24.44278,25.350571 -42.90742,25.350571 -18.47002,0 -34.55627,-10.242256 -42.90205,-25.350571 l -11.92409,0 c 0,-31.528872 0,-75.1237643 0,-75.1237643 -3e-5,-1.8746633 1.52662,-3.3998157 3.40148,-3.3998157 z m 318.773733,-2.801274 -318.773733,0 c -3.42026,0 -6.20309,2.782517 -6.20309,6.2010614 l 0,108.3116946 c 0,0.77263 0.62677,1.39928 1.40078,1.39928 l 328.375655,0 c 0.774065,0 1.400802,-0.62668 1.400802,-1.39928 l 0,-108.3116946 c 0,-3.4185444 -2.782825,-6.2010614 -6.200414,-6.2010614 z M -172.76566,36.91462 c -1.07929,-2.350017 -2.6624,-3.525753 -4.74614,-3.525753 -3.88081,0 -5.82279,2.561582 -5.82279,7.682115 0,5.121703 1.94198,7.680653 5.82279,7.680653 2.51773,0 4.28,-1.246593 5.28446,-3.745361 l 5.39144,2.808051 c -2.50957,4.465672 -6.27519,6.700399 -11.29459,6.700399 -3.87291,0 -6.97165,-1.189025 -9.30467,-3.565775 -2.32747,-2.37807 -3.4953,-5.657475 -3.4953,-9.835167 0,-4.105517 1.18393,-7.364762 3.55173,-9.778909 2.36488,-2.414287 5.37533,-3.620857 9.03404,-3.620857 5.30579,0 9.10651,2.094328 11.3992,6.27872 l -5.82017,2.921884 z m -24.81233,0 c -1.07667,-2.350017 -2.689,-3.525753 -4.84261,-3.525753 -3.80333,0 -5.70499,2.561582 -5.70499,7.682115 0,5.121703 1.90166,7.680653 5.70499,7.680653 2.51249,0 4.3069,-1.246593 5.38354,-3.745361 l 5.27368,2.808051 c -2.51485,4.465672 -6.28603,6.700399 -11.3133,6.700399 -3.87847,0 -6.98536,-1.189025 -9.3181,-3.565775 -2.33537,-2.37807 -3.50323,-5.657475 -3.50323,-9.835167 0,-4.105517 1.20526,-7.364762 3.61049,-9.778909 2.40492,-2.414287 5.40487,-3.620857 8.99661,-3.620857 5.31633,0 9.11966,2.094328 11.42317,6.27872 l -5.71025,2.921884 z m -18.56375,-20.834097 c -7.05494,7.124995 -10.58239,15.471162 -10.58239,25.043914 0,9.57275 3.49266,17.848062 10.47249,24.827099 6.98508,6.981656 15.29611,10.472502 24.94094,10.472502 9.64483,0 18.02801,-3.525676 25.15513,-10.578282 6.7656,-6.550644 10.1484,-14.788393 10.1484,-24.721319 0,-9.856636 -3.43891,-18.224158 -10.31441,-25.097537 -6.87257,-6.8717962 -15.20225,-10.3091442 -24.98912,-10.3091442 -9.78688,0 -18.06837,3.4547492 -24.83104,10.3627672 z m 55.34839,-5.61321 c 8.34313,8.343536 12.51588,18.56035 12.51588,30.646469 0,12.087441 -4.10056,22.195814 -12.30169,30.325097 -8.70466,8.56044 -18.98953,12.839969 -30.86016,12.839969 -11.72593,0 -21.83398,-4.243431 -30.31891,-12.734184 -8.49043,-8.486804 -12.73303,-18.629961 -12.73303,-30.430882 0,-11.798284 4.2426,-22.013759 12.73303,-30.646469 8.27071,-8.3461668 18.37878,-12.5185932 30.31891,-12.5185932 12.0875,0 22.30019,4.1724264 30.64597,12.5185932 z m 63.198819,10.128423 c 0,-1.142187 -0.926737,-2.067479 -2.067704,-2.067479 l -13.089185,0 c -1.141,0 -2.0677,0.925264 -2.0677,2.067479 l 0,13.089047 3.65059,0 0,15.499323 9.92067,0 0,-15.499323 3.653298,0 0,-13.089047 3.1e-5,0 z m -4.135409,-8.267191 c 0,2.472233 -2.00436,4.476376 -4.4769,4.476376 -2.47248,0 -4.47687,-2.004143 -4.47687,-4.476376 0,-2.472234 2.00439,-4.4763758 4.47687,-4.4763758 2.47254,0 4.4769,2.0041418 4.4769,4.4763758 z m -4.43529,-10.0521347 c 7.263724,0 13.429323,2.5615669 18.502135,7.6820337 5.129086,5.065568 7.692274,11.253248 7.692274,18.559003 0,7.359315 -2.509625,13.466644 -7.531544,18.32064 -5.287079,5.226241 -11.508947,7.838702 -18.662865,7.838702 -7.15927,0 -13.32757,-2.585667 -18.50751,-7.759695 -5.17995,-5.172682 -7.76994,-11.305459 -7.76994,-18.399647 0,-7.094184 2.61676,-13.279203 7.85027,-18.559003 5.02198,-5.1204414 11.16345,-7.6820337 18.42718,-7.6820337 z m -0.0831,-5.7578146 c -8.86272,0 -16.3675,3.09316523 -22.50897,9.2795016 -6.3022,6.3992487 -9.45196,13.9741387 -9.45196,22.7193787 0,8.745239 3.14976,16.266571 9.45196,22.561367 6.30217,6.290789 13.80695,9.43883 22.50897,9.43883 8.811819,0 16.45053,-3.17217 22.913423,-9.520527 6.087906,-6.025659 9.13054,-13.518884 9.13054,-22.479699 0,-8.960812 -3.096196,-16.533044 -9.291265,-22.7193777 -6.195068,-6.18633372 -13.77751,-9.2794736 -22.752698,-9.2794736 z m -9.48149,96.1612923 c 0.39369,0 0.76869,-0.03778 1.1276,-0.115187 0.35886,-0.07762 0.67493,-0.20621 0.9508,-0.382976 0.27333,-0.179353 0.49014,-0.42313 0.65354,-0.73111 0.16072,-0.305304 0.24378,-0.698965 0.24378,-1.175663 0,-0.937335 -0.26515,-1.606852 -0.79549,-2.008549 -0.53033,-0.399017 -1.23205,-0.599886 -2.10252,-0.599886 l -4.38717,0 0,5.013325 4.30951,0 z m -0.2356,-7.755669 c 0.71779,0 1.30704,-0.171384 1.7677,-0.511513 0.46339,-0.34013 0.6937,-0.891809 0.6937,-1.657718 0,-0.425822 -0.0777,-0.776631 -0.23022,-1.047136 -0.15539,-0.273169 -0.35891,-0.484709 -0.61604,-0.640057 -0.25697,-0.152755 -0.55173,-0.259715 -0.88387,-0.318706 -0.3348,-0.05899 -0.68031,-0.08833 -1.03922,-0.08833 l -3.7658,0 0,4.263482 4.07383,0 z m 0.5142,-7.391451 c 0.87048,0 1.66596,0.07762 2.38376,0.230375 0.71782,0.152756 1.33383,0.404399 1.84809,0.755214 0.51157,0.34815 0.90794,0.814147 1.19186,1.392584 0.28119,0.581134 0.42319,1.296197 0.42319,2.150494 0,0.921258 -0.20885,1.687167 -0.62942,2.300461 -0.4178,0.615959 -1.03921,1.116766 -1.85879,1.510427 1.13028,0.324036 1.97398,0.891814 2.53105,1.703239 0.55709,0.811431 0.83568,1.788937 0.83568,2.932497 0,0.921257 -0.17931,1.719312 -0.53836,2.394199 -0.35891,0.672202 -0.8437,1.223876 -1.45169,1.649682 -0.60529,0.428512 -1.29899,0.744492 -2.07576,0.948026 -0.77938,0.206209 -1.57757,0.307943 -2.39979,0.307943 l -8.87611,0 0,-18.275115 8.61627,0 0,2.6e-5 z m 7.43518,0 4.50499,0 4.280035,7.217397 4.255943,-7.217397 4.4809,0 -6.78696,11.261278 0,7.013863 -4.028288,0 0,-7.115627 -6.70662,-11.159514 z M 22.648056,91.289989 c 0.222354,0.425822 0.514256,0.771281 0.881164,1.036409 0.366934,0.2652 0.795488,0.460647 1.29097,0.589164 0.492833,0.128642 1.001692,0.192807 1.532026,0.192807 0.356222,0 0.739213,-0.02949 1.149019,-0.09107 0.407141,-0.05899 0.790137,-0.174127 1.149051,-0.34546 0.356222,-0.168693 0.653505,-0.404398 0.894561,-0.704341 0.235602,-0.297283 0.356223,-0.677552 0.356223,-1.138179 0,-0.49542 -0.157879,-0.894468 -0.47405,-1.202463 -0.313272,-0.307943 -0.728522,-0.562396 -1.237402,-0.768595 -0.511565,-0.203467 -1.092781,-0.382975 -1.738266,-0.538292 -0.648161,-0.152756 -1.304368,-0.324036 -1.9686,-0.511514 -0.682976,-0.171384 -1.347203,-0.380284 -1.995364,-0.62668 -0.645485,-0.246262 -1.226706,-0.567747 -1.738266,-0.961434 -0.508926,-0.390996 -0.924031,-0.881086 -1.237402,-1.470251 -0.316016,-0.589164 -0.47405,-1.301542 -0.47405,-2.137107 0,-0.93999 0.200673,-1.754137 0.599943,-2.445071 0.40176,-0.690929 0.926707,-1.266712 1.572192,-1.730034 0.648186,-0.460647 1.382054,-0.800735 2.201604,-1.023027 0.816905,-0.222406 1.636481,-0.332057 2.453387,-0.332057 0.956175,0 1.872191,0.107219 2.75068,0.321397 0.87585,0.211695 1.657904,0.559711 2.338204,1.036414 0.682981,0.479379 1.224036,1.089972 1.625791,1.831804 0.399068,0.744486 0.599937,1.644331 0.599937,2.702163 l -3.899699,0 c -0.03467,-0.546334 -0.147219,-0.998929 -0.34282,-1.355105 -0.195654,-0.358862 -0.455369,-0.640062 -0.779416,-0.846256 -0.321397,-0.203467 -0.690996,-0.350841 -1.106147,-0.433842 -0.415162,-0.08554 -0.870468,-0.12859 -1.363312,-0.12859 -0.321397,0 -0.64548,0.03467 -0.966872,0.101733 -0.324036,0.06965 -0.616041,0.187581 -0.878489,0.358862 -0.265148,0.171384 -0.47943,0.382975 -0.65083,0.640062 -0.16859,0.256921 -0.254437,0.581133 -0.254437,0.972134 0,0.358862 0.06701,0.650758 0.203518,0.870365 0.136507,0.222406 0.404451,0.428513 0.806179,0.615954 0.401759,0.18758 0.953506,0.374954 1.660605,0.562401 0.707069,0.187581 1.63378,0.428512 2.774779,0.717723 0.340181,0.06691 0.814261,0.192807 1.416874,0.372264 0.605289,0.179353 1.207933,0.463337 1.802525,0.856978 0.597268,0.393687 1.111524,0.918577 1.548099,1.574711 0.433894,0.65613 0.65083,1.49704 0.65083,2.522732 0,0.835561 -0.16357,1.612192 -0.487451,2.32992 -0.324088,0.717723 -0.806179,1.336342 -1.446287,1.855902 -0.640135,0.522225 -1.432947,0.926613 -2.381077,1.215845 -0.945454,0.291901 -2.040905,0.436533 -3.289034,0.436533 -1.007069,0 -1.981998,-0.125848 -2.930127,-0.372264 C 22.318695,95.593627 21.483042,95.20526 20.75987,94.674998 20.034022,94.144742 19.458178,93.46719 19.029655,92.647697 18.603833,91.828204 18.397541,90.856069 18.41632,89.728613 l 3.8997,0 c -6.3e-5,0.613299 0.109754,1.135518 0.332056,1.561324 z m 22.875936,-2.552217 -2.303384,-6.700523 -0.05345,0 -2.378401,6.700523 4.735353,0 z m -0.23053,-11.205004 6.835203,18.275115 -4.172874,0 -1.382055,-4.070675 -6.835208,0 -1.435591,4.070675 -4.04432,0 6.912858,-18.275115 4.121987,0 z m -94.187364,0 7.636005,12.260176 0.04295,0 0,-12.260176 3.771151,0 0,18.275115 -4.020228,0 -7.606566,-12.236072 -0.05071,0 0,12.236072 -3.771121,0 0,-18.275115 3.998779,0 z m 26.708641,4.868719 c -0.238396,-0.385614 -0.53835,-0.723074 -0.897263,-1.012305 -0.358862,-0.289263 -0.763312,-0.516895 -1.215953,-0.677553 -0.452678,-0.163415 -0.926743,-0.243777 -1.41955,-0.243777 -0.905289,0 -1.673977,0.174127 -2.306091,0.524911 -0.632088,0.34815 -1.143642,0.816807 -1.534701,1.405997 -0.393687,0.589164 -0.6803,1.258681 -0.859741,2.008543 -0.179301,0.749869 -0.267995,1.5265 -0.267995,2.327235 0,0.768595 0.08838,1.515772 0.267995,2.238872 0.179302,0.725759 0.466029,1.379203 0.859741,1.957676 0.391048,0.581128 0.902613,1.044445 1.534701,1.395276 0.632114,0.350841 1.400802,0.52491 2.306091,0.52491 1.226706,0 2.188202,-0.374954 2.879234,-1.127456 0.690996,-0.749868 1.114199,-1.740761 1.266841,-2.969987 l 3.891684,0 c -0.101578,1.143529 -0.366934,2.177283 -0.792781,3.098515 -0.425874,0.923922 -0.990997,1.708615 -1.69005,2.359373 -0.699047,0.650759 -1.518623,1.146215 -2.458732,1.48901 -0.937433,0.342768 -1.97127,0.514204 -3.096196,0.514204 -1.400771,0 -2.659627,-0.243778 -3.779172,-0.731105 -1.116905,-0.484761 -2.062328,-1.156942 -2.831048,-2.008548 -0.768688,-0.854293 -1.360605,-1.858567 -1.770411,-3.010158 -0.40978,-1.154246 -0.61601,-2.394199 -0.61601,-3.727881 0,-1.365822 0.206313,-2.632533 0.61601,-3.802857 0.40978,-1.170318 1.001692,-2.190665 1.770411,-3.061029 0.76872,-0.87036 1.714143,-1.553289 2.831048,-2.04872 1.119545,-0.49542 2.378401,-0.741826 3.779172,-0.741826 1.007068,0 1.957904,0.144528 2.852465,0.436533 0.897237,0.289262 1.700771,0.712377 2.407845,1.269402 0.70977,0.554365 1.29364,1.242608 1.754334,2.062101 0.460647,0.819493 0.74994,1.759488 0.870473,2.817319 l -3.891684,0 c -0.06981,-0.460646 -0.222354,-0.883746 -0.460647,-1.266716 z M -34.160272,2.2603995 c -7.263788,0 -13.402587,2.5588466 -18.424481,7.6806592 -1.366111,1.3778443 -2.555203,2.8186523 -3.564978,4.3224233 l 12.234789,5.445839 c 1.106147,-3.393082 4.33096,-5.452539 8.243999,-5.681555 l 0,-4.9342783 3.674779,0 0,4.9342783 c 2.531012,0.123218 5.305821,0.816875 8.043011,2.935174 l -4.205019,4.32107 c -1.55348,-1.099326 -3.511224,-1.874625 -5.471896,-1.874625 -1.590903,0 -3.835472,0.487379 -3.835472,2.48387 0,0.306634 0.101889,0.57575 0.28652,0.812818 l 4.092543,1.82242 2.769428,1.23456 c 1.773087,0.79008 3.463229,1.539843 5.139751,2.287026 l 16.3997047,7.300494 c 0.5409986,-2.14786 0.8114928,-4.432213 0.8114928,-6.850542 0,-7.309804 -2.5630635,-13.493423 -7.6868975,-18.5589723 C -20.728408,4.8192145 -26.89677,2.2603995 -34.160371,2.2603995 z M -59.002103,19.90346 c -0.956238,2.699458 -1.432916,5.565034 -1.432916,8.596571 0,7.094246 2.589956,13.225628 7.769842,18.399645 5.179881,5.172668 11.348243,7.759757 18.504905,7.759757 7.156465,0 13.378395,-2.612497 18.665406,-7.840078 1.767705,-1.709923 3.227482,-3.575239 4.371094,-5.597175 L -23.18714,35.850058 c -0.816843,4.059912 -4.435229,6.799595 -8.808993,7.122269 l 0,4.934371 -3.674778,0 0,-4.934371 c -3.588978,-0.04145 -7.060098,-1.510406 -9.714344,-3.832278 l 4.408522,-4.44297 c 2.123819,1.996525 4.245154,2.893692 7.143224,2.893692 1.880217,0 3.961226,-0.733849 3.961226,-3.181552 0,-0.865025 -0.33749,-1.468924 -0.865025,-1.921548 l -3.050685,-1.359133 -3.800533,-1.69121 c -1.880212,-0.836816 -3.471306,-1.5439 -5.067591,-2.256237 L -59.002103,19.90346 z m 24.761401,-23.4036178 c 8.972548,0 16.555021,3.09449881 22.750058,9.2781811 6.1977439,6.1876447 9.2939093,13.7625377 9.2939093,22.7219757 0,8.959437 -3.045309,16.452656 -9.1305403,22.481069 -6.465536,6.34697 -14.101572,9.519089 -22.913427,9.519089 -8.704755,0 -16.209443,-3.146706 -22.508935,-9.440119 -6.302168,-6.290798 -9.454603,-13.813485 -9.454603,-22.560071 0,-8.746585 3.152435,-16.321479 9.454603,-22.7219753 6.141469,-6.18365069 13.643518,-9.2781495 22.508935,-9.2781495 z" />
      </g>
    </g>
  </g>
</svg>
