<?xml version="1.0" encoding="UTF-8" standalone="no"?>
<!-- Created with Inkscape (http://www.inkscape.org/) -->

<svg
   xmlns:dc="http://purl.org/dc/elements/1.1/"
   xmlns:cc="http://creativecommons.org/ns#"
   xmlns:rdf="http://www.w3.org/1999/02/22-rdf-syntax-ns#"
   xmlns:svg="http://www.w3.org/2000/svg"
   xmlns="http://www.w3.org/2000/svg"
   xmlns:sodipodi="http://sodipodi.sourceforge.net/DTD/sodipodi-0.dtd"
   xmlns:inkscape="http://www.inkscape.org/namespaces/inkscape"
   width="64"
   height="64"
   id="svg2759"
   sodipodi:version="0.32"
   inkscape:version="0.48.4 r9939"
   version="1.0"
   sodipodi:docname="cc.by-nc-nd.eu.svg"
   inkscape:output_extension="org.inkscape.output.svg.inkscape">
  <defs
     id="defs2761" />
  <sodipodi:namedview
     id="base"
     pagecolor="#ffffff"
     bordercolor="#8b8b8b"
     borderopacity="1"
     gridtolerance="10000"
     guidetolerance="10"
     objecttolerance="10"
     inkscape:pageopacity="0.0"
     inkscape:pageshadow="2"
     inkscape:zoom="2.6932515"
     inkscape:cx="57.453281"
     inkscape:cy="15.48352"
     inkscape:document-units="px"
     inkscape:current-layer="layer1"
     width="120px"
     height="42px"
     inkscape:showpageshadow="false"
     inkscape:window-width="1920"
     inkscape:window-height="1018"
     inkscape:window-x="-5"
     inkscape:window-y="-5"
     showgrid="false"
     inkscape:window-maximized="1" />
  <metadata
     id="metadata2764">
    <rdf:RDF>
      <cc:Work
         rdf:about="">
        <dc:format>image/svg+xml</dc:format>
        <dc:type
           rdf:resource="http://purl.org/dc/dcmitype/StillImage" />
      </cc:Work>
    </rdf:RDF>
  </metadata>
  <g
     inkscape:label="Layer 1"
     inkscape:groupmode="layer"
     id="layer1"
     transform="translate(0,22)">
    <g
       id="g6402_1_"
       transform="matrix(0.621103,0,0,0.6210385,-141.0936,260.32415)" />
    <path
       id="path45"
       d="M 45.904191,2.397635 C 44.706794,1.201746 43.241375,0.604178 41.507562,0.604178 c -1.71343,0 -3.163371,0.597568 -4.350198,1.793457 -1.21816,1.237036 -1.826677,2.700567 -1.826677,4.391344 0,1.690401 0.608517,3.144117 1.826677,4.360012 1.217782,1.216651 2.667723,1.824789 4.350198,1.824789 1.702858,0 3.178842,-0.613422 4.427578,-1.839887 1.17664,-1.164935 1.765147,-2.613365 1.765147,-4.344914 0,-1.731926 -0.598699,-3.195834 -1.796096,-4.391344 z m -0.774235,7.932203 c -1.021866,1.010163 -2.22417,1.514868 -3.606917,1.514868 -1.383125,0 -2.575243,-0.499797 -3.576347,-1.49977 -1.001104,-0.999972 -1.501653,-2.185291 -1.501653,-3.555958 0,-0.579826 0.09154,-1.127942 0.272549,-1.644727 l 1.63887,0.725348 -0.118155,0 0,0.734973 0.580016,0 c 0,0.10381 -0.01038,0.207243 -0.01038,0.310674 l 0,0.176288 -0.569637,0 0,0.734973 0.673067,0 c 0.09324,0.54887 0.300293,0.993932 0.579824,1.346129 0.579824,0.766305 1.511658,1.180412 2.526357,1.180412 0.662869,0 1.263083,-0.196673 1.61528,-0.393722 l -0.248768,-1.14908 c -0.217435,0.114001 -0.703643,0.269151 -1.180037,0.269151 -0.517915,0 -1.00431,-0.155148 -1.335744,-0.528109 -0.155339,-0.175911 -0.269152,-0.414107 -0.34144,-0.724781 l 2.25097,0 3.198475,1.415778 c -0.221584,0.392594 -0.502811,0.755361 -0.846331,1.087553 z m -4.022533,-3.2383 -0.01359,-0.01038 0.0234,0.01038 -0.0098,0 z m 1.925573,-0.486963 0.09249,0 0,-0.734972 -1.753067,0 -0.712133,-0.315205 c 0.06134,-0.137784 0.133819,-0.261035 0.218373,-0.357483 0.321056,-0.3941 0.776502,-0.55944 1.273654,-0.55944 0.455632,0 0.87993,0.134386 1.149082,0.248389 l 0.28991,-1.180412 c -0.37296,-0.165341 -0.921456,-0.310298 -1.552998,-0.310298 -0.973168,0 -1.801568,0.393346 -2.391776,1.055841 -0.130986,0.151373 -0.244613,0.321244 -0.347669,0.50093 l -2.03392,-0.900126 c 0.197051,-0.295576 0.428832,-0.579448 0.697227,-0.850109 0.970528,-0.989779 2.156981,-1.484669 3.560864,-1.484669 1.403509,0 2.595626,0.49489 3.576346,1.484669 0.990534,0.979211 1.485803,2.174721 1.485803,3.587291 0,0.465445 -0.05285,0.904467 -0.15704,1.318196 L 43.032996,6.604575 z M 27.592735,0.605941 c -1.712708,0 -3.16299,0.597494 -4.349826,1.793263 -1.217888,1.236395 -1.826575,2.700243 -1.826575,4.39026 0,1.690018 0.608687,3.143775 1.826575,4.359984 1.217889,1.21595 2.668177,1.824054 4.349826,1.824054 1.702871,0 3.179039,-0.613023 4.427981,-1.839841 1.176484,-1.1642 1.764464,-2.612525 1.764464,-4.344202 0,-1.731677 -0.598336,-3.194751 -1.795522,-4.39026 C 30.792477,1.203441 29.327184,0.605941 27.592735,0.605941 z m 0.01606,1.112703 c 1.403705,0 2.595194,0.494763 3.57551,1.484293 0.991186,0.978921 1.48652,2.17469 1.48652,3.586527 0,1.422188 -0.484983,2.602688 -1.455462,3.540464 -1.02172,1.009971 -2.224085,1.514829 -3.606568,1.514829 -1.383517,0 -2.575531,-0.49968 -3.576549,-1.499302 -1.001018,-0.99988 -1.501529,-2.185039 -1.501529,-3.555991 0,-1.370697 0.505684,-2.566205 1.517054,-3.586527 0.970483,-0.989525 2.157319,-1.484293 3.561024,-1.484293 z m 0.857115,1.942314 c 0,0.477759 -0.387338,0.865059 -0.865149,0.865059 -0.477806,0 -0.86515,-0.3873 -0.86515,-0.865059 0,-0.477759 0.387344,-0.865059 0.86515,-0.865059 0.477811,0 0.865149,0.3873 0.865149,0.865059 z m 0.799163,1.597635 c 0,-0.220727 -0.179086,-0.39928 -0.399582,-0.39928 l -2.529462,0 c -0.220495,0 -0.399581,0.178548 -0.399581,0.39928 l 0,2.529459 0.705472,0 0,2.995498 1.917155,0 0,-2.995498 0.705993,0 0,-2.529459 5e-6,0 z m 28.502096,0.06548 -4.495254,0 0,1.06484 4.495254,0 0,-1.06484 z m 0,1.987608 -4.495254,0 0,1.064559 4.495254,0 0,-1.064559 z m -2.34416,-6.705719 c -1.713232,0 -3.163502,0.597224 -4.350349,1.793006 -1.217882,1.236638 -1.826573,2.69998 -1.826573,4.391037 0,1.690268 0.608688,3.14326 1.826573,4.359459 1.217379,1.216201 2.668178,1.824319 4.350349,1.824319 1.70288,0 3.178522,-0.61354 4.427461,-1.83932 1.175968,-1.164973 1.764987,-2.613314 1.764987,-4.344461 0,-1.732198 -0.598843,-3.195275 -1.796043,-4.391037 C 58.622235,1.203186 57.156417,0.605962 55.423009,0.605962 z m 0.01499,1.112431 c 1.403691,0 2.595718,0.495032 3.576544,1.484812 0.990667,0.978925 1.485494,2.174181 1.485494,3.5868 0,1.422181 -0.48447,2.602155 -1.454443,3.539939 -1.022229,1.01024 -2.224608,1.514569 -3.607595,1.514569 -1.383002,0 -2.575007,-0.499417 -3.57603,-1.499568 -1.001027,-0.999365 -1.50153,-2.184778 -1.50153,-3.554944 0,-1.371482 0.505676,-2.566737 1.517558,-3.5868 0.969971,-0.98978 2.156291,-1.484812 3.559997,-1.484812 z m 1.436864,14.546905 c 0.228256,0 0.439952,0.03623 0.636635,0.108684 0.196683,0.07245 0.366453,0.181653 0.510341,0.326564 0.143376,0.144912 0.255691,0.326565 0.336438,0.543933 0.08126,0.217881 0.121632,0.473543 0.121632,0.766991 0,0.257214 -0.03312,0.494248 -0.09886,0.712129 -0.06625,0.217368 -0.166149,0.405746 -0.299685,0.563599 -0.134054,0.158367 -0.300715,0.283092 -0.500512,0.373663 -0.199792,0.09057 -0.434774,0.136114 -0.70599,0.136114 l -1.525338,0 0,-3.531666 1.525338,0 0,-1.1e-5 z m -0.05435,2.877503 c 0.112314,0 0.221008,-0.01811 0.326597,-0.05434 0.105589,-0.03623 0.199787,-0.09626 0.282091,-0.18062 0.08229,-0.08384 0.148544,-0.193042 0.198234,-0.328118 0.04917,-0.135075 0.07402,-0.300172 0.07402,-0.494248 0,-0.178034 -0.01707,-0.338468 -0.05179,-0.481827 -0.03467,-0.143358 -0.09162,-0.266012 -0.170811,-0.36797 -0.07919,-0.101958 -0.183744,-0.18062 -0.314176,-0.234962 -0.130427,-0.05434 -0.291397,-0.08125 -0.482395,-0.08125 l -0.554341,0 0,2.223334 0.692544,0 0,6e-6 z m -4.364318,-2.877503 1.475651,2.369279 0.0083,0 0,-2.369279 0.728768,0 0,3.531666 -0.776902,0 -1.469959,-2.364621 -0.0099,0 0,2.364621 -0.728767,0 0,-3.531666 0.772763,0 z m -8.61891,0.940886 c -0.04606,-0.07452 -0.104035,-0.139734 -0.173393,-0.195629 -0.06936,-0.05589 -0.147513,-0.09989 -0.234986,-0.130936 -0.08747,-0.03157 -0.179086,-0.0471 -0.274324,-0.0471 -0.174946,0 -0.323493,0.03364 -0.445645,0.10144 -0.122151,0.06728 -0.221009,0.157847 -0.296579,0.271709 -0.07608,0.113856 -0.131469,0.24324 -0.166148,0.388151 -0.03466,0.144911 -0.05178,0.294995 -0.05178,0.449737 0,0.148531 0.01707,0.292923 0.05178,0.432662 0.03466,0.140254 0.09006,0.266532 0.166148,0.378321 0.07557,0.112303 0.174428,0.201839 0.296579,0.269637 0.122152,0.0678 0.270699,0.101439 0.445645,0.101439 0.237059,0 0.42287,-0.07246 0.556407,-0.217881 0.133536,-0.144912 0.215317,-0.336401 0.244818,-0.573949 l 0.752061,0 c -0.01966,0.220987 -0.07091,0.420759 -0.153206,0.598788 -0.08229,0.178548 -0.191509,0.330189 -0.326598,0.455948 -0.13509,0.125759 -0.293474,0.221507 -0.475146,0.287751 -0.181158,0.06625 -0.380946,0.09937 -0.598336,0.09937 -0.270698,0 -0.513969,-0.0471 -0.73032,-0.141286 -0.215836,-0.09367 -0.398542,-0.223579 -0.547094,-0.388152 -0.149066,-0.165092 -0.262934,-0.359167 -0.342128,-0.581712 -0.07919,-0.223059 -0.119046,-0.462679 -0.119046,-0.720413 0,-0.263946 0.03986,-0.508738 0.119046,-0.734902 0.07919,-0.226165 0.193062,-0.423346 0.342128,-0.591544 0.148547,-0.168198 0.331258,-0.300173 0.547094,-0.395915 0.216351,-0.09574 0.459622,-0.143358 0.73032,-0.143358 0.194615,0 0.37836,0.02795 0.551754,0.08436 0.172874,0.05589 0.328151,0.137667 0.464794,0.245312 0.137161,0.107131 0.249996,0.240134 0.339022,0.398501 0.08903,0.158367 0.144926,0.340021 0.168215,0.544446 l -0.752061,0 c -0.01293,-0.08902 -0.04299,-0.170789 -0.08902,-0.244792 z m -5.161407,-0.940886 1.47565,2.369279 0.0083,0 0,-2.369279 0.728766,0 0,3.531666 -0.776902,0 -1.469957,-2.364621 -0.0099,0 0,2.364621 -0.728767,0 0,-3.531666 0.772763,0 z m -11.589356,0 0.871101,0 0.82711,1.394762 0.821933,-1.394762 0.865928,0 -1.311054,2.176243 0,1.355428 -0.778455,0 0,-1.375096 -1.296563,-2.156575 z m -1.436832,0 c 0.168216,0 0.32246,0.01501 0.461174,0.04451 0.138715,0.0295 0.257242,0.07815 0.356619,0.145945 0.09886,0.06728 0.17546,0.157333 0.230328,0.269117 0.05435,0.112303 0.08178,0.25049 0.08178,0.415582 0,0.178034 -0.04039,0.326046 -0.121632,0.444565 -0.08074,0.119034 -0.200308,0.215815 -0.359205,0.29189 0.218423,0.06262 0.381465,0.172342 0.489122,0.329151 0.107656,0.156809 0.161489,0.345712 0.161489,0.566704 0,0.178034 -0.03466,0.332257 -0.104036,0.462679 -0.06936,0.129904 -0.163043,0.236515 -0.280016,0.318801 -0.117493,0.08281 -0.251549,0.143873 -0.401649,0.183207 -0.150619,0.03985 -0.304863,0.05951 -0.463761,0.05951 l -1.715293,0 0,-3.531666 1.66508,0 0,5e-6 z m -0.09886,1.428404 c 0.138195,0 0.252583,-0.03312 0.341609,-0.09885 0.08903,-0.06573 0.133536,-0.172342 0.133536,-0.320353 0,-0.08229 -0.015,-0.150084 -0.04452,-0.202359 -0.03,-0.05279 -0.06936,-0.09368 -0.119046,-0.123692 -0.04966,-0.0295 -0.106623,-0.0502 -0.170807,-0.06159 -0.06419,-0.01138 -0.13147,-0.01708 -0.200827,-0.01708 l -0.727733,0 0,0.823919 0.787778,0 z m 0.04505,1.498782 c 0.07608,0 0.148546,-0.0072 0.217903,-0.02225 0.06936,-0.01501 0.130431,-0.03985 0.183745,-0.07401 0.05279,-0.03468 0.09472,-0.08177 0.126292,-0.141287 0.03159,-0.059 0.04712,-0.135075 0.04712,-0.227197 0,-0.18114 -0.05125,-0.310524 -0.153725,-0.388152 -0.102483,-0.07711 -0.237573,-0.115928 -0.406307,-0.115928 l -0.847813,0 0,0.968825 0.832802,0 z M 17.051998,3.301534 c 1.612273,1.612388 2.418678,3.586787 2.418678,5.92243 0,2.335898 -0.792428,4.289086 -2.377284,5.860339 -1.682163,1.654291 -3.669726,2.48131 -5.963676,2.48131 -2.2659956,0 -4.2193871,-0.820015 -5.8591099,-2.460867 -1.6407683,-1.640344 -2.4606134,-3.600508 -2.4606134,-5.880782 0,-2.27999 0.8198451,-4.254131 2.4606134,-5.92243 1.5983238,-1.613151 3.5516924,-2.419218 5.8591099,-2.419218 2.335885,0 4.309471,0.806067 5.922282,2.419218 z M 6.3559771,4.386028 C 4.9926516,5.762934 4.3109795,7.37583 4.3109795,9.226047 c 0,1.849652 0.6749543,3.448855 2.0237944,4.797805 1.3498805,1.34895 2.9559451,2.023557 4.8197931,2.023557 1.863848,0 3.483889,-0.681325 4.861192,-2.044254 1.307442,-1.265629 1.96116,-2.857575 1.96116,-4.777113 0,-1.90505 -0.664591,-3.522101 -1.993241,-4.850353 -1.32814,-1.328003 -2.937841,-1.99227 -4.829111,-1.99227 -1.8912699,0 -3.4916577,0.667635 -4.7985899,2.002609 z M 9.9433867,8.412217 C 9.7353243,7.958077 9.4237424,7.73112 9.0075947,7.73112 c -0.7349611,0 -1.1024555,0.494772 -1.1024555,1.484315 0,0.989769 0.3674944,1.484286 1.1024555,1.484286 0.4855051,0 0.8322997,-0.240905 1.0403623,-0.723759 l 1.019126,0.542628 c -0.486014,0.862991 -1.2147891,1.29488 -2.1863032,1.29488 -0.749447,0 -1.3498529,-0.229811 -1.8006817,-0.689114 -0.4513328,-0.459562 -0.6770176,-1.093024 -0.6770176,-1.900391 0,-0.793646 0.2329115,-1.423467 0.6977174,-1.890029 0.4648053,-0.466561 1.044512,-0.699449 1.7385835,-0.699449 1.0274261,0 1.7623916,0.404447 2.2075116,1.213109 L 9.9433867,8.412217 z m 4.7949763,0 C 14.529764,7.958077 14.223859,7.73112 13.821179,7.73112 c -0.749983,0 -1.125246,0.494772 -1.125246,1.484315 0,0.989769 0.375263,1.484286 1.125246,1.484286 0.486551,0 0.827105,-0.240905 1.021218,-0.723759 l 1.041912,0.542628 c -0.484996,0.862991 -1.21273,1.29488 -2.18269,1.29488 -0.748434,0 -1.347285,-0.229811 -1.798109,-0.689114 -0.449783,-0.459562 -0.675436,-1.093024 -0.675436,-1.900391 0,-0.793646 0.228762,-1.423467 0.686308,-1.890029 0.457038,-0.466561 1.038808,-0.699449 1.745843,-0.699449 1.02534,0 1.759792,0.404447 2.202852,1.213109 L 14.738363,8.412217 z M 62.801781,-1.2 1.1987389,-1.2 C 0.53777671,-1.2 -1.39904e-7,-0.662279 -1.39904e-7,-0.001645 l 0,20.931234 C -1.39904e-7,21.0789 0.12111824,21.2 0.27069827,21.2 l 63.45860273,0 C 63.87889,21.2 64,21.078894 64,20.929589 L 64,-0.001645 C 64,-0.662279 63.462224,-1.2 62.801781,-1.2 z m -61.6030421,0.541341 61.6030421,0 c 0.362315,0 0.656827,0.294736 0.656827,0.657014 0,0 0,8.421607 0,14.514307 l -44.02983,0 c -1.613845,2.91761 -4.723527,4.898738 -8.291792,4.898738 -3.5693028,0 -6.6779462,-1.979315 -8.2907573,-4.898738 l -2.30482671,0 c 0,-6.092695 0,-14.514307 0,-14.514307 -5.28e-6,-0.362273 0.29502069,-0.657014 0.65733691,-0.657014 z"
       inkscape:connector-curvature="0" />
  </g>
</svg>
