<?xml version="1.0" encoding="UTF-8" standalone="no"?>
<!-- Created with Inkscape (http://www.inkscape.org/) -->

<svg
   xmlns:dc="http://purl.org/dc/elements/1.1/"
   xmlns:cc="http://creativecommons.org/ns#"
   xmlns:rdf="http://www.w3.org/1999/02/22-rdf-syntax-ns#"
   xmlns:svg="http://www.w3.org/2000/svg"
   xmlns="http://www.w3.org/2000/svg"
   xmlns:sodipodi="http://sodipodi.sourceforge.net/DTD/sodipodi-0.dtd"
   xmlns:inkscape="http://www.inkscape.org/namespaces/inkscape"
   width="64"
   height="64"
   id="svg2759"
   sodipodi:version="0.32"
   inkscape:version="0.48.4 r9939"
   version="1.0"
   sodipodi:docname="cc.by-nc.svg"
   inkscape:output_extension="org.inkscape.output.svg.inkscape">
  <defs
     id="defs2761" />
  <sodipodi:namedview
     id="base"
     pagecolor="#ffffff"
     bordercolor="#8b8b8b"
     borderopacity="1"
     gridtolerance="10000"
     guidetolerance="10"
     objecttolerance="10"
     inkscape:pageopacity="0.0"
     inkscape:pageshadow="2"
     inkscape:zoom="8"
     inkscape:cx="62.092989"
     inkscape:cy="32.642134"
     inkscape:document-units="px"
     inkscape:current-layer="layer1"
     width="120px"
     height="42px"
     inkscape:showpageshadow="false"
     inkscape:window-width="1920"
     inkscape:window-height="1018"
     inkscape:window-x="-5"
     inkscape:window-y="-5"
     showgrid="false"
     inkscape:window-maximized="1" />
  <metadata
     id="metadata2764">
    <rdf:RDF>
      <cc:Work
         rdf:about="">
        <dc:format>image/svg+xml</dc:format>
        <dc:type
           rdf:resource="http://purl.org/dc/dcmitype/StillImage" />
      </cc:Work>
    </rdf:RDF>
  </metadata>
  <g
     inkscape:label="Layer 1"
     inkscape:groupmode="layer"
     id="layer1"
     transform="translate(0,22)">
    <g
       id="g5706_3_"
       transform="matrix(0.4626625,0,0,0.46262149,-202.19728,61.927773)" />
    <g
       id="g353"
       transform="matrix(0.53001647,0,0,0.52996948,-94.77022,-59.801225)" />
    <path
       id="path359"
       style="fill-rule:evenodd"
       d="m 33.777148,0.6057215 c -1.712722,0 -3.163276,0.597509 -4.35012,1.793305 -1.217899,1.236684 -1.826591,2.700566 -1.826591,4.390622 0,1.690057 0.608692,3.143589 1.826591,4.3598255 1.217898,1.215978 2.668198,1.824097 4.35012,1.824097 1.702885,0 3.179065,-0.612777 4.427503,-1.839625 1.177008,-1.1644855 1.764998,-2.6125845 1.764998,-4.3443025 0,-1.731717 -0.598341,-3.195085 -1.795537,-4.390622 -1.197196,-1.195791 -2.663026,-1.7933 -4.396964,-1.7933 z m 0.01553,1.112729 c 1.403717,0 2.595734,0.495034 3.576058,1.484328 0.991194,0.979204 1.486532,2.17474 1.486532,3.58687 0,1.422221 -0.484986,2.60249 -1.455473,3.5402915 -1.021729,1.010254 -2.224103,1.515124 -3.607112,1.515124 -1.383009,0 -2.575032,-0.499952 -3.575799,-1.499596 -1.001545,-0.9999035 -1.501801,-2.1850895 -1.501801,-3.5558135 0,-1.370983 0.505689,-2.56652 1.517066,-3.586871 0.970233,-0.989299 2.157331,-1.484333 3.560529,-1.484333 z m 0.857647,1.942619 c 0,0.477768 -0.387341,0.86508 -0.865156,0.86508 -0.47781,0 -0.865157,-0.387312 -0.865157,-0.86508 0,-0.477772 0.387347,-0.865079 0.865157,-0.865079 0.477815,0 0.865156,0.387307 0.865156,0.865079 z m 0.79917,1.597673 c 0,-0.220732 -0.179088,-0.399549 -0.399585,-0.399549 l -2.529482,0 c -0.220498,0 -0.399585,0.178811 -0.399585,0.399549 l 0,2.529518 0.705478,0 0,2.9953125 1.917171,0 0,-2.9953125 0.705997,0 0,-2.529518 6e-6,0 z m 13.480223,-4.653284 c 1.733429,0 3.199258,0.597764 4.396449,1.79305 1.197192,1.19579 1.79605,2.659672 1.79605,4.391142 0,1.731457 -0.588506,3.17955 -1.765002,4.3445485 -1.248948,1.226581 -2.724606,1.839369 -4.427503,1.839369 -1.682693,0 -3.132476,-0.608114 -4.350381,-1.824362 -1.217894,-1.2157255 -1.826586,-2.6692635 -1.826586,-4.3595555 0,-1.690579 0.608686,-3.154455 1.826586,-4.391142 1.186845,-1.195286 2.63715,-1.79305 4.350387,-1.79305 z m -4.785682,4.522592 c -0.184265,0.521963 -0.276388,1.07573 -0.276388,1.661606 0,1.370715 0.499998,2.555657 1.501017,3.5557955 1.00103,0.999404 2.193048,1.499608 3.576571,1.499608 1.383024,0 2.584871,-0.504878 3.606605,-1.515392 0.342131,-0.3301885 0.624215,-0.6909125 0.84523,-1.0816605 l -2.331763,-1.037943 c -0.157879,0.78434 -0.856621,1.314051 -1.701857,1.376148 l 0,0.9535895 -0.710134,0 0,-0.9535895 c -0.694098,-0.0078 -1.364898,-0.291631 -1.877315,-0.740343 l 0.851437,-0.858867 c 0.410458,0.386074 0.820904,0.559462 1.380939,0.559462 0.362846,0 0.765008,-0.142075 0.765008,-0.614849 0,-0.167432 -0.06522,-0.283876 -0.167166,-0.371348 L 49.016675,7.2973655 48.282204,6.9707925 C 47.919375,6.8087955 47.61192,6.6724095 47.302922,6.5347475 l -3.158886,-1.406697 z m 4.801206,-3.4096 c -1.403715,0 -2.59056,0.494527 -3.560531,1.484322 -0.264487,0.266554 -0.49378,0.544978 -0.689436,0.835327 l 2.364884,1.052694 c 0.213258,-0.655989 0.836441,-1.053988 1.593165,-1.097967 l 0,-0.95359 0.710132,0 0,0.95359 c 0.489119,0.02354 1.02535,0.157585 1.553808,0.566974 l -0.81262,0.835309 c -0.299687,-0.212449 -0.678046,-0.362279 -1.056921,-0.362279 -0.307443,0 -0.741199,0.09421 -0.741199,0.480018 0,0.05926 0.01915,0.11103 0.05537,0.157081 l 0.790872,0.35193 0.535192,0.238602 c 0.342132,0.15293 0.66925,0.297843 0.993257,0.44224 l 3.168722,1.410573 c 0.105061,-0.41481 0.157339,-0.856284 0.157339,-1.323624 0,-1.412653 -0.495334,-2.607683 -1.486013,-3.586884 -0.98082,-0.989789 -2.172838,-1.484316 -3.576042,-1.484316 z m 2.314166,15.4876315 c -0.04606,-0.07452 -0.104037,-0.139737 -0.173395,-0.195633 -0.06936,-0.0559 -0.147514,-0.09989 -0.234988,-0.13094 -0.08747,-0.03158 -0.179088,-0.04711 -0.274326,-0.04711 -0.174948,0 -0.323496,0.03365 -0.445649,0.101441 -0.122153,0.06728 -0.221012,0.157852 -0.296581,0.271716 -0.07608,0.113858 -0.131471,0.243245 -0.16615,0.38816 -0.03466,0.144915 -0.05178,0.295002 -0.05178,0.449748 0,0.148534 0.01707,0.29293 0.05178,0.432672 0.03466,0.140257 0.09006,0.266538 0.16615,0.37833 0.07557,0.112305 0.174428,0.201844 0.296581,0.269643 0.122153,0.0678 0.270701,0.101441 0.445649,0.101441 0.23706,0 0.422873,-0.07246 0.556411,-0.217886 0.133538,-0.144915 0.215319,-0.336409 0.24482,-0.573963 l 0.752067,0 c -0.01966,0.220992 -0.07091,0.42077 -0.153207,0.598803 -0.0823,0.178552 -0.191511,0.330197 -0.326601,0.455958 -0.135091,0.125763 -0.293476,0.221512 -0.475149,0.287758 -0.18116,0.06625 -0.38095,0.09937 -0.598341,0.09937 -0.270701,0 -0.513973,-0.04711 -0.730326,-0.141289 -0.215839,-0.09368 -0.398546,-0.223584 -0.547099,-0.388161 -0.149067,-0.165096 -0.262936,-0.359176 -0.342131,-0.581726 -0.07919,-0.223064 -0.119047,-0.46269 -0.119047,-0.72043 0,-0.263951 0.03986,-0.508749 0.119047,-0.734919 0.07919,-0.22617 0.193064,-0.423356 0.342131,-0.591557 0.148548,-0.168202 0.33126,-0.30018 0.547099,-0.395925 0.216353,-0.09574 0.459625,-0.143362 0.730326,-0.143362 0.194616,0 0.378362,0.02793 0.551758,0.08436 0.172875,0.0559 0.328154,0.13767 0.464797,0.245318 0.137163,0.107133 0.249998,0.240139 0.339026,0.39851 0.08903,0.158371 0.144927,0.340028 0.168216,0.544459 l -0.752067,0 c -0.01293,-0.08901 -0.04293,-0.170788 -0.08902,-0.244798 z m -5.161449,-0.940903 1.475661,2.369335 0.0083,0 0,-2.369335 0.728773,0 0,3.531749 -0.776909,0 -1.469969,-2.364676 -0.0099,0 0,2.364676 -0.728773,0 0,-3.531749 0.772769,0 z m -12.662942,0 0.871109,0 0.827117,1.394796 0.821939,-1.394796 0.865936,0 -1.311065,2.176294 0,1.35546 -0.778462,0 0,-1.375127 -1.296574,-2.156627 z m -1.436842,0 c 0.168476,0 0.321942,0.015 0.460658,0.04452 0.138716,0.02952 0.257763,0.07815 0.357141,0.145948 0.09886,0.06728 0.175982,0.157337 0.230329,0.269124 0.05435,0.112305 0.08178,0.250495 0.08178,0.415591 0,0.178038 -0.04039,0.326053 -0.121633,0.444576 -0.08074,0.119036 -0.200829,0.215819 -0.359208,0.291896 0.218425,0.06262 0.381468,0.172346 0.489125,0.329159 0.107657,0.156812 0.161491,0.34572 0.161491,0.566718 0,0.178037 -0.03466,0.332264 -0.104037,0.462689 -0.06936,0.129906 -0.163044,0.23652 -0.280018,0.318809 -0.117494,0.08281 -0.251551,0.143876 -0.401652,0.18321 -0.15062,0.03985 -0.304866,0.05952 -0.463764,0.05952 l -1.715309,0 0,-3.531749 1.665095,0 0,5e-6 z m -0.09912,1.428438 c 0.138456,0 0.252585,-0.03313 0.341871,-0.09885 0.08903,-0.06573 0.133538,-0.172346 0.133538,-0.320361 0,-0.08229 -0.015,-0.150087 -0.04452,-0.202364 -0.03,-0.05278 -0.06936,-0.09368 -0.119047,-0.123695 -0.04945,-0.02952 -0.106364,-0.05019 -0.170808,-0.06159 -0.06444,-0.01139 -0.131211,-0.01707 -0.200569,-0.01707 l -0.727999,0 0,0.823938 0.787525,0 z m 0.04532,1.498817 c 0.07608,0 0.148547,-0.0073 0.218165,-0.02226 0.0691,-0.015 0.130692,-0.03986 0.183486,-0.07401 0.05279,-0.03466 0.09472,-0.08178 0.126293,-0.14129 0.03159,-0.059 0.04712,-0.135079 0.04712,-0.227203 0,-0.181144 -0.05125,-0.310531 -0.153726,-0.388161 -0.102484,-0.07711 -0.237834,-0.11593 -0.406311,-0.11593 l -0.847819,0 0,0.968848 0.832809,0 0,0 z m 30.857384,-20.3924355 -61.6032811,0 c -0.66070797,0 -1.198489170272,0.537214 -1.198489170272,1.197864 l 0,20.9317215 c 0,0.149314 0.121373770272,0.270417 0.270700610272,0.270417 l 63.45860066,0 c 0.149328,0 0.270699,-0.121108 0.270699,-0.270417 l 0,-20.9317215 c 0,-0.66065 -0.53752,-1.197864 -1.19823,-1.197864 z m -61.6032864,0.540834 61.6032814,0 c 0.362315,0 0.656832,0.294743 0.656832,0.65703 0,0 0,8.418698 0,14.5112795 l -44.030446,0 c -1.613858,2.917937 -4.723046,4.898852 -8.291339,4.898852 -3.5698468,0 -6.6782608,-1.979362 -8.2913394,-4.898852 l -2.30407167,0 c 0,-6.0925765 0,-14.5112795 0,-14.5112795 0,-0.362282 0.29476866,-0.65703 0.65708267,-0.65703 z m 15.8528714,3.956927 c 1.612569,1.612411 2.41898,3.586871 2.41898,5.922549 0,2.3359665 -0.792462,4.2894405 -2.377331,5.8604625 -1.681921,1.654342 -3.669728,2.481394 -5.963456,2.481394 -2.2660279,0 -4.2194214,-0.820061 -5.8596802,-2.460951 -1.6405134,-1.640113 -2.4606335,-3.600578 -2.4606335,-5.8809055 0,-2.280057 0.8201201,-4.254244 2.4606335,-5.922549 1.5985914,-1.613203 3.5519895,-2.419289 5.8596802,-2.419289 2.335636,-4e-6 4.309239,0.806086 5.921807,2.419289 z M 6.3555221,4.3822825 c -1.3633646,1.376938 -2.0447647,2.990127 -2.0447647,4.840104 0,1.8497215 0.6746776,3.4489485 2.0237829,4.7979345 1.349383,1.348981 2.9557287,2.023617 4.8195787,2.023617 1.863863,0 3.483946,-0.681099 4.861005,-2.044315 1.307424,-1.265672 1.961402,-2.85764 1.961402,-4.7772365 0,-1.905094 -0.664596,-3.521915 -1.993002,-4.850198 -1.328124,-1.328034 -2.937837,-1.992303 -4.829405,-1.992303 -1.8915358,0 -3.4914273,0.667628 -4.7985969,2.002397 z m 3.5876978,4.026519 c -0.2083323,-0.454405 -0.5201853,-0.681354 -0.936068,-0.681354 -0.7352355,0 -1.1027329,0.495038 -1.1027329,1.484335 0,0.9898065 0.3674974,1.4845895 1.1027329,1.4845895 0.4854949,0 0.8322928,-0.240924 1.0403571,-0.7237895 l 1.019148,0.5426405 c -0.485763,0.863011 -1.2145307,1.294642 -2.186307,1.294642 -0.7494809,0 -1.3498919,-0.229784 -1.8007241,-0.689103 -0.451591,-0.459587 -0.6767411,-1.093063 -0.6767411,-1.9004485 0,-0.793396 0.2323908,-1.423514 0.6974545,-1.889818 0.4650498,-0.466572 1.0442524,-0.69972 1.7385978,-0.69972 1.0271662,0 1.7626699,0.404457 2.2072749,1.213124 l -1.1029921,0.564902 z m 4.7947291,0 c -0.208601,-0.454405 -0.514227,-0.681354 -0.917164,-0.681354 -0.750017,0 -1.125255,0.495038 -1.125255,1.484335 0,0.9898065 0.375238,1.4845895 1.125255,1.4845895 0.486272,0 0.826857,-0.240924 1.021193,-0.7237895 l 1.041921,0.5426405 c -0.484972,0.863011 -1.212708,1.294642 -2.18268,1.294642 -0.748467,0 -1.347578,-0.229784 -1.798124,-0.689103 -0.449786,-0.459587 -0.675214,-1.093063 -0.675214,-1.9004485 0,-0.793396 0.228791,-1.423514 0.686087,-1.889818 0.457013,-0.466572 1.038788,-0.69972 1.745829,-0.69972 1.025348,0 1.759834,0.404457 2.202898,1.213124 l -1.124746,0.564902 z"
       inkscape:connector-curvature="0" />
  </g>
</svg>
