<?xml version="1.0" encoding="UTF-8" standalone="no"?>
<!-- Created with Inkscape (http://www.inkscape.org/) -->

<svg
   xmlns:dc="http://purl.org/dc/elements/1.1/"
   xmlns:cc="http://creativecommons.org/ns#"
   xmlns:rdf="http://www.w3.org/1999/02/22-rdf-syntax-ns#"
   xmlns:svg="http://www.w3.org/2000/svg"
   xmlns="http://www.w3.org/2000/svg"
   xmlns:sodipodi="http://sodipodi.sourceforge.net/DTD/sodipodi-0.dtd"
   xmlns:inkscape="http://www.inkscape.org/namespaces/inkscape"
   width="64"
   height="64"
   id="svg2759"
   sodipodi:version="0.32"
   inkscape:version="0.48.4 r9939"
   version="1.0"
   sodipodi:docname="cc.by-nc.eu.svg"
   inkscape:output_extension="org.inkscape.output.svg.inkscape">
  <defs
     id="defs2761" />
  <sodipodi:namedview
     id="base"
     pagecolor="#ffffff"
     bordercolor="#8b8b8b"
     borderopacity="1"
     gridtolerance="10000"
     guidetolerance="10"
     objecttolerance="10"
     inkscape:pageopacity="0.0"
     inkscape:pageshadow="2"
     inkscape:zoom="5.294964"
     inkscape:cx="94.992444"
     inkscape:cy="13.893743"
     inkscape:document-units="px"
     inkscape:current-layer="layer1"
     width="120px"
     height="42px"
     inkscape:showpageshadow="false"
     inkscape:window-width="1920"
     inkscape:window-height="1018"
     inkscape:window-x="-5"
     inkscape:window-y="-5"
     showgrid="false"
     inkscape:window-maximized="1" />
  <metadata
     id="metadata2764">
    <rdf:RDF>
      <cc:Work
         rdf:about="">
        <dc:format>image/svg+xml</dc:format>
        <dc:type
           rdf:resource="http://purl.org/dc/dcmitype/StillImage" />
      </cc:Work>
    </rdf:RDF>
  </metadata>
  <g
     inkscape:label="Layer 1"
     inkscape:groupmode="layer"
     id="layer1"
     transform="translate(0,22)">
    <g
       id="g5706_3_"
       transform="matrix(0.8674921,0,0,0.8674152,-379.11985,79.364561)" />
    <g
       id="g353"
       transform="matrix(0.9937808,0,0,0.9936927,-177.69414,-148.87729)" />
    <path
       id="path45"
       d="m 53.32626,2.3974255 c -1.197398,-1.195889 -2.662816,-1.793457 -4.39663,-1.793457 -1.713429,0 -3.163371,0.597568 -4.350198,1.793457 -1.21816,1.237036 -1.826677,2.700567 -1.826677,4.391345 0,1.690401 0.608517,3.144117 1.826677,4.3600115 1.217782,1.216652 2.667723,1.824789 4.350198,1.824789 1.702859,0 3.178843,-0.613422 4.42758,-1.839887 1.17664,-1.1649345 1.765146,-2.6133645 1.765146,-4.3449135 0,-1.731926 -0.598698,-3.195835 -1.796096,-4.391345 z m -0.774235,7.9322025 c -1.021867,1.010165 -2.224171,1.514869 -3.606918,1.514869 -1.383125,0 -2.575242,-0.499798 -3.576346,-1.49977 -1.001105,-0.9999715 -1.501654,-2.1852905 -1.501654,-3.5559585 0,-0.579825 0.09154,-1.127942 0.272549,-1.644727 l 1.63887,0.725348 -0.118155,0 0,0.734973 0.580016,0 c 0,0.10381 -0.01038,0.207243 -0.01038,0.310674 l 0,0.176288 -0.569638,0 0,0.734973 0.673067,0 c 0.09324,0.548871 0.300293,0.993932 0.579824,1.34613 0.579824,0.766304 1.511659,1.1804115 2.526357,1.1804115 0.66287,0 1.263083,-0.196673 1.615281,-0.3937225 l -0.248768,-1.14908 c -0.217435,0.114001 -0.703643,0.269151 -1.180038,0.269151 -0.517915,0 -1.004309,-0.155147 -1.335744,-0.528109 -0.155339,-0.17591 -0.269152,-0.414107 -0.34144,-0.724781 l 2.250971,0 3.198475,1.415778 c -0.221584,0.392594 -0.502811,0.755362 -0.846331,1.0875525 z m -4.022534,-3.2382995 -0.01359,-0.01038 0.0234,0.01038 -0.0098,0 z m 1.925574,-0.486962 0.09249,0 0,-0.734973 -1.753067,0 -0.712134,-0.315204 c 0.06134,-0.137784 0.133819,-0.261036 0.218374,-0.357484 0.321056,-0.394099 0.776501,-0.55944 1.273653,-0.55944 0.455632,0 0.879931,0.134386 1.149083,0.248389 l 0.289909,-1.180412 c -0.37296,-0.165341 -0.921456,-0.310298 -1.552997,-0.310298 -0.973168,0 -1.801568,0.393346 -2.391776,1.055841 -0.130987,0.151373 -0.244614,0.321245 -0.34767,0.500931 l -2.033919,-0.900127 c 0.197051,-0.295576 0.428832,-0.579448 0.697227,-0.850109 0.970528,-0.989779 2.156981,-1.484669 3.560864,-1.484669 1.40351,0 2.595627,0.49489 3.576347,1.484669 0.990534,0.979211 1.485803,2.174721 1.485803,3.587292 0,0.465445 -0.05285,0.904467 -0.15704,1.318196 L 50.455065,6.6043665 z M 33.777159,0.6057215 c -1.712722,0 -3.163276,0.597509 -4.35012,1.793305 -1.217899,1.236684 -1.826591,2.700566 -1.826591,4.390622 0,1.690057 0.608692,3.143589 1.826591,4.3598255 1.217898,1.215978 2.668198,1.824097 4.35012,1.824097 1.702885,0 3.179065,-0.612777 4.427503,-1.839625 1.177008,-1.1644855 1.764998,-2.6125845 1.764998,-4.3443025 0,-1.731717 -0.598341,-3.195085 -1.795537,-4.390622 -1.197196,-1.195791 -2.663026,-1.7933 -4.396964,-1.7933 z m 0.01553,1.112729 c 1.403717,0 2.595734,0.495034 3.576058,1.484328 0.991194,0.979204 1.486532,2.17474 1.486532,3.58687 0,1.422221 -0.484986,2.60249 -1.455473,3.5402925 -1.021729,1.010254 -2.224103,1.515123 -3.607112,1.515123 -1.383009,0 -2.575032,-0.499952 -3.575799,-1.499596 -1.001545,-0.9999035 -1.501801,-2.1850895 -1.501801,-3.5558135 0,-1.370983 0.505689,-2.56652 1.517066,-3.586871 0.970233,-0.989299 2.157331,-1.484333 3.560529,-1.484333 z m 0.857645,1.942619 c 0,0.477768 -0.387341,0.86508 -0.865157,0.86508 -0.477809,0 -0.865156,-0.387312 -0.865156,-0.86508 0,-0.477773 0.387347,-0.86508 0.865156,-0.86508 0.477816,0 0.865157,0.387307 0.865157,0.86508 z m 0.799169,1.597673 c 0,-0.220733 -0.179087,-0.39955 -0.399584,-0.39955 l -2.529483,0 c -0.220497,0 -0.399585,0.178812 -0.399585,0.39955 l 0,2.529517 0.705479,0 0,2.9953135 1.91717,0 0,-2.9953135 0.705998,0 0,-2.529517 5e-6,0 z M 51.259418,17.206082 c -0.04606,-0.07452 -0.104037,-0.139736 -0.173395,-0.195633 -0.06936,-0.0559 -0.147514,-0.09989 -0.234988,-0.13094 -0.08747,-0.03158 -0.179088,-0.04711 -0.274326,-0.04711 -0.174948,0 -0.323496,0.03365 -0.445649,0.101441 -0.122153,0.06728 -0.221012,0.157852 -0.296581,0.271716 -0.07608,0.113858 -0.131471,0.243245 -0.16615,0.38816 -0.03466,0.144915 -0.05178,0.295002 -0.05178,0.449748 0,0.148534 0.01707,0.29293 0.05178,0.432672 0.03466,0.140257 0.09006,0.266538 0.16615,0.37833 0.07557,0.112305 0.174428,0.201844 0.296581,0.269643 0.122153,0.0678 0.270701,0.101441 0.445649,0.101441 0.23706,0 0.422873,-0.07246 0.556411,-0.217886 0.133538,-0.144915 0.215319,-0.336409 0.24482,-0.573963 l 0.752067,0 c -0.01966,0.220992 -0.07091,0.42077 -0.153207,0.598803 -0.0823,0.178552 -0.191511,0.330197 -0.326601,0.455958 -0.135091,0.125763 -0.293476,0.221512 -0.475149,0.287758 -0.18116,0.06625 -0.38095,0.09937 -0.598341,0.09937 -0.270701,0 -0.513973,-0.04711 -0.730326,-0.141289 -0.215839,-0.09368 -0.398546,-0.223584 -0.547099,-0.388161 -0.149067,-0.165096 -0.262936,-0.359176 -0.342131,-0.581726 -0.07919,-0.223064 -0.119047,-0.46269 -0.119047,-0.72043 0,-0.263951 0.03986,-0.508749 0.119047,-0.734919 0.07919,-0.22617 0.193064,-0.423356 0.342131,-0.591557 0.148548,-0.168202 0.33126,-0.30018 0.547099,-0.395925 0.216353,-0.09574 0.459625,-0.143362 0.730326,-0.143362 0.194616,0 0.378362,0.02793 0.551758,0.08436 0.172875,0.0559 0.328154,0.13767 0.464797,0.245318 0.137163,0.107133 0.249998,0.240139 0.339026,0.39851 0.08903,0.158371 0.144927,0.340028 0.168216,0.544459 l -0.752067,0 c -0.01293,-0.08901 -0.04293,-0.170788 -0.08902,-0.244798 z m -5.161449,-0.940902 1.475661,2.369335 0.0083,0 0,-2.369335 0.728773,0 0,3.531748 -0.776909,0 -1.469969,-2.364676 -0.0099,0 0,2.364676 -0.728773,0 0,-3.531748 0.772769,0 z m -12.662942,0 0.871109,0 0.827117,1.394796 0.821939,-1.394796 0.865936,0 -1.311065,2.176293 0,1.355461 -0.778462,0 0,-1.375127 -1.296574,-2.156627 z m -1.436842,0 c 0.168476,0 0.321942,0.015 0.460658,0.04452 0.138716,0.02952 0.257763,0.07815 0.357141,0.145948 0.09886,0.06728 0.175982,0.157337 0.230329,0.269124 0.05435,0.112305 0.08178,0.250495 0.08178,0.415591 0,0.178038 -0.04039,0.326053 -0.121633,0.444576 -0.08074,0.119036 -0.200829,0.215819 -0.359208,0.291896 0.218425,0.06262 0.381468,0.172346 0.489125,0.329159 0.107657,0.156812 0.161491,0.34572 0.161491,0.566718 0,0.178037 -0.03466,0.332264 -0.104037,0.462689 -0.06936,0.129906 -0.163044,0.23652 -0.280018,0.318809 -0.117494,0.08281 -0.251551,0.143876 -0.401652,0.18321 -0.15062,0.03985 -0.304866,0.05952 -0.463764,0.05952 l -1.715309,0 0,-3.531749 1.665095,0 0,5e-6 z m -0.09912,1.428438 c 0.138456,0 0.252585,-0.03313 0.341871,-0.09885 0.08903,-0.06573 0.133538,-0.172346 0.133538,-0.320361 0,-0.08229 -0.015,-0.150087 -0.04452,-0.202364 -0.03,-0.05278 -0.06936,-0.09368 -0.119047,-0.123695 -0.04945,-0.02952 -0.106364,-0.05019 -0.170808,-0.06159 -0.06444,-0.01139 -0.131211,-0.01707 -0.200569,-0.01707 l -0.727999,0 0,0.823938 0.787525,0 z m 0.04532,1.498817 c 0.07608,0 0.148547,-0.0073 0.218165,-0.02226 0.0691,-0.015 0.130692,-0.03986 0.183486,-0.07401 0.05279,-0.03466 0.09472,-0.08178 0.126293,-0.141289 0.03159,-0.059 0.04712,-0.135079 0.04712,-0.227204 0,-0.181144 -0.05125,-0.31053 -0.153726,-0.38816 -0.102484,-0.07711 -0.237834,-0.11593 -0.406311,-0.11593 l -0.847819,0 0,0.968848 0.832809,0 0,0 z m 30.857385,-20.3924365 -61.603281,0 c -0.66070793,0 -1.198489135136,0.537214 -1.198489135136,1.197864 l 0,20.9317225 c 0,0.149313 0.121373775136,0.270417 0.270700615136,0.270417 l 63.45860052,0 C 63.878629,21.200001 64,21.078892 64,20.929584 l 0,-20.9317215 c 0,-0.66065 -0.53752,-1.197864 -1.19823,-1.197864 z m -61.6032863,0.540834 61.6032813,0 c 0.362315,0 0.656832,0.294743 0.656832,0.65703 0,0 0,8.418698 0,14.5112805 l -44.030446,0 c -1.613858,2.917937 -4.723046,4.898851 -8.291339,4.898851 -3.5698467,0 -6.6782607,-1.979362 -8.2913393,-4.898851 l -2.30407163,0 c 0,-6.0925775 0,-14.5112805 0,-14.5112805 0,-0.362282 0.29476866,-0.65703 0.65708263,-0.65703 z m 15.8528723,3.956926 c 1.612568,1.612412 2.41898,3.586871 2.41898,5.92255 0,2.3359655 -0.792462,4.2894405 -2.377331,5.8604615 -1.681922,1.654342 -3.669728,2.481395 -5.963456,2.481395 -2.2660278,0 -4.2194216,-0.820062 -5.8596803,-2.460952 C 3.6293554,13.4611 2.8092353,11.500635 2.8092353,9.2203085 c 0,-2.280058 0.8201201,-4.254244 2.4606334,-5.92255 1.5985915,-1.613203 3.5519895,-2.419288 5.8596803,-2.419288 2.335636,-5e-6 4.309239,0.806085 5.921807,2.419288 z M 6.3555338,4.3822825 c -1.3633643,1.376937 -2.0447644,2.990126 -2.0447644,4.840103 0,1.8497215 0.6746775,3.4489495 2.023783,4.7979345 1.3493825,1.348981 2.9557282,2.023617 4.8195776,2.023617 1.863864,0 3.483946,-0.681099 4.861005,-2.044314 1.307425,-1.265673 1.961403,-2.85764 1.961403,-4.7772375 0,-1.905094 -0.664597,-3.521914 -1.993003,-4.850197 -1.328123,-1.328034 -2.937837,-1.992303 -4.829405,-1.992303 -1.8915347,0 -3.4914265,0.667627 -4.7985962,2.002397 z m 3.5876978,4.026518 C 9.7348993,7.9543955 9.4230465,7.7274465 9.0071638,7.7274465 c -0.7352358,0 -1.1027329,0.495038 -1.1027329,1.484335 0,0.9898075 0.3674971,1.4845905 1.1027329,1.4845905 0.485495,0 0.8322929,-0.240924 1.0403572,-0.7237905 l 1.019148,0.5426415 c -0.485763,0.863011 -1.2145307,1.294642 -2.1863073,1.294642 -0.7494806,0 -1.3498918,-0.229784 -1.8007239,-0.689103 C 6.6280469,10.661175 6.402897,10.027699 6.402897,9.2203125 c 0,-0.793396 0.2323904,-1.423514 0.6974544,-1.889818 0.4650497,-0.466572 1.0442524,-0.699719 1.7385975,-0.699719 1.0271665,0 1.7626701,0.404456 2.2072751,1.213123 l -1.1029924,0.564902 z m 4.7947284,0 c -0.2086,-0.454405 -0.514226,-0.681354 -0.917163,-0.681354 -0.750018,0 -1.125255,0.495038 -1.125255,1.484335 0,0.9898075 0.375237,1.4845905 1.125255,1.4845905 0.486272,0 0.826856,-0.240924 1.021193,-0.7237905 l 1.04192,0.5426415 c -0.484971,0.863011 -1.212707,1.294642 -2.182679,1.294642 -0.748468,0 -1.347578,-0.229784 -1.798124,-0.689103 -0.449787,-0.459586 -0.675214,-1.093063 -0.675214,-1.9004495 0,-0.793396 0.228791,-1.423514 0.686086,-1.889818 0.457014,-0.466572 1.038789,-0.699719 1.74583,-0.699719 1.025348,0 1.759834,0.404456 2.202898,1.213123 l -1.124747,0.564902 z"
       inkscape:connector-curvature="0" />
  </g>
</svg>
