<?xml version="1.0" encoding="UTF-8" standalone="no"?>
<!-- Created with Inkscape (http://www.inkscape.org/) -->

<svg
   xmlns:dc="http://purl.org/dc/elements/1.1/"
   xmlns:cc="http://creativecommons.org/ns#"
   xmlns:rdf="http://www.w3.org/1999/02/22-rdf-syntax-ns#"
   xmlns:svg="http://www.w3.org/2000/svg"
   xmlns="http://www.w3.org/2000/svg"
   xmlns:sodipodi="http://sodipodi.sourceforge.net/DTD/sodipodi-0.dtd"
   xmlns:inkscape="http://www.inkscape.org/namespaces/inkscape"
   width="64"
   height="64"
   id="svg2759"
   sodipodi:version="0.32"
   inkscape:version="0.48.4 r9939"
   version="1.0"
   sodipodi:docname="cc.by-nc-nd.svg"
   inkscape:output_extension="org.inkscape.output.svg.inkscape">
  <defs
     id="defs2761" />
  <sodipodi:namedview
     id="base"
     pagecolor="#ffffff"
     bordercolor="#8b8b8b"
     borderopacity="1"
     gridtolerance="10000"
     guidetolerance="10"
     objecttolerance="10"
     inkscape:pageopacity="0.0"
     inkscape:pageshadow="2"
     inkscape:zoom="5.6568542"
     inkscape:cx="74.913677"
     inkscape:cy="55.206473"
     inkscape:document-units="px"
     inkscape:current-layer="layer1"
     width="120px"
     height="42px"
     inkscape:showpageshadow="false"
     inkscape:window-width="1920"
     inkscape:window-height="1018"
     inkscape:window-x="-5"
     inkscape:window-y="-5"
     showgrid="false"
     inkscape:window-maximized="1" />
  <metadata
     id="metadata2764">
    <rdf:RDF>
      <cc:Work
         rdf:about="">
        <dc:format>image/svg+xml</dc:format>
        <dc:type
           rdf:resource="http://purl.org/dc/dcmitype/StillImage" />
      </cc:Work>
    </rdf:RDF>
  </metadata>
  <g
     inkscape:label="Layer 1"
     inkscape:groupmode="layer"
     id="layer1"
     transform="translate(0,22)">
    <g
       id="g6402_1_"
       transform="matrix(0.62110303,0,0,0.62103853,-141.0936,260.32415)" />
    <path
       id="path408"
       style="fill-rule:evenodd"
       d="m 27.592746,0.605941 c -1.712708,0 -3.16299,0.597494 -4.349826,1.793263 -1.217888,1.236395 -1.826575,2.700243 -1.826575,4.39026 0,1.690018 0.608687,3.143775 1.826575,4.359984 1.217889,1.21595 2.668177,1.824054 4.349826,1.824054 1.702871,0 3.179039,-0.613023 4.427981,-1.839841 1.176484,-1.1642 1.764464,-2.612525 1.764464,-4.344202 0,-1.731677 -0.598336,-3.194751 -1.795522,-4.39026 C 30.792488,1.203441 29.327195,0.605941 27.592746,0.605941 z m 0.01606,1.112703 c 1.403705,0 2.595194,0.494763 3.57551,1.484293 0.991186,0.978921 1.48652,2.17469 1.48652,3.586527 0,1.422188 -0.484983,2.602688 -1.455462,3.540464 -1.02172,1.009971 -2.224085,1.514829 -3.606568,1.514829 -1.383517,0 -2.575531,-0.49968 -3.576549,-1.499302 -1.001018,-0.99988 -1.501529,-2.185039 -1.501529,-3.555991 0,-1.370697 0.505684,-2.566205 1.517054,-3.586527 0.970483,-0.989525 2.157319,-1.484293 3.561024,-1.484293 z m 0.857115,1.942314 c 0,0.477759 -0.387338,0.865059 -0.865149,0.865059 -0.477806,0 -0.86515,-0.3873 -0.86515,-0.865059 0,-0.477759 0.387344,-0.865059 0.86515,-0.865059 0.477811,0 0.865149,0.3873 0.865149,0.865059 z m 0.799163,1.597635 c 0,-0.220727 -0.179086,-0.39928 -0.399582,-0.39928 l -2.529462,0 c -0.220495,0 -0.399581,0.178548 -0.399581,0.39928 l 0,2.529459 0.705472,0 0,2.995498 1.917155,0 0,-2.995498 0.705993,0 0,-2.529459 5e-6,0 z m 28.502101,0.06547 -4.495253,0 0,1.064841 4.495253,0 0,-1.064841 z m 0,1.987608 -4.495253,0 0,1.06456 4.495253,0 0,-1.06456 z m -2.34416,-6.705719 c -1.713232,0 -3.163501,0.597224 -4.350348,1.793006 -1.217882,1.236639 -1.826573,2.699981 -1.826573,4.391038 0,1.690268 0.608688,3.143259 1.826573,4.359458 1.217379,1.216202 2.668177,1.82432 4.350348,1.82432 1.70288,0 3.178523,-0.613539 4.427461,-1.839321 1.175974,-1.164972 1.764987,-2.613313 1.764987,-4.344461 0,-1.732197 -0.598843,-3.195274 -1.796043,-4.391037 C 58.622252,1.203176 57.156433,0.605952 55.423025,0.605952 z m 0.01499,1.112431 c 1.403685,0 2.595712,0.495032 3.576538,1.484812 0.990672,0.978926 1.485494,2.174181 1.485494,3.586801 0,1.422181 -0.48447,2.602154 -1.454438,3.539939 -1.022234,1.010239 -2.224608,1.514569 -3.607594,1.514569 -1.383008,0 -2.575013,-0.499418 -3.576035,-1.499568 -1.001023,-0.999362 -1.501526,-2.184773 -1.501526,-3.55494 0,-1.371482 0.505677,-2.566738 1.517559,-3.586801 0.96997,-0.98978 2.15629,-1.484812 3.560002,-1.484812 z M 41.507104,0.605949 c 1.734436,0 3.199731,0.59775 4.396936,1.79299 1.197181,1.195781 1.796033,2.659629 1.796033,4.39104 0,1.731156 -0.588501,3.179476 -1.764985,4.344449 -1.248956,1.22657 -2.725125,1.839326 -4.427984,1.839326 -1.681658,0 -3.131933,-0.608101 -4.349835,-1.82432 -1.217884,-1.215679 -1.826571,-2.669177 -1.826571,-4.359455 0,-1.690539 0.608681,-3.154381 1.826571,-4.39104 1.186835,-1.19524 2.637129,-1.79299 4.349835,-1.79299 z M 36.72199,5.128437 c -0.18427,0.521925 -0.276909,1.075686 -0.276909,1.661548 0,1.370684 0.501021,2.555598 1.502044,3.555732 1.001004,0.999363 2.193031,1.499293 3.576026,1.499293 1.382471,0 2.584831,-0.504847 3.606557,-1.515077 0.342129,-0.330442 0.624228,-0.690914 0.845223,-1.081654 L 43.643187,8.21036 c -0.157853,0.784323 -0.857118,1.314021 -1.701825,1.376135 l 0,0.953549 -0.710146,0 0,-0.953549 C 40.53713,9.578695 39.866863,9.294852 39.353934,8.84615 l 0.851941,-0.858847 c 0.409944,0.386084 0.820387,0.559188 1.380417,0.559188 0.362826,0 0.765002,-0.141798 0.765002,-0.614573 0,-0.167409 -0.0647,-0.28387 -0.166667,-0.371583 L 41.594589,7.298461 40.86064,6.971118 C 40.497292,6.809124 40.189317,6.672759 39.880838,6.5351 L 36.72199,5.128437 z m 4.801161,-3.40954 c -1.404215,0 -2.590546,0.494515 -3.561019,1.484306 -0.26398,0.266529 -0.493789,0.544704 -0.688391,0.835308 l 2.363837,1.05267 C 39.85134,4.435188 40.474511,4.037216 41.231222,3.99322 l 0,-0.953567 0.710146,0 0,0.953567 c 0.489114,0.02358 1.025341,0.157581 1.553795,0.566961 L 42.682549,5.39549 C 42.382865,5.182765 42.004509,5.0332 41.625637,5.0332 c -0.307459,0 -0.741722,0.0942 -0.741722,0.480549 0,0.05871 0.02018,0.110486 0.05592,0.157058 l 0.790877,0.351405 0.535188,0.238597 c 0.342129,0.152926 0.669245,0.297836 0.992732,0.441968 l 3.169217,1.410802 c 0.104547,-0.4148 0.157337,-0.856264 0.157337,-1.323594 0,-1.412103 -0.495326,-2.607859 -1.485998,-3.586782 C 44.11837,2.213412 42.92686,1.718897 41.523163,1.718897 z m 15.351718,14.546397 c 0.228256,0 0.439952,0.03623 0.636635,0.108684 0.196683,0.07245 0.366453,0.181653 0.510341,0.326564 0.143376,0.144912 0.255691,0.326565 0.336438,0.543933 0.08126,0.217881 0.121632,0.473543 0.121632,0.766991 0,0.257214 -0.03312,0.494248 -0.09886,0.712129 -0.06625,0.217368 -0.166149,0.405746 -0.299685,0.563599 -0.134054,0.158367 -0.300715,0.283092 -0.500512,0.373663 -0.199792,0.09057 -0.434774,0.136114 -0.70599,0.136114 l -1.525338,0 0,-3.531666 1.525338,0 0,-1.1e-5 z m -0.05435,2.877503 c 0.112314,0 0.221008,-0.01811 0.326597,-0.05434 0.105589,-0.03623 0.199787,-0.09626 0.282091,-0.18062 0.08229,-0.08384 0.148544,-0.193042 0.198234,-0.328118 0.04917,-0.135075 0.07402,-0.300172 0.07402,-0.494248 0,-0.178034 -0.01707,-0.338468 -0.05179,-0.481827 -0.03467,-0.143358 -0.09162,-0.266012 -0.170811,-0.36797 -0.07919,-0.101958 -0.183744,-0.18062 -0.314176,-0.234962 -0.130427,-0.05434 -0.291397,-0.08125 -0.482395,-0.08125 l -0.554341,0 0,2.223334 0.692544,0 0,6e-6 z m -4.364318,-2.877503 1.475651,2.369279 0.0083,0 0,-2.369279 0.728768,0 0,3.531666 -0.776902,0 -1.469959,-2.364621 -0.0099,0 0,2.364621 -0.728767,0 0,-3.531666 0.772763,0 z m -8.61891,0.940886 c -0.04606,-0.07452 -0.104035,-0.139734 -0.173393,-0.195629 -0.06936,-0.05589 -0.147513,-0.09989 -0.234986,-0.130936 -0.08747,-0.03157 -0.179086,-0.0471 -0.274324,-0.0471 -0.174946,0 -0.323493,0.03364 -0.445645,0.10144 -0.122151,0.06728 -0.221009,0.157847 -0.296579,0.271709 -0.07608,0.113856 -0.131469,0.24324 -0.166148,0.388151 -0.03466,0.144911 -0.05178,0.294995 -0.05178,0.449737 0,0.148531 0.01707,0.292923 0.05178,0.432662 0.03466,0.140254 0.09006,0.266532 0.166148,0.378321 0.07557,0.112303 0.174428,0.201839 0.296579,0.269637 0.122152,0.0678 0.270699,0.101439 0.445645,0.101439 0.237059,0 0.42287,-0.07246 0.556407,-0.217881 0.133536,-0.144912 0.215317,-0.336401 0.244818,-0.573949 l 0.752061,0 c -0.01966,0.220987 -0.07091,0.420759 -0.153206,0.598788 -0.08229,0.178548 -0.191509,0.330189 -0.326598,0.455948 -0.13509,0.125759 -0.293474,0.221507 -0.475146,0.287751 -0.181158,0.06625 -0.380946,0.09937 -0.598336,0.09937 -0.270698,0 -0.513969,-0.0471 -0.73032,-0.141286 C 42.208432,19.640682 42.025726,19.510773 41.877174,19.3462 41.728108,19.181108 41.61424,18.987033 41.535046,18.764488 41.455856,18.541429 41.416,18.301809 41.416,18.044075 c 0,-0.263946 0.03986,-0.508738 0.119046,-0.734902 0.07919,-0.226165 0.193062,-0.423346 0.342128,-0.591544 0.148547,-0.168198 0.331258,-0.300173 0.547094,-0.395915 0.216351,-0.09574 0.459622,-0.143358 0.73032,-0.143358 0.194615,0 0.37836,0.02795 0.551754,0.08436 0.172874,0.05589 0.328151,0.137667 0.464794,0.245312 0.137161,0.107131 0.249996,0.240134 0.339022,0.398501 0.08903,0.158367 0.144926,0.340021 0.168215,0.544446 l -0.752061,0 c -0.01293,-0.08902 -0.04299,-0.170789 -0.08902,-0.244792 z m -5.161407,-0.940886 1.47565,2.369279 0.0083,0 0,-2.369279 0.728766,0 0,3.531666 -0.776902,0 -1.469957,-2.364621 -0.0099,0 0,2.364621 -0.728767,0 0,-3.531666 0.772763,0 z m -11.589356,0 0.871101,0 0.82711,1.394762 0.821933,-1.394762 0.865928,0 -1.311054,2.176243 0,1.355428 -0.778455,0 0,-1.375096 -1.296563,-2.156575 z m -1.436832,0 c 0.168216,0 0.32246,0.01501 0.461174,0.04451 0.138715,0.0295 0.257242,0.07815 0.356619,0.145945 0.09886,0.06728 0.17546,0.157333 0.230328,0.269117 0.05435,0.112303 0.08178,0.25049 0.08178,0.415582 0,0.178034 -0.04039,0.326046 -0.121632,0.444565 -0.08074,0.119034 -0.200308,0.215815 -0.359205,0.29189 0.218423,0.06262 0.381465,0.172342 0.489122,0.329151 0.107656,0.156809 0.161489,0.345712 0.161489,0.566704 0,0.178034 -0.03466,0.332257 -0.104036,0.462679 -0.06936,0.129904 -0.163043,0.236515 -0.280016,0.318801 -0.117493,0.08281 -0.251549,0.143873 -0.401649,0.183207 -0.150619,0.03985 -0.304863,0.05951 -0.463761,0.05951 l -1.715293,0 0,-3.531666 1.66508,0 0,5e-6 z m -0.09886,1.428404 c 0.138195,0 0.252583,-0.03312 0.341609,-0.09885 0.08903,-0.06573 0.133536,-0.172342 0.133536,-0.320353 0,-0.08229 -0.015,-0.150084 -0.04452,-0.202359 -0.03,-0.05279 -0.06936,-0.09368 -0.119046,-0.123692 -0.04966,-0.0295 -0.106623,-0.0502 -0.170807,-0.06159 -0.06419,-0.01138 -0.13147,-0.01708 -0.200827,-0.01708 l -0.727733,0 0,0.823919 0.787778,0 z m 0.04505,1.498782 c 0.07608,0 0.148546,-0.0072 0.217903,-0.02225 0.06936,-0.01501 0.130431,-0.03985 0.183745,-0.07401 0.05279,-0.03468 0.09472,-0.08177 0.126292,-0.141287 0.03159,-0.059 0.04712,-0.135075 0.04712,-0.227197 0,-0.18114 -0.05125,-0.310524 -0.153725,-0.388152 -0.102483,-0.07711 -0.237573,-0.115928 -0.406307,-0.115928 l -0.847813,0 0,0.968825 0.832802,0 z M 17.052013,3.30153 c 1.612274,1.612388 2.418679,3.586787 2.418679,5.92243 0,2.335898 -0.792429,4.289086 -2.377285,5.860339 -1.682162,1.654291 -3.669726,2.481309 -5.963675,2.481309 -2.2659967,0 -4.2193882,-0.820014 -5.8591107,-2.460867 C 3.6298529,13.464398 2.8100077,11.504233 2.8100077,9.22396 c 0,-2.27999 0.8198452,-4.254131 2.4606136,-5.92243 1.5983241,-1.613151 3.5516922,-2.419218 5.8591107,-2.419218 2.335885,0 4.309472,0.806067 5.922281,2.419218 z M 6.3559976,4.386028 c -1.3633258,1.376905 -2.044998,2.989802 -2.044998,4.840018 0,1.849652 0.6749543,3.448856 2.0237942,4.797806 1.3498811,1.348949 2.9559451,2.023556 4.8197932,2.023556 1.863849,0 3.483891,-0.681324 4.861193,-2.044254 1.307442,-1.265629 1.96116,-2.857574 1.96116,-4.777112 0,-1.90505 -0.664591,-3.522101 -1.993241,-4.850353 -1.32814,-1.328003 -2.937841,-1.99227 -4.829112,-1.99227 -1.8912694,0 -3.4916572,0.667635 -4.7985894,2.002609 z M 9.9434072,8.412217 C 9.7353448,7.958077 9.4237629,7.73112 9.0076152,7.73112 c -0.7349611,0 -1.1024555,0.494771 -1.1024555,1.484314 0,0.98977 0.3674944,1.484286 1.1024555,1.484286 0.4855045,0 0.8322997,-0.240904 1.0403618,-0.723758 l 1.019127,0.542628 c -0.486014,0.862991 -1.2147896,1.29488 -2.1863037,1.29488 -0.749447,0 -1.3498529,-0.229811 -1.8006817,-0.689114 C 6.6287858,10.664794 6.403101,10.031332 6.403101,9.223965 c 0,-0.793646 0.2329115,-1.423467 0.6977168,-1.890029 0.4648059,-0.466561 1.0445126,-0.699449 1.7385841,-0.699449 1.0274261,0 1.7623921,0.404447 2.2075111,1.213109 L 9.9434072,8.412217 z m 4.7949768,0 C 14.529785,7.958077 14.22388,7.73112 13.8212,7.73112 c -0.749984,0 -1.125246,0.494771 -1.125246,1.484314 0,0.98977 0.375262,1.484286 1.125246,1.484286 0.486551,0 0.827104,-0.240904 1.021217,-0.723758 l 1.041912,0.542628 c -0.484995,0.862991 -1.21273,1.29488 -2.182689,1.29488 -0.748434,0 -1.347286,-0.229811 -1.79811,-0.689114 -0.449783,-0.459562 -0.675435,-1.093024 -0.675435,-1.900391 0,-0.793646 0.228761,-1.423467 0.686308,-1.890029 0.457037,-0.466561 1.038807,-0.699449 1.745843,-0.699449 1.025339,0 1.759792,0.404447 2.202852,1.213109 L 14.738384,8.412217 z M 62.801792,-1.2 1.1987498,-1.2 C 0.53778757,-1.2 1.0720192e-5,-0.662279 1.0720192e-5,-0.001645 l 0,20.931234 C 1.0720192e-5,21.0789 0.1211291,21.2 0.27070913,21.2 l 63.45860287,0 c 0.149589,0 0.270699,-0.121106 0.270699,-0.270411 l 0,-20.931234 C 64.000011,-0.662279 63.462235,-1.2 62.801792,-1.2 z m -61.6030422,0.541341 61.6030422,0 c 0.362315,0 0.656827,0.294736 0.656827,0.657014 0,0 0,8.421607 0,14.514307 l -44.02983,0 c -1.613845,2.91761 -4.723527,4.898738 -8.291792,4.898738 -3.5693029,0 -6.6779463,-1.979315 -8.2907574,-4.898738 l -2.30482675,0 c 0,-6.092695 0,-14.514307 0,-14.514307 -5.28e-6,-0.362273 0.29502069,-0.657014 0.65733695,-0.657014 z"
       inkscape:connector-curvature="0" />
  </g>
</svg>
