<?xml version="1.0" encoding="UTF-8" standalone="no"?>
<!-- Created with Inkscape (http://www.inkscape.org/) -->

<svg
   xmlns:dc="http://purl.org/dc/elements/1.1/"
   xmlns:cc="http://creativecommons.org/ns#"
   xmlns:rdf="http://www.w3.org/1999/02/22-rdf-syntax-ns#"
   xmlns:svg="http://www.w3.org/2000/svg"
   xmlns="http://www.w3.org/2000/svg"
   xmlns:sodipodi="http://sodipodi.sourceforge.net/DTD/sodipodi-0.dtd"
   xmlns:inkscape="http://www.inkscape.org/namespaces/inkscape"
   width="64"
   height="64"
   id="svg2"
   version="1.1"
   inkscape:version="0.48.4 r9939"
   sodipodi:docname="cc.logo.svg">
  <defs
     id="defs4" />
  <sodipodi:namedview
     id="base"
     pagecolor="#ffffff"
     bordercolor="#666666"
     borderopacity="1.0"
     inkscape:pageopacity="0.0"
     inkscape:pageshadow="2"
     inkscape:zoom="15.839192"
     inkscape:cx="43.507079"
     inkscape:cy="41.574988"
     inkscape:document-units="px"
     inkscape:current-layer="layer1"
     showgrid="false"
     inkscape:window-width="1920"
     inkscape:window-height="1018"
     inkscape:window-x="-5"
     inkscape:window-y="-5"
     inkscape:window-maximized="1" />
  <metadata
     id="metadata7">
    <rdf:RDF>
      <cc:Work
         rdf:about="">
        <dc:format>image/svg+xml</dc:format>
        <dc:type
           rdf:resource="http://purl.org/dc/dcmitype/StillImage" />
        <dc:title />
      </cc:Work>
    </rdf:RDF>
  </metadata>
  <g
     inkscape:label="Layer 1"
     inkscape:groupmode="layer"
     id="layer1"
     transform="translate(0,-988.36218)">
    <path
       id="path3007"
       style="fill:#000000"
       d="m 40.553503,1013.4221 0,-0.6996 0.89023,0 0.89022,0 -0.018,0.682 -0.018,0.6819 -0.87222,0.018 -0.87222,0.018 0,-0.6996 z m 3.15828,4.4862 c -0.54687,-1.6136 -1.00307,-2.9767 -1.01377,-3.029 -0.0165,-0.081 0.12335,-0.098 0.90877,-0.1127 0.70802,-0.013 0.93509,0 0.95714,0.063 0.0159,0.044 0.25313,1.0016 0.52718,2.1267 0.27405,1.1252 0.51415,2.0454 0.53356,2.045 0.0194,-4e-4 0.26577,-0.9495 0.54747,-2.1092 l 0.51217,-2.1084 0.93095,-0.018 c 0.55748,-0.011 0.93095,0.01 0.93095,0.043 0,0.033 -0.37433,1.1543 -0.83184,2.4915 -0.4575,1.3372 -0.91678,2.681 -1.02061,2.9863 l -0.18878,0.5551 -0.89943,0 -0.89944,0 -0.99432,-2.9339 z m -3.15828,-0.1128 0,-3.0466 0.87222,0.018 0.87222,0.018 0.0165,3.0289 0.0165,3.029 -0.88869,0 -0.8887,0 0,-3.0466 z m -20.22022,0.018 0.0165,-3.029 0.86884,-0.018 0.86885,-0.018 0.0192,0.3165 0.0192,0.3165 0.2746,-0.1848 c 0.25768,-0.1734 0.66908,-0.3201 1.13107,-0.4032 0.26066,-0.047 0.27533,0 0.27533,0.8431 l 0,0.6839 -0.49162,0.077 c -0.27038,0.042 -0.61027,0.1331 -0.75531,0.2018 -0.45224,0.2141 -0.46579,0.2838 -0.46579,2.3966 l 0,1.8458 -0.88869,0 -0.8887,0 0.0165,-3.0289 z m 32.18839,-0.9446 c -0.0528,-0.3254 -0.30779,-0.6815 -0.58088,-0.8111 -0.73644,-0.3494 -1.5852,0.064 -1.78016,0.8676 l -0.0423,0.1744 1.22042,0 1.22042,0 -0.0375,-0.2309 z m -1.66013,4.0994 c -1.22979,-0.1742 -2.09826,-0.9607 -2.38009,-2.1554 -0.10851,-0.46 -0.095,-1.393 0.0279,-1.9228 0.29608,-1.2766 1.10222,-2.0292 2.3718,-2.2143 1.94477,-0.2834 3.25887,0.8738 3.41889,3.0108 l 0.0368,0.4916 -2.10667,0 c -1.976,0 -2.10471,0.01 -2.0753,0.111 0.0172,0.061 0.05,0.2313 0.0729,0.3783 0.0912,0.587 0.63261,1.0289 1.26397,1.0317 0.4562,0 0.81835,-0.1978 1.16331,-0.642 0.15867,-0.2043 0.31959,-0.371 0.3576,-0.3703 0.038,6e-4 0.34512,0.1506 0.68246,0.3333 l 0.61335,0.3321 -0.19159,0.2852 c -0.30987,0.4612 -0.61683,0.7423 -1.06165,0.9722 -0.65502,0.3385 -1.43538,0.4661 -2.19365,0.3586 z m -12.57877,0 c -0.57054,-0.1008 -0.91239,-0.3574 -1.13544,-0.8524 -0.10055,-0.2232 -0.11674,-0.4888 -0.13436,-2.2044 l -0.02,-1.9506 -0.44247,0 -0.44247,0 0.0184,-0.5233 0.0184,-0.5233 0.42818,-0.019 0.42818,-0.019 0,-0.8535 0,-0.8535 0.88807,0 0.88808,0 0,0.8564 0,0.8564 0.53919,0 0.53919,0 0,0.5366 0,0.5366 -0.52333,0.018 -0.52333,0.018 -0.0185,1.459 c -0.0102,0.8024 -10e-4,1.5533 0.0194,1.6687 0.0621,0.3434 0.22664,0.4563 0.66516,0.4563 l 0.3806,0 0,0.6978 0,0.6978 -0.30131,6e-4 c -0.16572,3e-4 -0.44404,0.013 -0.61848,0.028 -0.17445,0.015 -0.46837,4e-4 -0.65317,-0.032 z m -5.06873,-1.3505 c 0.31244,-0.1305 0.5924,-0.4901 0.67256,-0.8639 0.0948,-0.4419 0.0903,-0.8267 -0.01,-0.8259 -0.19293,10e-4 -1.53912,0.4429 -1.68919,0.5539 -0.60082,0.4444 -0.27559,1.2216 0.51122,1.2216 0.1704,0 0.40213,-0.039 0.51494,-0.086 z m -1.47787,1.3557 c -0.63848,-0.1112 -1.18896,-0.5053 -1.41406,-1.0125 -0.18045,-0.4066 -0.17247,-1.139 0.0168,-1.5407 0.35904,-0.7622 1.06732,-1.1282 2.72337,-1.4076 l 0.86236,-0.1454 -3.8e-4,-0.3835 c -4.4e-4,-0.4583 -0.10022,-0.5993 -0.50434,-0.7124 -0.55882,-0.1565 -1.12972,0.099 -1.21292,0.5422 l -0.0409,0.2182 -0.8493,0 -0.8493,0 0,-0.1879 c 0,-0.3407 0.2437,-0.8666 0.51528,-1.112 0.51376,-0.4641 1.24516,-0.6437 2.37492,-0.5832 1.19271,0.064 1.8214,0.3528 2.12673,0.9773 0.14481,0.2962 0.14908,0.3572 0.18566,2.6503 0.0206,1.2909 0.0604,2.397 0.0884,2.458 0.0472,0.1027 -0.0111,0.1111 -0.77303,0.1111 -0.80093,0 -0.8251,0 -0.86228,-0.1428 -0.021,-0.078 -0.0386,-0.2069 -0.0391,-0.2854 -10e-4,-0.1886 -0.0302,-0.1818 -0.3326,0.077 -0.43248,0.3702 -1.36636,0.5923 -2.01532,0.4793 z m -3.70239,-4.0661 c -0.0709,-0.3546 -0.22839,-0.5996 -0.49768,-0.7742 -0.70476,-0.457 -1.70193,-0.048 -1.86444,0.7644 l -0.041,0.2051 1.2211,0 1.22111,0 -0.0391,-0.1953 z m -1.65848,4.0639 c -1.88692,-0.2549 -2.84424,-1.9351 -2.34885,-4.1224 0.18643,-0.8232 0.74102,-1.5868 1.37402,-1.8919 0.46421,-0.2238 1.1554,-0.3456 1.73948,-0.3067 1.14695,0.076 1.97055,0.6646 2.37983,1.6999 0.16059,0.4062 0.31337,1.1624 0.31337,1.551 l 0,0.2799 -2.0962,0 -2.0962,0 0.0399,0.2379 c 0.14213,0.8466 0.58633,1.2798 1.31583,1.2831 0.44611,0 0.67267,-0.1218 1.11238,-0.6085 l 0.39467,-0.4367 0.61577,0.3287 c 0.33867,0.1807 0.62447,0.3548 0.63511,0.3867 0.0106,0.032 -0.10649,0.2289 -0.26029,0.4379 -0.64216,0.8723 -1.87085,1.3297 -3.11885,1.1611 z m -9.51442,0.023 c -1.02,-0.094 -1.93942,-0.6749 -2.34545,-1.4812 -0.33587,-0.6668 -0.45681,-1.9102 -0.25835,-2.6559 0.26879,-1.0099 0.98535,-1.786 1.91138,-2.0702 1.04146,-0.3197 2.29041,-0.1094 3.05062,0.5135 0.24746,0.2028 0.69924,0.7719 0.64517,0.8127 -0.0884,0.067 -1.27327,0.6723 -1.3155,0.6723 -0.0294,0 -0.12863,-0.1136 -0.22053,-0.2525 -0.45853,-0.6929 -1.5694,-0.6898 -2.02033,0.01 -0.23283,0.3591 -0.32555,0.8251 -0.29186,1.467 0.053,1.0102 0.48359,1.5661 1.25618,1.622 0.20248,0.015 0.4692,-0.01 0.59271,-0.048 0.20856,-0.069 0.5492,-0.3895 0.71686,-0.6747 0.0683,-0.1162 0.0999,-0.1079 0.68191,0.1791 0.33567,0.1654 0.61031,0.3253 0.61031,0.3552 0,0.096 -0.35251,0.5425 -0.61604,0.7797 -0.62981,0.5667 -1.5235,0.8556 -2.39708,0.7748 z m 35.7451,3.8156 0,-3.0131 0.88808,0 0.88807,0 0,0.2594 0,0.2593 0.19313,-0.1625 c 0.84065,-0.7073 2.51468,-0.6825 3.07,0.045 0.33316,0.4368 0.35262,0.6147 0.35262,3.224 l 0,2.4005 -0.88808,0 -0.88808,0 0,-2.0637 c 0,-2.2745 -0.0198,-2.4121 -0.37246,-2.5945 -0.28985,-0.1499 -0.7707,-0.1286 -1.02957,0.046 -0.39708,0.2673 -0.40369,0.3071 -0.42636,2.5667 l -0.0205,2.0457 -0.88341,0 -0.88341,0 0,-3.0131 z m -16.30256,0 0,-3.0131 0.88808,0 0.88808,0 0,0.2594 0,0.2593 0.20568,-0.173 c 0.45475,-0.3827 1.29559,-0.5933 1.91301,-0.4791 0.48143,0.089 0.75788,0.2278 1.03437,0.5196 l 0.22965,0.2424 0.22976,-0.182 c 0.61583,-0.4877 1.38275,-0.7 2.11008,-0.584 0.51707,0.082 0.81204,0.2114 1.06703,0.4664 0.41009,0.4101 0.40822,0.3963 0.4294,3.1757 l 0.0192,2.5215 -0.88677,0 -0.88677,0 -0.0212,-2.0457 c -0.0237,-2.2812 -0.0464,-2.4172 -0.43751,-2.6195 -0.31434,-0.1625 -0.83251,-0.1007 -1.07099,0.1278 -0.28058,0.2688 -0.31918,0.5916 -0.31918,2.6692 l 0,1.8682 -0.88494,0 -0.88495,0 -0.019,-2.1409 c -0.0172,-1.9375 -0.0298,-2.1569 -0.1331,-2.3089 -0.15998,-0.2356 -0.42625,-0.3286 -0.84208,-0.2941 -0.44285,0.037 -0.71125,0.2712 -0.79264,0.6925 -0.0294,0.1524 -0.0548,1.1263 -0.0563,2.1642 l -0.003,1.8872 -0.88808,0 -0.88808,0 0,-3.0131 z m -9.51511,0 0,-3.0131 0.88808,0 0.88807,0 0,0.2174 0,0.2174 0.36348,-0.2189 c 0.48224,-0.2904 0.77234,-0.3667 1.38096,-0.3632 0.60634,0 0.96239,0.1387 1.35897,0.516 l 0.26722,0.2542 0.21042,-0.1848 c 0.47096,-0.4135 1.3358,-0.6679 2.00115,-0.5888 0.71034,0.084 1.16589,0.3441 1.412,0.8045 0.13948,0.261 0.14248,0.3137 0.1607,2.8192 l 0.0186,2.5532 -0.88756,0 -0.88757,0 -0.0191,-2.0775 c -0.0169,-1.8436 -0.0317,-2.1005 -0.13116,-2.2825 -0.30605,-0.56 -1.23164,-0.5244 -1.5497,0.06 -0.10137,0.1861 -0.11616,0.4326 -0.13526,2.2547 l -0.0214,2.0458 -0.88277,0 -0.88276,0 0,-2.0965 c 0,-2.3016 -0.0108,-2.3747 -0.37853,-2.5649 -0.2635,-0.1362 -0.75106,-0.1225 -0.99808,0.028 -0.39208,0.2391 -0.39955,0.2871 -0.39955,2.5685 l 0,2.0648 -0.88807,0 -0.88808,0 0,-3.0131 z m 33.77865,3.1592 c -0.65386,-0.087 -1.27169,-0.3635 -1.85646,-0.8316 l -0.39747,-0.3181 0.54733,-0.4798 0.54734,-0.4798 0.26246,0.2084 c 0.56065,0.4452 1.02682,0.6209 1.64714,0.6209 0.68014,0 1.06983,-0.2684 0.96956,-0.6679 -0.0581,-0.2314 -0.29891,-0.3328 -1.37015,-0.5768 -0.51892,-0.1181 -1.08757,-0.2768 -1.26365,-0.3526 -0.84706,-0.3644 -1.16183,-1.2641 -0.76562,-2.1884 0.34246,-0.7989 1.21274,-1.2588 2.37729,-1.2562 0.83391,0 1.68403,0.2406 2.38952,0.6712 l 0.29621,0.1807 -0.54994,0.5327 -0.54994,0.5326 -0.15858,-0.144 c -0.43573,-0.3957 -1.5783,-0.6172 -2.00322,-0.3884 -0.37501,0.202 -0.33654,0.5978 0.0748,0.7697 0.11998,0.05 0.53872,0.1609 0.93055,0.2461 1.39548,0.3035 1.84803,0.5253 2.13783,1.0475 0.21302,0.3839 0.22331,1.1499 0.0214,1.5954 -0.16077,0.3547 -0.55271,0.7609 -0.91016,0.9433 -0.59512,0.3036 -1.57344,0.4415 -2.37627,0.3351 z m -11.03017,-1.4727 c 0.44891,-0.2038 0.69482,-0.6206 0.7892,-1.3376 0.0957,-0.7267 -0.0942,-1.4812 -0.45823,-1.8207 -0.37404,-0.3489 -1.12041,-0.4448 -1.61162,-0.207 -0.82378,0.3988 -1.07083,2.0365 -0.44897,2.9762 0.3167,0.4785 1.12985,0.6615 1.72962,0.3891 z m -1.08574,1.4812 c -0.0698,-0.016 -0.28239,-0.061 -0.47246,-0.099 -0.86586,-0.1758 -1.60694,-0.7509 -1.97152,-1.53 -0.59783,-1.2776 -0.33955,-3.0262 0.57305,-3.8798 0.59017,-0.5521 1.35306,-0.8234 2.31497,-0.8234 2.00308,0 3.20405,1.1681 3.22102,3.1329 0.0138,1.5912 -0.76851,2.7217 -2.13314,3.0827 -0.34575,0.091 -1.31817,0.1656 -1.53192,0.1167 z m -24.7214,-1.4584 c 0.58632,-0.2449 0.85505,-0.7897 0.85874,-1.741 0.002,-0.4896 -0.0242,-0.662 -0.13893,-0.919 -0.26406,-0.5914 -0.6574,-0.8533 -1.285,-0.8558 -0.43427,0 -0.71937,0.1109 -0.98776,0.3901 -0.2802,0.2915 -0.40802,0.6333 -0.44629,1.1933 -0.0625,0.9143 0.22621,1.6331 0.7626,1.8986 0.32478,0.1607 0.89544,0.1764 1.23664,0.034 z m -1.03284,1.4586 c -0.0698,-0.016 -0.28387,-0.061 -0.47575,-0.1 -0.7807,-0.1576 -1.53533,-0.707 -1.89304,-1.3781 -0.50002,-0.9381 -0.52062,-2.3626 -0.0477,-3.2959 0.3572,-0.7049 1.11411,-1.2797 1.94071,-1.4738 0.45409,-0.1066 1.39745,-0.1076 1.83958,0 1.64989,0.3941 2.54351,1.8218 2.28411,3.6491 -0.18019,1.2694 -0.9488,2.1688 -2.12552,2.4871 -0.33454,0.091 -1.30728,0.1629 -1.52242,0.1133 z m -5.99452,-0.01 c -1.28707,-0.1994 -2.12313,-0.9447 -2.44344,-2.1783 -0.15332,-0.5904 -0.10469,-1.7256 0.0965,-2.2519 0.28415,-0.7435 0.73744,-1.2487 1.42718,-1.5908 0.86793,-0.4305 1.99598,-0.4285 2.91268,0 0.37715,0.1784 0.92282,0.6719 1.08087,0.9776 l 0.0926,0.1791 -0.69037,0.3587 c -0.63447,0.3297 -0.69351,0.3488 -0.72925,0.2361 -0.0675,-0.2126 -0.57688,-0.6306 -0.82525,-0.6772 -0.63429,-0.119 -1.13991,0.1302 -1.42669,0.7031 -0.12252,0.2448 -0.16174,0.4373 -0.18161,0.8915 -0.0564,1.2898 0.42811,1.9898 1.37897,1.9922 0.49994,10e-4 0.84918,-0.1798 1.08396,-0.562 0.0872,-0.142 0.18056,-0.259 0.20742,-0.2599 0.073,0 1.18813,0.565 1.18813,0.6047 0,0.2404 -0.77002,1.0122 -1.25518,1.2581 -0.59267,0.3003 -1.27878,0.4127 -1.91653,0.3138 z m -5.313714,-11.4961 c 1.289079,1.2893 1.933833,2.8679 1.933833,4.7353 0,1.8676 -0.633579,3.4293 -1.900737,4.6856 -1.344957,1.3226 -2.9340961,1.9839 -4.7682031,1.9839 -1.811757,0 -3.373573,-0.6557 -4.684598,-1.9676 -1.31186207,-1.3115 -1.96736207,-2.8787 -1.96736207,-4.7019 0,-1.823 0.6555,-3.4014 1.96736207,-4.7353 1.277925,-1.2897 2.839723,-1.9342 4.684598,-1.9342 1.867636,0 3.4456001,0.6445 4.7351071,1.9342 z m -8.5519041,0.8672 c -1.090035,1.1009 -1.63506,2.3904 -1.63506,3.8698 0,1.4788 0.539654,2.7575 1.618107,3.836 1.079285,1.0785 2.363398,1.6179 3.853622,1.6179 1.490223,0 2.785513,-0.5447 3.8867221,-1.6344 1.045354,-1.012 1.568028,-2.2848 1.568028,-3.8195 0,-1.5232 -0.531367,-2.8161 -1.593677,-3.8781 -1.0619031,-1.0618 -2.3489251,-1.5929 -3.8610731,-1.5929 -1.512148,0 -2.791723,0.5338 -3.836669,1.6012 z m 2.868281,3.2191 c -0.166355,-0.3632 -0.415477,-0.5446 -0.748205,-0.5446 -0.587631,0 -0.881458,0.3956 -0.881458,1.1868 0,0.7913 0.293827,1.1867 0.881458,1.1867 0.388181,0 0.665458,-0.1926 0.831813,-0.5786 l 0.814833,0.4338 c -0.388588,0.69 -0.971274,1.0353 -1.748039,1.0353 -0.599213,0 -1.079263,-0.1837 -1.439719,-0.551 -0.360859,-0.3674 -0.541303,-0.8739 -0.541303,-1.5194 0,-0.6346 0.186222,-1.1381 0.557853,-1.5112 0.371632,-0.373 0.83513,-0.5592 1.390069,-0.5592 0.821469,0 1.409105,0.3234 1.764996,0.9699 l -0.882298,0.4515 z m 3.83378,0 c -0.166784,-0.3632 -0.411367,-0.5446 -0.733326,-0.5446 -0.599643,0 -0.899681,0.3956 -0.899681,1.1868 0,0.7913 0.300038,1.1867 0.899681,1.1867 0.389017,0 0.661304,-0.1926 0.816505,-0.5786 l 0.8330511,0.4338 c -0.387774,0.69 -0.9696271,1.0353 -1.7451501,1.0353 -0.598403,0 -1.077209,-0.1837 -1.437662,-0.551 -0.359619,-0.3674 -0.540038,-0.8739 -0.540038,-1.5194 0,-0.6346 0.182904,-1.1381 0.548731,-1.5112 0.365421,-0.373 0.83057,-0.5592 1.395873,-0.5592 0.819801,0 1.4070261,0.3234 1.7612711,0.9699 l -0.8992551,0.4515 z"
       inkscape:connector-curvature="0" />
  </g>
</svg>
