<?xml version="1.0" encoding="UTF-8" standalone="no"?>
<!-- Created with Inkscape (http://www.inkscape.org/) -->

<svg
   xmlns:dc="http://purl.org/dc/elements/1.1/"
   xmlns:cc="http://creativecommons.org/ns#"
   xmlns:rdf="http://www.w3.org/1999/02/22-rdf-syntax-ns#"
   xmlns:svg="http://www.w3.org/2000/svg"
   xmlns="http://www.w3.org/2000/svg"
   xmlns:sodipodi="http://sodipodi.sourceforge.net/DTD/sodipodi-0.dtd"
   xmlns:inkscape="http://www.inkscape.org/namespaces/inkscape"
   width="64"
   height="64"
   id="svg2"
   version="1.1"
   inkscape:version="0.48.4 r9939"
   sodipodi:docname="New document 1">
  <defs
     id="defs4" />
  <sodipodi:namedview
     id="base"
     pagecolor="#ffffff"
     bordercolor="#666666"
     borderopacity="1.0"
     inkscape:pageopacity="0.0"
     inkscape:pageshadow="2"
     inkscape:zoom="5.6568543"
     inkscape:cx="70.557747"
     inkscape:cy="20.915396"
     inkscape:document-units="px"
     inkscape:current-layer="layer1"
     showgrid="false"
     showguides="true"
     inkscape:guide-bbox="true"
     fit-margin-top="0"
     fit-margin-left="0"
     fit-margin-right="0"
     fit-margin-bottom="0"
     inkscape:window-width="1920"
     inkscape:window-height="1018"
     inkscape:window-x="-5"
     inkscape:window-y="-5"
     inkscape:window-maximized="1" />
  <metadata
     id="metadata7">
    <rdf:RDF>
      <cc:Work
         rdf:about="">
        <dc:format>image/svg+xml</dc:format>
        <dc:type
           rdf:resource="http://purl.org/dc/dcmitype/StillImage" />
        <dc:title></dc:title>
      </cc:Work>
    </rdf:RDF>
  </metadata>
  <g
     inkscape:label="Layer 1"
     inkscape:groupmode="layer"
     id="layer1"
     transform="translate(-338.64829,-562.96383)">
    <path
       id="path3892"
       style="fill:#000000"
       d="m 369.40157,597.27794 c -2.25769,-0.49579 -4.04991,-2.2846 -4.54598,-4.53733 -0.10232,-0.46464 -0.12437,-0.8181 -0.0936,-1.50183 0.0484,-1.07752 0.26793,-1.83612 0.78748,-2.72117 2.3752,-4.04613 8.27417,-3.83254 10.38724,0.37609 0.68106,1.35647 0.75744,3.36515 0.18212,4.78949 -0.44059,1.09081 -1.26604,2.10205 -2.23196,2.73433 -1.26892,0.83064 -3.05799,1.17385 -4.48524,0.86042 z m 2.33451,-1.08139 c 0.92416,-0.21788 1.80798,-0.74741 2.50619,-1.50156 0.75096,-0.81113 1.11769,-1.7082 1.18312,-2.89414 0.0835,-1.51242 -0.34269,-2.64106 -1.39636,-3.6983 -0.50069,-0.50239 -0.75076,-0.68575 -1.27723,-0.93652 -0.78886,-0.37575 -1.25567,-0.4801 -2.14101,-0.4786 -1.38084,0.002 -2.38302,0.42249 -3.37426,1.41459 -0.97088,0.9717 -1.43936,2.07763 -1.43936,3.39784 0,0.80551 0.12157,1.31889 0.49363,2.0846 0.62954,1.2956 1.83833,2.27456 3.22629,2.61288 0.57211,0.13945 1.6257,0.13908 2.21899,-7.9e-4 z m -3.49044,-3.03042 c -0.62206,-0.28261 -0.96119,-0.87049 -0.96119,-1.66627 0,-0.79579 0.33913,-1.38367 0.96119,-1.66626 0.38348,-0.17421 1.09817,-0.18586 1.48571,-0.0242 0.28047,0.11699 0.78696,0.5447 0.78696,0.66456 0,0.0333 -0.17401,0.14879 -0.3867,0.25657 -0.3342,0.16935 -0.39295,0.17959 -0.43292,0.0755 -0.0594,-0.15482 -0.42839,-0.34584 -0.668,-0.34584 -0.49788,0 -0.81373,0.67457 -0.65771,1.40474 0.14597,0.68312 0.81739,0.91257 1.28933,0.44063 l 0.23409,-0.23408 0.31096,0.15863 c 0.17102,0.0873 0.31095,0.18992 0.31095,0.22816 0,0.13094 -0.49701,0.56664 -0.80697,0.70745 -0.40154,0.1824 -1.06473,0.18261 -1.4657,4.6e-4 z m 3.47839,0.0313 c -0.3674,-0.13099 -0.63248,-0.37331 -0.84605,-0.77336 -0.12808,-0.23991 -0.16475,-0.44437 -0.16579,-0.9242 -0.001,-0.53776 0.0262,-0.66289 0.21471,-0.98369 0.3038,-0.51682 0.69681,-0.75675 1.32177,-0.80691 0.36901,-0.0296 0.59523,-0.005 0.85025,0.0923 0.32676,0.12479 0.80814,0.51623 0.80814,0.65714 0,0.0351 -0.15336,0.15364 -0.3408,0.26349 l -0.34079,0.19972 -0.23091,-0.23091 c -0.37065,-0.37065 -0.89366,-0.29986 -1.12766,0.15264 -0.13549,0.26201 -0.15242,0.87622 -0.0335,1.21724 0.18082,0.51868 0.8494,0.65132 1.2299,0.244 l 0.21921,-0.23467 0.351,0.17837 0.351,0.17838 -0.23116,0.28043 c -0.45324,0.54985 -1.2928,0.75258 -2.02928,0.48999 z m -30.07574,-8.9836 c -1.662,0 -3,1.338 -3,3 l 0,11.15625 0,0.0625 0,7.28125 64,0 0,-7.3125 0,-0.0312 0,-11.15625 c 0,-1.662 -1.338,-3 -3,-3 l -58,0 z m 0.75,0.71875 56.5,0 c 1.61935,0 2.9375,1.24963 2.9375,2.8125 l 0,10.625 -62.375,0 0,-10.625 c 0,-1.56287 1.31815,-2.8125 2.9375,-2.8125 z m -1.34375,14.40625 c 0.41475,0 0.71979,0.11994 0.9375,0.375 0.21771,0.25513 0.36493,0.66212 0.40625,1.21875 l -0.96875,0.0937 c -0.0252,-0.24168 -0.0757,-0.42138 -0.15625,-0.53125 -0.0804,-0.10982 -0.1708,-0.15625 -0.3125,-0.15625 -0.1166,0 -0.22221,0.0432 -0.28125,0.125 -0.059,0.0818 -0.0937,0.16408 -0.0937,0.28125 0,0.0854 0.0451,0.15039 0.0937,0.21875 0.0472,0.0708 0.13538,0.15771 0.3125,0.21875 0.43837,0.15624 0.77909,0.30884 0.96875,0.46875 0.18967,0.15991 0.31991,0.35694 0.40625,0.59375 0.0864,0.23682 0.125,0.48828 0.125,0.78125 0,0.34423 -0.0724,0.67823 -0.1875,0.96875 -0.11514,0.29053 -0.26211,0.50611 -0.46875,0.65625 -0.20666,0.15015 -0.46685,0.21875 -0.78125,0.21875 -0.55202,0 -0.9437,-0.17968 -1.15625,-0.53125 -0.21255,-0.35154 -0.3157,-0.80176 -0.34375,-1.34375 l 0.9375,-0.0937 c 0.0207,0.25634 0.0615,0.45946 0.125,0.59375 0.10331,0.21727 0.27686,0.3125 0.46875,0.3125 0.14316,0 0.235,-0.0451 0.3125,-0.15625 0.0775,-0.11101 0.125,-0.22851 0.125,-0.375 0,-0.13915 -0.0512,-0.26514 -0.125,-0.375 -0.0738,-0.10982 -0.23136,-0.21484 -0.5,-0.3125 -0.43985,-0.16356 -0.75004,-0.38526 -0.9375,-0.65625 -0.18892,-0.271 -0.28125,-0.61134 -0.28125,-1.03125 0,-0.27587 0.0283,-0.53589 0.125,-0.78125 0.0967,-0.24536 0.24341,-0.45336 0.4375,-0.59375 0.19409,-0.14038 0.47448,-0.1875 0.8125,-0.1875 z m 3.25,0 c 0.46416,0 0.84263,0.23903 1.09375,0.71875 0.25111,0.47974 0.37499,1.13576 0.375,2 -10e-6,0.62743 -0.0466,1.16089 -0.15625,1.5625 -0.10972,0.4016 -0.29265,0.71411 -0.5,0.9375 -0.20736,0.2234 -0.4718,0.3125 -0.78125,0.3125 -0.31453,0 -0.57517,-0.0883 -0.78125,-0.28125 -0.2061,-0.19287 -0.37192,-0.48877 -0.5,-0.90625 -0.12806,-0.41747 -0.1875,-0.93507 -0.1875,-1.5625 0,-0.87645 0.12135,-1.57423 0.375,-2.0625 0.25365,-0.48828 0.60972,-0.71875 1.0625,-0.71875 z m 17.9375,0 c 0.33641,0 0.61442,0.0489 0.78125,0.15625 0.16682,0.10743 0.29618,0.27417 0.40625,0.5 0.11006,0.22583 0.19462,0.49707 0.25,0.84375 l -0.90625,0.28125 c -0.0374,-0.20263 -0.0982,-0.36132 -0.1875,-0.46875 -0.0893,-0.10743 -0.2053,-0.15625 -0.34375,-0.15625 -0.20628,0 -0.37748,0.12227 -0.5,0.375 -0.12252,0.25269 -0.1875,0.67189 -0.1875,1.21875 0,0.58106 0.0637,1.00098 0.1875,1.25 0.12391,0.24902 0.30974,0.37502 0.53125,0.375 0.10521,2e-5 0.18571,-0.0399 0.28125,-0.0937 0.0955,-0.0538 0.22053,-0.15186 0.34375,-0.28125 l 0,-0.5 -0.625,0 0,-1.125 1.4375,0 0,2.3125 c -0.27827,0.33445 -0.50485,0.53541 -0.71875,0.65625 -0.21389,0.12084 -0.48776,0.1875 -0.78125,0.1875 -0.36134,0 -0.64727,-0.0952 -0.875,-0.3125 -0.22775,-0.21729 -0.40596,-0.53907 -0.53125,-0.96875 -0.12529,-0.42967 -0.1875,-0.94336 -0.1875,-1.5 0,-0.58591 0.0817,-1.0979 0.21875,-1.53125 0.13705,-0.43334 0.32933,-0.74414 0.59375,-0.96875 0.20628,-0.17333 0.46362,-0.25 0.8125,-0.25 z m 9.90625,0 c 0.38903,0 0.67079,0.11994 0.875,0.375 0.2042,0.25513 0.33623,0.66212 0.375,1.21875 l -0.875,0.0937 c -0.0235,-0.24168 -0.0808,-0.42138 -0.15625,-0.53125 -0.0754,-0.10982 -0.17959,-0.15625 -0.3125,-0.15625 -0.10937,0 -0.19463,0.0432 -0.25,0.125 -0.0554,0.0818 -0.0937,0.16408 -0.0937,0.28125 0,0.0854 0.0168,0.15039 0.0625,0.21875 0.0443,0.0708 0.17761,0.15771 0.34375,0.21875 0.41117,0.15624 0.6971,0.30884 0.875,0.46875 0.1779,0.15991 0.29401,0.35694 0.375,0.59375 0.081,0.23682 0.12499,0.48828 0.125,0.78125 -1e-5,0.34423 -0.0483,0.67823 -0.15625,0.96875 -0.10799,0.29053 -0.24368,0.50611 -0.4375,0.65625 -0.19382,0.15015 -0.45512,0.21875 -0.75,0.21875 -0.51778,0 -0.86314,-0.17968 -1.0625,-0.53125 -0.19935,-0.35154 -0.31745,-0.80176 -0.34375,-1.34375 l 0.875,-0.0937 c 0.0194,0.25634 0.0654,0.45946 0.125,0.59375 0.0969,0.21727 0.25752,0.3125 0.4375,0.3125 0.13429,0 0.20856,-0.0451 0.28125,-0.15625 0.0727,-0.11101 0.125,-0.22851 0.125,-0.375 0,-0.13915 -0.0245,-0.26514 -0.0937,-0.375 -0.0692,-0.10982 -0.24804,-0.21484 -0.5,-0.3125 -0.41256,-0.16356 -0.69918,-0.38526 -0.875,-0.65625 -0.17722,-0.271 -0.28125,-0.61134 -0.28125,-1.03125 0,-0.27587 0.0655,-0.53589 0.15625,-0.78125 0.0907,-0.24536 0.2242,-0.45336 0.40625,-0.59375 0.18206,-0.14038 0.43297,-0.1875 0.75,-0.1875 z m 11.375,0 c 0.40828,0 0.72319,0.11994 0.9375,0.375 0.21429,0.25513 0.33432,0.66212 0.375,1.21875 l -0.9375,0.0937 c -0.0247,-0.24168 -0.077,-0.42138 -0.15625,-0.53125 -0.0791,-0.10982 -0.17303,-0.15625 -0.3125,-0.15625 -0.11479,0 -0.22314,0.0432 -0.28125,0.125 -0.0581,0.0818 -0.0625,0.16408 -0.0625,0.28125 0,0.0854 0.0145,0.15039 0.0625,0.21875 0.0465,0.0708 0.16939,0.15771 0.34375,0.21875 0.43151,0.15624 0.71954,0.30884 0.90625,0.46875 0.18669,0.15991 0.32125,0.35694 0.40625,0.59375 0.085,0.23682 0.12499,0.48828 0.125,0.78125 -10e-6,0.34423 -0.043,0.67823 -0.15625,0.96875 -0.11333,0.29053 -0.26535,0.50611 -0.46875,0.65625 -0.20341,0.15015 -0.4718,0.21875 -0.78125,0.21875 -0.5434,0 -0.91578,-0.17968 -1.125,-0.53125 -0.20922,-0.35154 -0.31614,-0.80176 -0.34375,-1.34375 l 0.9375,-0.0937 c 0.0204,0.25634 0.0625,0.45946 0.125,0.59375 0.1017,0.21727 0.24861,0.3125 0.4375,0.3125 0.14093,0 0.23621,-0.0451 0.3125,-0.15625 0.0763,-0.11101 0.125,-0.22851 0.125,-0.375 0,-0.13915 -0.0523,-0.26514 -0.125,-0.375 -0.0726,-0.10982 -0.23558,-0.21484 -0.5,-0.3125 -0.43297,-0.16356 -0.75298,-0.38526 -0.9375,-0.65625 -0.18599,-0.271 -0.28125,-0.61134 -0.28125,-1.03125 0,-0.27587 0.061,-0.53589 0.15625,-0.78125 0.0952,-0.24536 0.24644,-0.45336 0.4375,-0.59375 0.19106,-0.14038 0.44854,-0.1875 0.78125,-0.1875 z m -37.28125,0.0937 1.59375,0 0.625,3.25 0.625,-3.25 1.625,0 0,5.34375 -1.03125,0 0,-4.09375 -0.75,4.09375 -0.90625,0 -0.78125,-4.09375 0,4.09375 -1,0 0,-5.34375 z m 4.90625,0 2.6875,0 0,1.125 -1.6875,0 0,0.875 1.5625,0 0,1.09375 -1.5625,0 0,1.03125 1.71875,0 0,1.21875 -2.71875,0 0,-5.34375 z m 4.625,0 1.59375,0 c 0.29073,0 0.50257,0.0371 0.65625,0.125 0.15366,0.0879 0.28086,0.23073 0.375,0.46875 0.0941,0.23804 0.125,0.53321 0.125,0.875 0,0.29785 -0.0218,0.56519 -0.0937,0.78125 -0.072,0.21607 -0.18652,0.39697 -0.3125,0.53125 -0.0803,0.0854 -0.17268,0.1626 -0.3125,0.21875 0.11213,0.0659 0.19878,0.12161 0.25,0.1875 0.0346,0.0439 0.0593,0.13721 0.125,0.28125 0.0657,0.14405 0.13409,0.26563 0.15625,0.34375 l 0.4375,1.53125 -1.0625,0 -0.5,-1.625 c -0.0637,-0.2124 -0.10641,-0.34278 -0.15625,-0.40625 -0.0679,-0.083 -0.16417,-0.125 -0.25,-0.125 l -0.0625,0 0,2.15625 -0.96875,0 0,-5.34375 z m 3.34375,0 0.9375,0 0,5.34375 -0.9375,0 0,-5.34375 z m 5.15625,0 0.9375,0 0,1.875 1.03125,0 0,-1.875 0.96875,0 0,5.34375 -0.96875,0 0,-2.15625 -1.03125,0 0,2.15625 -0.9375,0 0,-5.34375 z m 3.34375,0 2.84375,0 0,1.3125 -0.9375,0 0,4.03125 -0.9375,0 0,-4.03125 -0.96875,0 0,-1.3125 z m 7.90625,0 1.65625,0 c 0.30512,0 0.52623,0.0371 0.6875,0.125 0.16127,0.0879 0.30744,0.23073 0.40625,0.46875 0.0988,0.23804 0.15625,0.53321 0.15625,0.875 0,0.29785 -0.0495,0.56519 -0.125,0.78125 -0.0756,0.21607 -0.18028,0.39697 -0.3125,0.53125 -0.0843,0.0854 -0.197,0.1626 -0.34375,0.21875 0.11769,0.0659 0.19625,0.12161 0.25,0.1875 0.0363,0.0439 0.0872,0.13721 0.15625,0.28125 0.069,0.14405 0.13302,0.26563 0.15625,0.34375 l 0.46875,1.53125 -1.125,0 -0.53125,-1.625 c -0.0668,-0.2124 -0.10396,-0.34278 -0.15625,-0.40625 -0.0713,-0.083 -0.15992,-0.125 -0.25,-0.125 l -0.0937,0 0,2.15625 -1,0 0,-5.34375 z m 3.46875,0 2.625,0 0,1.125 -1.65625,0 0,0.875 1.5625,0 0,1.09375 -1.5625,0 0,1.03125 1.71875,0 0,1.21875 -2.6875,0 0,-5.34375 z m 6.4375,0 2.65625,0 0,1.125 -1.65625,0 0,0.875 1.53125,0 0,1.09375 -1.53125,0 0,1.03125 1.6875,0 0,1.21875 -2.6875,0 0,-5.34375 z m 3.25,0 1.65625,0 c 0.3051,0 0.52621,0.0371 0.6875,0.125 0.16127,0.0879 0.2762,0.23073 0.375,0.46875 0.0987,0.23804 0.15624,0.53321 0.15625,0.875 -10e-6,0.29785 -0.0182,0.56519 -0.0937,0.78125 -0.0756,0.21607 -0.18028,0.39697 -0.3125,0.53125 -0.0843,0.0854 -0.19701,0.1626 -0.34375,0.21875 0.11768,0.0659 0.19623,0.12161 0.25,0.1875 0.0363,0.0439 0.0873,0.13721 0.15625,0.28125 0.069,0.14405 0.10175,0.26563 0.125,0.34375 l 0.46875,1.53125 -1.09375,0 -0.53125,-1.625 c -0.0668,-0.2124 -0.1352,-0.34278 -0.1875,-0.40625 -0.0713,-0.083 -0.15992,-0.125 -0.25,-0.125 l -0.0625,0 0,2.15625 -1,0 0,-5.34375 z m 3.125,0 1.03125,0 0.71875,3.84375 0.71875,-3.84375 1,0 -1.1875,5.34375 -1.0625,0 -1.21875,-5.34375 z m 3.78125,0 2.65625,0 0,1.125 -1.65625,0 0,0.875 1.53125,0 0,1.09375 -1.53125,0 0,1.03125 1.71875,0 0,1.21875 -2.71875,0 0,-5.34375 z m 3.25,0 1.46875,0 c 0.28913,0 0.54077,0.0557 0.71875,0.1875 0.17798,0.13186 0.32126,0.31593 0.4375,0.5625 0.11623,0.24659 0.19769,0.54786 0.25,0.875 0.0523,0.32715 0.0625,0.66506 0.0625,1.03125 -10e-6,0.57373 -0.016,1.02759 -0.0937,1.34375 -0.0778,0.31616 -0.20572,0.56764 -0.34375,0.78125 -0.13803,0.21362 -0.27914,0.3667 -0.4375,0.4375 -0.21649,0.0976 -0.41795,0.125 -0.59375,0.125 l -1.46875,0 0,-5.34375 z m -42.09375,1.0625 0,1.09375 0.375,0 c 0.0429,0 0.12678,-0.0136 0.25,-0.0625 0.0623,-0.0219 0.11679,-0.0972 0.15625,-0.1875 0.0395,-0.0903 0.0625,-0.19533 0.0625,-0.3125 0,-0.17334 -0.0315,-0.28223 -0.0937,-0.375 -0.0623,-0.0928 -0.17208,-0.15625 -0.34375,-0.15625 l -0.40625,0 z m 19.78125,0 0,1.09375 0.40625,0 c 0.045,0 0.15194,-0.0136 0.28125,-0.0625 0.0654,-0.0219 0.11483,-0.0972 0.15625,-0.1875 0.0414,-0.0903 0.0625,-0.19533 0.0625,-0.3125 0,-0.17334 -0.0283,-0.28223 -0.0937,-0.375 -0.0654,-0.0928 -0.19485,-0.15625 -0.375,-0.15625 l -0.4375,0 z m 13.15625,0 0,1.09375 0.40625,0 c 0.045,0 0.12068,-0.0136 0.25,-0.0625 0.0654,-0.0219 0.11484,-0.0972 0.15625,-0.1875 0.0414,-0.0903 0.0625,-0.19533 0.0625,-0.3125 -10e-6,-0.17334 -0.0283,-0.28223 -0.0937,-0.375 -0.0654,-0.0928 -0.16359,-0.15625 -0.34375,-0.15625 l -0.4375,0 z m -45.375,0.0937 c -0.17376,0 -0.30099,0.10699 -0.40625,0.34375 -0.10531,0.23681 -0.1875,0.64064 -0.1875,1.1875 0,0.54199 0.0829,0.91944 0.1875,1.15625 0.10463,0.23682 0.22615,0.375 0.40625,0.375 0.18516,0 0.33604,-0.14303 0.4375,-0.375 0.10141,-0.23192 0.15625,-0.64942 0.15625,-1.25 0,-0.50536 -0.0503,-0.86059 -0.15625,-1.09375 -0.1059,-0.23314 -0.25615,-0.34375 -0.4375,-0.34375 z m 55.53125,0.0312 0,2.9375 0.25,0 c 0.20631,0 0.35032,-0.0168 0.4375,-0.0937 0.0872,-0.0769 0.1381,-0.21461 0.1875,-0.40625 0.0494,-0.19165 0.0937,-0.50781 0.0937,-0.9375 0,-0.56882 -0.0771,-0.94629 -0.1875,-1.15625 -0.11041,-0.20995 -0.27554,-0.34374 -0.53125,-0.34375 l -0.25,0 z"
       inkscape:connector-curvature="0" />
  </g>
</svg>
