<?xml version="1.0" encoding="UTF-8" standalone="no"?>
<!-- Generator: Adobe Illustrator 13.0.2, SVG Export Plug-In . SVG Version: 6.00 Build 14948)  -->

<svg
   xmlns:dc="http://purl.org/dc/elements/1.1/"
   xmlns:cc="http://creativecommons.org/ns#"
   xmlns:rdf="http://www.w3.org/1999/02/22-rdf-syntax-ns#"
   xmlns:svg="http://www.w3.org/2000/svg"
   xmlns="http://www.w3.org/2000/svg"
   xmlns:sodipodi="http://sodipodi.sourceforge.net/DTD/sodipodi-0.dtd"
   xmlns:inkscape="http://www.inkscape.org/namespaces/inkscape"
   version="1.1"
   id="Layer_1"
   x="0px"
   y="0px"
   width="64"
   height="64"
   viewBox="-0.5 -0.101 64 64"
   enable-background="new -0.5 -0.101 88 31"
   xml:space="preserve"
   inkscape:version="0.48.4 r9939"
   sodipodi:docname="cc-zero.svg"><metadata
   id="metadata51"><rdf:RDF><cc:Work
       rdf:about=""><dc:format>image/svg+xml</dc:format><dc:type
         rdf:resource="http://purl.org/dc/dcmitype/StillImage" /></cc:Work></rdf:RDF></metadata><defs
   id="defs49" /><sodipodi:namedview
   pagecolor="#ffffff"
   bordercolor="#666666"
   borderopacity="1"
   objecttolerance="10"
   gridtolerance="10"
   guidetolerance="10"
   inkscape:pageopacity="0"
   inkscape:pageshadow="2"
   inkscape:window-width="1920"
   inkscape:window-height="1018"
   id="namedview47"
   showgrid="false"
   inkscape:zoom="9.1923881"
   inkscape:cx="42.254759"
   inkscape:cy="12.05891"
   inkscape:window-x="-5"
   inkscape:window-y="-5"
   inkscape:window-maximized="1"
   inkscape:current-layer="Layer_1" />
<g
   id="g3"
   transform="matrix(0.72727273,0,0,0.72727273,-0.13636376,20.626273)">
	<path
   d="M 1.803,0.482 84.93,0.631 c 1.161,0 2.198,-0.173 2.198,2.333 L 87.025,30.52 H -0.295 V 2.862 c 0,-1.236 0.118,-2.38 2.098,-2.38 z"
   id="path5"
   inkscape:connector-curvature="0"
   style="fill:#ffffff" />
	<g
   id="g7">
		<ellipse
   cx="13.887"
   cy="15.502"
   rx="11.101"
   ry="11.174"
   id="ellipse9"
   sodipodi:cx="13.887"
   sodipodi:cy="15.502"
   sodipodi:rx="11.101"
   sodipodi:ry="11.174"
   style="fill:#ffffff"
   d="m 24.988,15.502 c 0,6.17123 -4.970087,11.174 -11.101,11.174 -6.1309128,0 -11.1009997,-5.00277 -11.1009997,-11.174 0,-6.1712298 4.9700869,-11.1739999 11.1009997,-11.1739999 6.130913,0 11.101,5.0027701 11.101,11.1739999 z" />
	</g>
	<path
   d="m 23.271,4.061 c 3.484,2.592 5.754,6.744 5.755,11.44 -0.001,4.272 -1.88,8.095 -4.842,10.705 H 87.037 V 4.061 H 23.271 z"
   id="path11"
   inkscape:connector-curvature="0" />
	<g
   id="g13">
		<path
   d="m 35.739,7.559 c 0.392,0 0.728,0.059 1.002,0.173 0.276,0.116 0.5,0.268 0.674,0.456 0.173,0.189 0.299,0.405 0.379,0.647 0.079,0.242 0.118,0.494 0.118,0.753 0,0.253 -0.039,0.503 -0.118,0.749 -0.08,0.244 -0.206,0.462 -0.379,0.65 -0.174,0.189 -0.397,0.341 -0.674,0.456 -0.274,0.114 -0.61,0.173 -1.002,0.173 h -1.452 v 2.267 H 32.905 V 7.559 h 2.834 z m -0.379,2.976 c 0.158,0 0.312,-0.012 0.457,-0.035 0.147,-0.023 0.276,-0.069 0.388,-0.137 0.112,-0.068 0.201,-0.164 0.269,-0.288 0.068,-0.124 0.101,-0.287 0.101,-0.487 0,-0.2 -0.033,-0.362 -0.101,-0.487 C 36.407,8.977 36.317,8.88 36.205,8.814 36.094,8.746 35.965,8.7 35.817,8.676 35.671,8.652 35.518,8.64 35.36,8.64 h -1.073 v 1.896 l 1.073,-10e-4 0,0 z"
   id="path15"
   inkscape:connector-curvature="0"
   style="fill:#ffffff" />
		<path
   d="m 43.751,13.4 c -0.476,0.417 -1.133,0.625 -1.972,0.625 -0.851,0 -1.509,-0.207 -1.976,-0.62 -0.466,-0.412 -0.699,-1.052 -0.699,-1.913 V 7.559 h 1.381 v 3.934 c 0,0.171 0.016,0.338 0.045,0.505 0.029,0.165 0.091,0.311 0.185,0.439 0.094,0.126 0.225,0.229 0.392,0.309 0.167,0.081 0.392,0.12 0.673,0.12 0.493,0 0.833,-0.11 1.021,-0.332 0.188,-0.222 0.282,-0.568 0.282,-1.04 V 7.559 h 1.382 v 3.934 c -0.001,0.855 -0.238,1.49 -0.714,1.907 z"
   id="path17"
   inkscape:connector-curvature="0"
   style="fill:#ffffff" />
		<path
   d="m 49.07,7.559 c 0.3,0 0.572,0.027 0.818,0.081 0.244,0.054 0.457,0.14 0.633,0.261 0.177,0.121 0.312,0.282 0.41,0.482 0.096,0.201 0.146,0.45 0.146,0.745 0,0.318 -0.072,0.584 -0.216,0.796 -0.146,0.212 -0.357,0.388 -0.639,0.523 0.387,0.112 0.676,0.31 0.865,0.589 0.189,0.281 0.286,0.62 0.286,1.015 0,0.319 -0.062,0.595 -0.187,0.828 -0.123,0.232 -0.289,0.423 -0.496,0.571 -0.209,0.148 -0.445,0.257 -0.713,0.327 -0.269,0.07 -0.541,0.105 -0.822,0.105 H 46.108 V 7.559 h 2.962 z m -0.175,2.56 c 0.246,0 0.448,-0.059 0.607,-0.178 C 49.66,9.823 49.738,9.632 49.738,9.365 49.738,9.218 49.713,9.096 49.66,9.002 49.607,8.909 49.537,8.834 49.449,8.781 49.359,8.728 49.26,8.69 49.144,8.672 49.029,8.65 48.912,8.64 48.789,8.64 h -1.294 v 1.48 l 1.4,-10e-4 0,0 0,0 z m 0.08,2.685 c 0.135,0 0.264,-0.014 0.387,-0.04 0.123,-0.026 0.23,-0.072 0.326,-0.133 0.092,-0.062 0.168,-0.147 0.226,-0.254 0.056,-0.104 0.083,-0.241 0.083,-0.406 0,-0.324 -0.092,-0.557 -0.271,-0.695 -0.182,-0.138 -0.424,-0.208 -0.723,-0.208 h -1.505 v 1.738 h 1.479 v -0.002 h -0.002 z"
   id="path19"
   inkscape:connector-curvature="0"
   style="fill:#ffffff" />
		<path
   d="m 54.143,7.559 v 5.156 h 3.062 v 1.168 H 52.76 V 7.559 h 1.383 z"
   id="path21"
   inkscape:connector-curvature="0"
   style="fill:#ffffff" />
		<path
   d="m 59.748,7.559 v 6.324 H 58.366 V 7.559 h 1.382 z"
   id="path23"
   inkscape:connector-curvature="0"
   style="fill:#ffffff" />
		<path
   d="M 65.451,9.247 C 65.369,9.115 65.265,8.998 65.142,8.898 65.019,8.796 64.879,8.718 64.724,8.662 64.568,8.605 64.408,8.578 64.236,8.578 c -0.312,0 -0.574,0.062 -0.793,0.183 -0.217,0.12 -0.394,0.283 -0.525,0.486 -0.136,0.204 -0.232,0.436 -0.296,0.695 -0.062,0.259 -0.093,0.528 -0.093,0.806 0,0.267 0.031,0.524 0.093,0.776 0.062,0.251 0.16,0.477 0.296,0.678 0.134,0.201 0.312,0.361 0.525,0.483 0.219,0.12 0.481,0.181 0.793,0.181 0.424,0 0.752,-0.13 0.99,-0.389 0.236,-0.26 0.383,-0.602 0.437,-1.028 H 67 c -0.034,0.396 -0.126,0.753 -0.271,1.072 -0.146,0.318 -0.342,0.591 -0.582,0.815 -0.238,0.225 -0.521,0.396 -0.845,0.513 -0.323,0.119 -0.678,0.178 -1.065,0.178 -0.479,0 -0.914,-0.084 -1.297,-0.252 -0.385,-0.169 -0.709,-0.398 -0.973,-0.695 -0.265,-0.295 -0.468,-0.642 -0.607,-1.04 -0.142,-0.399 -0.211,-0.829 -0.211,-1.289 0,-0.473 0.069,-0.911 0.211,-1.316 0.141,-0.404 0.344,-0.758 0.607,-1.059 0.264,-0.302 0.588,-0.536 0.973,-0.708 0.384,-0.172 0.815,-0.258 1.297,-0.258 0.348,0 0.676,0.051 0.981,0.15 0.308,0.102 0.583,0.248 0.827,0.44 0.243,0.191 0.443,0.43 0.604,0.712 0.158,0.283 0.259,0.608 0.301,0.975 H 65.61 C 65.586,9.524 65.533,9.377 65.451,9.247 z"
   id="path25"
   inkscape:connector-curvature="0"
   style="fill:#ffffff" />
		<path
   d="m 35.615,16.418 c 0.405,0 0.782,0.062 1.131,0.192 0.35,0.13 0.651,0.324 0.906,0.585 0.255,0.26 0.455,0.586 0.599,0.975 0.144,0.391 0.216,0.849 0.216,1.371 0,0.463 -0.059,0.888 -0.176,1.277 -0.118,0.391 -0.295,0.727 -0.532,1.012 -0.238,0.281 -0.534,0.504 -0.89,0.668 -0.354,0.16 -0.772,0.242 -1.254,0.242 h -2.71 v -6.322 h 2.71 z m -0.096,5.154 c 0.199,0 0.393,-0.031 0.581,-0.098 0.188,-0.062 0.354,-0.173 0.502,-0.323 0.146,-0.151 0.264,-0.347 0.352,-0.59 0.088,-0.241 0.132,-0.536 0.132,-0.886 0,-0.317 -0.031,-0.606 -0.093,-0.863 C 36.931,18.556 36.831,18.333 36.689,18.153 36.548,17.97 36.363,17.83 36.13,17.732 35.899,17.634 35.613,17.586 35.272,17.586 h -0.984 v 3.986 h 1.231 z"
   id="path27"
   inkscape:connector-curvature="0"
   style="fill:#ffffff" />
		<path
   d="m 39.8,18.289 c 0.141,-0.403 0.344,-0.756 0.606,-1.059 0.265,-0.303 0.589,-0.538 0.973,-0.709 0.385,-0.171 0.816,-0.257 1.298,-0.257 0.487,0 0.921,0.086 1.303,0.257 0.381,0.171 0.704,0.406 0.969,0.709 0.264,0.303 0.466,0.652 0.605,1.059 0.143,0.404 0.213,0.845 0.213,1.316 0,0.46 -0.07,0.891 -0.213,1.288 -0.142,0.397 -0.344,0.744 -0.605,1.04 -0.266,0.295 -0.588,0.525 -0.969,0.695 -0.382,0.166 -0.815,0.252 -1.303,0.252 -0.481,0 -0.913,-0.086 -1.298,-0.252 -0.384,-0.17 -0.708,-0.4 -0.973,-0.695 -0.263,-0.296 -0.466,-0.645 -0.606,-1.04 -0.14,-0.397 -0.211,-0.828 -0.211,-1.288 0,-0.471 0.07,-0.911 0.211,-1.316 z m 1.262,2.09 c 0.062,0.252 0.16,0.479 0.295,0.68 0.135,0.2 0.312,0.359 0.527,0.482 0.218,0.121 0.481,0.183 0.792,0.183 0.312,0 0.576,-0.062 0.792,-0.183 0.218,-0.121 0.394,-0.281 0.529,-0.482 0.134,-0.2 0.231,-0.428 0.295,-0.68 0.062,-0.25 0.092,-0.508 0.092,-0.774 0,-0.276 -0.03,-0.547 -0.092,-0.806 -0.062,-0.262 -0.161,-0.492 -0.295,-0.696 -0.136,-0.201 -0.312,-0.365 -0.529,-0.485 -0.216,-0.121 -0.48,-0.184 -0.792,-0.184 -0.311,0 -0.574,0.062 -0.792,0.184 -0.216,0.12 -0.393,0.284 -0.527,0.485 -0.135,0.204 -0.233,0.437 -0.295,0.696 -0.062,0.259 -0.093,0.527 -0.093,0.806 10e-4,0.266 0.032,0.524 0.093,0.774 z"
   id="path29"
   inkscape:connector-curvature="0"
   style="fill:#ffffff" />
		<path
   d="m 49.092,16.418 1.471,4.348 h 0.02 l 1.393,-4.348 h 1.942 v 6.322 h -1.294 v -4.48 h -0.02 l -1.539,4.48 H 50 l -1.54,-4.437 h -0.019 v 4.437 h -1.293 v -6.322 h 1.944 z"
   id="path31"
   inkscape:connector-curvature="0"
   style="fill:#ffffff" />
		<path
   d="m 58.764,16.418 2.35,6.322 H 59.68 L 59.204,21.332 H 56.853 L 56.361,22.74 H 54.97 l 2.377,-6.322 h 1.417 z m 0.08,3.879 -0.793,-2.322 h -0.018 l -0.817,2.322 h 1.628 z"
   id="path33"
   inkscape:connector-curvature="0"
   style="fill:#ffffff" />
		<path
   d="m 63.547,16.418 v 6.322 h -1.382 v -6.322 h 1.382 z"
   id="path35"
   inkscape:connector-curvature="0"
   style="fill:#ffffff" />
		<path
   d="m 66.604,16.418 2.623,4.242 h 0.018 v -4.242 h 1.294 v 6.322 h -1.384 l -2.611,-4.234 h -0.02 V 22.74 H 65.23 v -6.322 h 1.374 z"
   id="path37"
   inkscape:connector-curvature="0"
   style="fill:#ffffff" />
	</g>
	<path
   d="M 85.852,0 H 1.147 C 0.239,0 -0.5,0.744 -0.5,1.658 V 30.627 C -0.5,30.834 -0.333,31 -0.128,31 H 87.128 C 87.333,31 87.5,30.834 87.5,30.627 V 1.658 C 87.5,0.744 86.762,0 85.852,0 z M 1.147,0.75 h 84.705 c 0.498,0 0.902,0.406 0.902,0.908 0,0 0,20.121 0,28.557 H 0.245 v -8.426 c 0,-8.435 0,-20.131 0,-20.131 0,-0.501 0.405,-0.908 0.902,-0.908 z"
   id="path39"
   inkscape:connector-curvature="0" />
	<g
   id="g41">
		<ellipse
   cx="14.156"
   cy="15.661"
   rx="11.004"
   ry="11.076"
   id="ellipse43"
   sodipodi:cx="14.156"
   sodipodi:cy="15.661"
   sodipodi:rx="11.004"
   sodipodi:ry="11.076"
   style="fill:#ffffff"
   d="m 25.16,15.661 c 0,6.117106 -4.926659,11.076 -11.004,11.076 -6.0773411,0 -11.0039996,-4.958894 -11.0039996,-11.076 0,-6.1171058 4.9266585,-11.076 11.0039996,-11.076 6.077341,0 11.004,4.9588942 11.004,11.076 z" />
		<path
   id="text2809_4_"
   d="m 14.22,8.746 c -3.862,0 -4.834,3.669 -4.834,6.779 0,3.111 0.971,6.779 4.834,6.779 3.863,0 4.834,-3.67 4.834,-6.779 0,-3.111 -0.971,-6.779 -4.834,-6.779 z m 0,2.555 c 0.157,0 0.3,0.024 0.435,0.06 0.278,0.24 0.414,0.573 0.147,1.038 l -2.572,4.76 c -0.079,-0.603 -0.091,-1.195 -0.091,-1.634 0,-1.37 0.094,-4.224 2.081,-4.224 z m 1.926,2.193 c 0.137,0.731 0.155,1.493 0.155,2.03 0,1.37 -0.094,4.223 -2.08,4.223 -0.156,0 -0.301,-0.017 -0.435,-0.049 -0.025,-0.01 -0.049,-0.019 -0.074,-0.025 -0.04,-0.012 -0.084,-0.024 -0.122,-0.041 -0.442,-0.188 -0.721,-0.531 -0.319,-1.139 l 2.875,-4.999 z"
   inkscape:connector-curvature="0" />
		<path
   id="path2815_4_"
   d="m 14.195,3.748 c -3.245,0 -5.98,1.137 -8.21,3.422 -1.128,1.135 -1.99,2.431 -2.589,3.876 -0.585,1.43 -0.876,2.921 -0.876,4.478 0,1.57 0.291,3.062 0.876,4.479 0.585,1.417 1.434,2.69 2.548,3.826 1.128,1.121 2.395,1.985 3.802,2.588 1.421,0.59 2.903,0.884 4.449,0.884 1.547,0 3.05,-0.304 4.499,-0.907 1.448,-0.604 2.74,-1.471 3.883,-2.605 1.101,-1.078 1.934,-2.317 2.49,-3.719 0.571,-1.415 0.853,-2.932 0.853,-4.544 0,-1.598 -0.281,-3.112 -0.852,-4.528 C 24.497,9.569 23.661,8.305 22.561,7.197 20.263,4.895 17.469,3.748 14.195,3.748 z m 0.049,2.119 c 2.646,0 4.904,0.944 6.784,2.836 0.906,0.912 1.6,1.954 2.073,3.119 0.473,1.164 0.713,2.398 0.713,3.703 0,2.707 -0.92,4.952 -2.744,6.746 -0.948,0.927 -2.012,1.638 -3.196,2.128 -1.17,0.489 -2.375,0.732 -3.63,0.732 -1.268,0 -2.481,-0.239 -3.638,-0.717 C 9.45,23.925 8.413,23.223 7.493,22.31 6.573,21.385 5.864,20.34 5.363,19.175 4.876,17.997 4.625,16.784 4.625,15.522 4.625,14.246 4.876,13.025 5.363,11.86 5.864,10.682 6.574,9.625 7.493,8.685 9.317,6.809 11.57,5.867 14.244,5.867 z"
   inkscape:connector-curvature="0" />
	</g>
</g>
</svg>