<?xml version="1.0" encoding="UTF-8" standalone="no"?>
<!-- Generator: Adobe Illustrator 13.0.2, SVG Export Plug-In . SVG Version: 6.00 Build 14948)  -->

<svg
   xmlns:dc="http://purl.org/dc/elements/1.1/"
   xmlns:cc="http://creativecommons.org/ns#"
   xmlns:rdf="http://www.w3.org/1999/02/22-rdf-syntax-ns#"
   xmlns:svg="http://www.w3.org/2000/svg"
   xmlns="http://www.w3.org/2000/svg"
   xmlns:sodipodi="http://sodipodi.sourceforge.net/DTD/sodipodi-0.dtd"
   xmlns:inkscape="http://www.inkscape.org/namespaces/inkscape"
   version="1.0"
   id="Layer_1"
   x="0px"
   y="0px"
   width="64"
   height="64"
   viewBox="5.5 -3.5 64 64"
   enable-background="new 5.5 -3.5 64 64"
   xml:space="preserve"
   inkscape:version="0.48.4 r9939"
   sodipodi:docname="nc.svg"><metadata
   id="metadata15"><rdf:RDF><cc:Work
       rdf:about=""><dc:format>image/svg+xml</dc:format><dc:type
         rdf:resource="http://purl.org/dc/dcmitype/StillImage" /></cc:Work></rdf:RDF></metadata><defs
   id="defs13" /><sodipodi:namedview
   pagecolor="#ffffff"
   bordercolor="#666666"
   borderopacity="1"
   objecttolerance="10"
   gridtolerance="10"
   guidetolerance="10"
   inkscape:pageopacity="0"
   inkscape:pageshadow="2"
   inkscape:window-width="640"
   inkscape:window-height="480"
   id="namedview11"
   showgrid="false"
   fit-margin-top="0"
   fit-margin-left="0"
   fit-margin-right="0"
   fit-margin-bottom="0"
   inkscape:zoom="3.6875"
   inkscape:cx="32"
   inkscape:cy="32"
   inkscape:window-x="0"
   inkscape:window-y="0"
   inkscape:window-maximized="0"
   inkscape:current-layer="Layer_1" />
<g
   id="g3">
	<circle
   cx="37.470001"
   cy="28.736"
   r="29.471001"
   id="circle5"
   sodipodi:cx="37.470001"
   sodipodi:cy="28.736"
   sodipodi:rx="29.471001"
   sodipodi:ry="29.471001"
   style="fill:#ffffff" />
	<g
   id="g7">
		<path
   d="m 37.442,-3.5 c 8.99,0 16.571,3.085 22.743,9.256 6.208,6.172 9.315,13.753 9.315,22.744 0,8.992 -3.048,16.476 -9.145,22.458 C 53.88,57.32 46.241,60.5 37.442,60.5 28.756,60.5 21.252,57.338 14.929,51.015 8.644,44.728 5.5,37.225 5.5,28.5 5.5,19.738 8.644,12.157 14.929,5.757 21.1,-0.414 28.604,-3.5 37.442,-3.5 z M 12.7,19.872 c -0.952,2.628 -1.429,5.505 -1.429,8.629 0,7.086 2.59,13.22 7.77,18.4 5.219,5.144 11.391,7.715 18.514,7.715 7.201,0 13.409,-2.608 18.63,-7.829 1.867,-1.79 3.332,-3.657 4.398,-5.602 L 48.527,35.814 c -0.421,2.02 -1.439,3.667 -3.057,4.942 -1.622,1.276 -3.535,2.011 -5.744,2.2 v 4.915 H 36.012 V 42.956 C 32.469,42.92 29.23,41.644 26.298,39.129 l 4.4,-4.457 c 2.094,1.942 4.476,2.913 7.143,2.913 1.104,0 2.048,-0.246 2.83,-0.743 0.78,-0.494 1.172,-1.312 1.172,-2.457 0,-0.801 -0.287,-1.448 -0.858,-1.943 L 37.9,31.127 34.129,29.412 29.043,27.183 12.7,19.872 z M 37.557,2.214 c -7.276,0 -13.428,2.571 -18.457,7.714 -1.258,1.258 -2.439,2.686 -3.543,4.287 L 27.786,19.7 c 0.533,-1.676 1.542,-3.019 3.029,-4.028 1.484,-1.009 3.218,-1.571 5.2,-1.686 V 9.071 h 3.715 v 4.915 c 2.934,0.153 5.6,1.143 8,2.971 l -4.172,4.286 c -1.793,-1.257 -3.619,-1.885 -5.486,-1.885 -0.991,0 -1.876,0.191 -2.656,0.571 -0.781,0.381 -1.172,1.029 -1.172,1.943 0,0.267 0.095,0.533 0.285,0.8 l 4.057,1.83 2.8,1.257 5.144,2.285 16.397,7.314 c 0.535,-2.248 0.801,-4.533 0.801,-6.857 0,-7.353 -2.552,-13.543 -7.656,-18.573 C 51.005,4.785 44.831,2.214 37.557,2.214 z"
   id="path9"
   inkscape:connector-curvature="0" />
	</g>
</g>
</svg>