<?xml version="1.0" encoding="UTF-8" standalone="no"?>
<!-- Generator: Adobe Illustrator 13.0.2, SVG Export Plug-In . SVG Version: 6.00 Build 14948)  -->

<svg
   xmlns:dc="http://purl.org/dc/elements/1.1/"
   xmlns:cc="http://creativecommons.org/ns#"
   xmlns:rdf="http://www.w3.org/1999/02/22-rdf-syntax-ns#"
   xmlns:svg="http://www.w3.org/2000/svg"
   xmlns="http://www.w3.org/2000/svg"
   xmlns:sodipodi="http://sodipodi.sourceforge.net/DTD/sodipodi-0.dtd"
   xmlns:inkscape="http://www.inkscape.org/namespaces/inkscape"
   version="1.1"
   id="Layer_1"
   x="0px"
   y="0px"
   width="64"
   height="64"
   viewBox="0.995 1.495 64 64"
   enable-background="new 0.995 1.495 88 31"
   xml:space="preserve"
   inkscape:version="0.48.4 r9939"
   sodipodi:docname="publicdomain.svg"><metadata
   id="metadata47"><rdf:RDF><cc:Work
       rdf:about=""><dc:format>image/svg+xml</dc:format><dc:type
         rdf:resource="http://purl.org/dc/dcmitype/StillImage" /></cc:Work></rdf:RDF></metadata><defs
   id="defs45">
		
		
		
		
		
		
		
		
		
		
		
		
	</defs><sodipodi:namedview
   pagecolor="#ffffff"
   bordercolor="#666666"
   borderopacity="1"
   objecttolerance="10"
   gridtolerance="10"
   guidetolerance="10"
   inkscape:pageopacity="0"
   inkscape:pageshadow="2"
   inkscape:window-width="1920"
   inkscape:window-height="1018"
   id="namedview43"
   showgrid="false"
   inkscape:zoom="18.384776"
   inkscape:cx="37.165028"
   inkscape:cy="29.117678"
   inkscape:window-x="-5"
   inkscape:window-y="-5"
   inkscape:window-maximized="1"
   inkscape:current-layer="g3" />
<g
   id="g3"
   transform="matrix(0.72727273,0,0,0.72727273,0.63136352,21.495)">
	
	<g
   id="g7">
		<ellipse
   cx="14.887"
   cy="16.500999"
   rx="11.101"
   ry="11.172"
   id="ellipse9"
   sodipodi:cx="14.887"
   sodipodi:cy="16.500999"
   sodipodi:rx="11.101"
   sodipodi:ry="11.172"
   style="fill:#ffffff"
   d="m 25.988,16.500999 c 0,6.170126 -4.970087,11.172 -11.101,11.172 -6.1309128,0 -11.1009997,-5.001874 -11.1009997,-11.172 0,-6.170125 4.9700869,-11.1719995 11.1009997,-11.1719995 6.130913,0 11.101,5.0018745 11.101,11.1719995 z" />
	</g>
	<path
   d="M 17.28125 23.6875 C 19.815068 25.572591 21.468023 28.584727 21.46875 32 C 21.468023 35.106909 20.091682 37.884523 17.9375 39.78125 L 63.65625 39.78125 L 63.65625 23.6875 L 17.28125 23.6875 z M 47.09375 26.125 C 47.346114 26.125 47.559432 26.14675 47.78125 26.21875 C 48.005977 26.292932 48.228795 26.392341 48.40625 26.53125 C 48.582977 26.670159 48.728114 26.856682 48.84375 27.0625 C 48.960114 27.268318 49.031227 27.515068 49.0625 27.78125 L 48.09375 27.78125 C 48.076295 27.665614 48.028386 27.534227 47.96875 27.4375 C 47.909114 27.3415 47.839455 27.260955 47.75 27.1875 C 47.659091 27.114045 47.550955 27.071977 47.4375 27.03125 C 47.326227 26.989795 47.218841 26.96875 47.09375 26.96875 C 46.866841 26.96875 46.657818 27.00575 46.5 27.09375 C 46.342182 27.181023 46.220273 27.289864 46.125 27.4375 C 46.025364 27.585864 45.952795 27.780386 45.90625 27.96875 C 45.861159 28.157841 45.84375 28.329795 45.84375 28.53125 C 45.84375 28.725432 45.861159 28.911205 45.90625 29.09375 C 45.951341 29.276295 46.025364 29.448295 46.125 29.59375 C 46.222455 29.739932 46.342909 29.848773 46.5 29.9375 C 46.657818 30.024773 46.866841 30.09375 47.09375 30.09375 C 47.402114 30.09375 47.640864 30.001591 47.8125 29.8125 C 47.984136 29.623409 48.085727 29.372318 48.125 29.0625 L 49.09375 29.0625 C 49.069023 29.3505 49.011705 29.61175 48.90625 29.84375 C 48.800068 30.075023 48.643295 30.274591 48.46875 30.4375 C 48.294205 30.600409 48.080114 30.695432 47.84375 30.78125 C 47.609568 30.867795 47.374477 30.9375 47.09375 30.9375 C 46.744659 30.9375 46.405 30.872182 46.125 30.75 C 45.846455 30.626364 45.628773 30.466 45.4375 30.25 C 45.244773 30.035455 45.100364 29.758932 45 29.46875 C 44.896 29.178568 44.84375 28.866523 44.84375 28.53125 C 44.84375 28.187977 44.896 27.887568 45 27.59375 C 45.102545 27.299932 45.246955 27.031409 45.4375 26.8125 C 45.628773 26.592864 45.846455 26.437591 46.125 26.3125 C 46.405 26.187409 46.742477 26.125 47.09375 26.125 z M 24.28125 26.21875 L 26.34375 26.21875 C 26.628841 26.21875 26.894477 26.260841 27.09375 26.34375 C 27.294477 26.428114 27.435955 26.550773 27.5625 26.6875 C 27.688318 26.824955 27.785568 26.98025 27.84375 27.15625 C 27.901205 27.331523 27.9375 27.498409 27.9375 27.6875 C 27.9375 27.8715 27.901205 28.071091 27.84375 28.25 C 27.785568 28.427455 27.688318 28.582023 27.5625 28.71875 C 27.435955 28.855477 27.295205 28.978864 27.09375 29.0625 C 26.894477 29.146136 26.628841 29.1875 26.34375 29.1875 L 25.3125 29.1875 L 25.3125 30.8125 L 24.28125 30.8125 L 24.28125 26.21875 z M 28.8125 26.21875 L 29.8125 26.21875 L 29.8125 29.09375 C 29.8125 29.218114 29.822659 29.316045 29.84375 29.4375 C 29.864841 29.5575 29.900386 29.688886 29.96875 29.78125 C 30.037114 29.872159 30.128545 29.941818 30.25 30 C 30.371455 30.058182 30.545636 30.09375 30.75 30.09375 C 31.108545 30.09375 31.363273 30.005932 31.5 29.84375 C 31.636727 29.683023 31.6875 29.437023 31.6875 29.09375 L 31.6875 26.21875 L 32.6875 26.21875 L 32.6875 29.09375 C 32.686773 29.715568 32.532955 30.166205 32.1875 30.46875 C 31.841318 30.772023 31.360182 30.9375 30.75 30.9375 C 30.131091 30.9375 29.652136 30.769114 29.3125 30.46875 C 28.973591 30.168386 28.8125 29.719932 28.8125 29.09375 L 28.8125 26.21875 z M 33.90625 26.21875 L 36.0625 26.21875 C 36.281409 26.21875 36.478068 26.241977 36.65625 26.28125 C 36.835159 26.319795 36.965023 26.381477 37.09375 26.46875 C 37.22175 26.55675 37.337159 26.666318 37.40625 26.8125 C 37.47825 26.958682 37.5 27.160455 37.5 27.375 C 37.5 27.606273 37.449932 27.783318 37.34375 27.9375 C 37.239023 28.091682 37.080091 28.215045 36.875 28.3125 C 37.156455 28.393955 37.393795 28.546364 37.53125 28.75 C 37.670159 28.954364 37.71875 29.212 37.71875 29.5 C 37.71875 29.732 37.683205 29.923568 37.59375 30.09375 C 37.504295 30.262477 37.37075 30.392364 37.21875 30.5 C 37.068205 30.607636 36.913659 30.698364 36.71875 30.75 C 36.523114 30.800909 36.329364 30.8125 36.125 30.8125 L 33.90625 30.8125 L 33.90625 26.21875 z M 38.75 26.21875 L 39.75 26.21875 L 39.75 29.96875 L 41.96875 29.96875 L 41.96875 30.8125 L 38.75 30.8125 L 38.75 26.21875 z M 42.8125 26.21875 L 43.8125 26.21875 L 43.8125 30.8125 L 42.8125 30.8125 L 42.8125 26.21875 z M 25.3125 27 L 25.3125 28.375 L 26.09375 28.375 C 26.208659 28.375 26.300795 28.391727 26.40625 28.375 C 26.513159 28.358273 26.606045 28.299455 26.6875 28.25 C 26.768227 28.200545 26.825545 28.152682 26.875 28.0625 C 26.924455 27.972318 26.96875 27.832955 26.96875 27.6875 C 26.96875 27.541318 26.924455 27.434659 26.875 27.34375 C 26.826273 27.254295 26.768955 27.173 26.6875 27.125 C 26.606773 27.074818 26.513886 27.048705 26.40625 27.03125 C 26.300068 27.013795 26.208659 27 26.09375 27 L 25.3125 27 z M 34.90625 27 L 34.90625 28.09375 L 35.9375 28.09375 C 36.116409 28.09375 36.259364 28.055295 36.375 27.96875 C 36.489182 27.882932 36.53125 27.725432 36.53125 27.53125 C 36.53125 27.424341 36.508023 27.348886 36.46875 27.28125 C 36.430205 27.212159 36.377227 27.164273 36.3125 27.125 C 36.2485 27.086455 36.177386 27.045068 36.09375 27.03125 C 36.010114 27.01525 35.933205 27 35.84375 27 L 34.90625 27 z M 34.90625 28.78125 L 34.90625 30.03125 L 35.96875 30.03125 C 36.066932 30.03125 36.160545 30.018909 36.25 30 C 36.340909 29.981091 36.430909 29.950614 36.5 29.90625 C 36.568364 29.861159 36.613341 29.796568 36.65625 29.71875 C 36.696977 29.643114 36.71875 29.5575 36.71875 29.4375 C 36.71875 29.201136 36.660705 29.038591 36.53125 28.9375 C 36.397432 28.837136 36.217455 28.78125 36 28.78125 L 34.90625 28.78125 z M 31.40625 32.5625 C 31.760432 32.5625 32.065932 32.624909 32.34375 32.75 C 32.622295 32.875091 32.8705 33.028909 33.0625 33.25 C 33.255227 33.468909 33.399636 33.734523 33.5 34.03125 C 33.604 34.324341 33.65625 34.626932 33.65625 34.96875 C 33.65625 35.304023 33.604 35.61825 33.5 35.90625 C 33.397455 36.194977 33.253045 36.472955 33.0625 36.6875 C 32.8705 36.902773 32.622295 37.065318 32.34375 37.1875 C 32.065932 37.309682 31.761886 37.375 31.40625 37.375 C 31.056432 37.375 30.74875 37.309682 30.46875 37.1875 C 30.189477 37.065318 29.942727 36.902773 29.75 36.6875 C 29.558727 36.472955 29.414318 36.194977 29.3125 35.90625 C 29.209955 35.61825 29.15625 35.304023 29.15625 34.96875 C 29.15625 34.626932 29.209955 34.324341 29.3125 34.03125 C 29.415045 33.736705 29.559455 33.468909 29.75 33.25 C 29.942727 33.028909 30.189477 32.875091 30.46875 32.75 C 30.74875 32.624909 31.055705 32.5625 31.40625 32.5625 z M 24.28125 32.65625 L 26.25 32.65625 C 26.544545 32.65625 26.839932 32.718682 27.09375 32.8125 C 27.348295 32.907773 27.564545 33.029659 27.75 33.21875 C 27.935455 33.407841 28.082773 33.653136 28.1875 33.9375 C 28.292227 34.220409 28.34375 34.556409 28.34375 34.9375 C 28.34375 35.2735 28.303841 35.594273 28.21875 35.875 C 28.132932 36.159364 27.984864 36.387205 27.8125 36.59375 C 27.639409 36.799568 27.446409 36.975932 27.1875 37.09375 C 26.930045 37.211568 26.600545 37.25 26.25 37.25 L 24.28125 37.25 L 24.28125 32.65625 z M 34.65625 32.65625 L 36.0625 32.65625 L 37.125 35.84375 L 37.15625 35.84375 L 38.15625 32.65625 L 39.5625 32.65625 L 39.5625 37.25 L 38.625 37.25 L 38.625 34 L 37.5 37.25 L 36.71875 37.25 L 35.59375 34.03125 L 35.59375 37.25 L 34.65625 37.25 L 34.65625 32.65625 z M 42.0625 32.65625 L 43.09375 32.65625 L 44.8125 37.25 L 43.78125 37.25 L 43.40625 36.25 L 41.71875 36.25 L 41.34375 37.25 L 40.34375 37.25 L 42.0625 32.65625 z M 45.5625 32.65625 L 46.59375 32.65625 L 46.59375 37.25 L 45.5625 37.25 L 45.5625 32.65625 z M 47.8125 32.65625 L 48.8125 32.65625 L 50.71875 35.75 L 50.71875 32.65625 L 51.65625 32.65625 L 51.65625 37.25 L 50.65625 37.25 L 48.75 34.1875 L 48.75 37.25 L 47.8125 37.25 L 47.8125 32.65625 z M 31.40625 33.40625 C 31.180068 33.40625 30.971045 33.443977 30.8125 33.53125 C 30.655409 33.61925 30.534955 33.758614 30.4375 33.90625 C 30.339318 34.055341 30.263841 34.218614 30.21875 34.40625 C 30.173659 34.593886 30.15625 34.796364 30.15625 35 C 30.156977 35.192 30.174386 35.380682 30.21875 35.5625 C 30.263841 35.745773 30.339318 35.885068 30.4375 36.03125 C 30.535682 36.175977 30.656136 36.318977 30.8125 36.40625 C 30.971045 36.49425 31.180068 36.53125 31.40625 36.53125 C 31.633159 36.53125 31.811659 36.494977 31.96875 36.40625 C 32.128023 36.318977 32.277545 36.175977 32.375 36.03125 C 32.472455 35.885068 32.516682 35.745773 32.5625 35.5625 C 32.607591 35.380682 32.65625 35.192 32.65625 35 C 32.65625 34.799273 32.608318 34.595341 32.5625 34.40625 C 32.517409 34.216432 32.472455 34.055341 32.375 33.90625 C 32.275364 33.758614 32.126568 33.61925 31.96875 33.53125 C 31.811659 33.443977 31.633159 33.40625 31.40625 33.40625 z M 25.3125 33.5 L 25.3125 36.40625 L 26.1875 36.40625 C 26.332227 36.40625 26.488273 36.39175 26.625 36.34375 C 26.761727 36.29575 26.861114 36.202114 26.96875 36.09375 C 27.074932 35.983932 27.186 35.862773 27.25 35.6875 C 27.314 35.5115 27.34375 35.285795 27.34375 35.03125 C 27.34375 34.801432 27.326341 34.593886 27.28125 34.40625 C 27.236159 34.219341 27.134523 34.068409 27.03125 33.9375 C 26.928705 33.802227 26.794455 33.696273 26.625 33.625 C 26.457 33.553 26.27925 33.5 26.03125 33.5 L 25.3125 33.5 z M 42.5625 33.8125 L 41.96875 35.5 L 43.15625 35.5 L 42.59375 33.8125 L 42.5625 33.8125 z "
   id="path11"
   transform="matrix(1.375,0,0,1.375,0.50000016,-27.5)" />
	<path
   d="M 15.242,4.702 C 8.769,4.702 3.521,9.984 3.521,16.5 c 0,6.515 5.248,11.798 11.722,11.798 6.473,0 11.721,-5.283 11.721,-11.798 C 26.963,9.984 21.715,4.702 15.242,4.702 z m 0,21.384 c -5.252,0 -9.524,-4.302 -9.524,-9.586 0,-1.106 0.189,-2.169 0.534,-3.158 l 3.725,1.669 c -0.1,0.503 -0.154,1.026 -0.154,1.567 0,4.709 3.492,6.036 5.689,6.036 1.297,0 2.418,-0.422 3.296,-1.039 0.092,-0.066 0.179,-0.133 0.262,-0.199 l -1.758,-1.848 c -0.64,0.556 -1.313,0.39 -1.47,0.39 -1.788,0 -2.537,-1.899 -2.547,-3.421 l 10.266,4.602 c 0.012,0.002 0.022,0.002 0.032,0.004 -1.62,2.966 -4.756,4.983 -8.351,4.983 z m 9.177,-7.138 -10.587,-4.755 c 0.382,-0.698 0.989,-1.221 1.898,-1.221 0.528,0 0.946,0.177 1.276,0.397 0.137,0.1 0.255,0.2 0.355,0.3 l 1.908,-1.978 c -1.281,-1.108 -2.739,-1.308 -3.692,-1.308 -2.239,0 -3.824,0.976 -4.759,2.455 l -3.54,-1.59 c 1.704,-2.608 4.636,-4.337 7.963,-4.337 5.251,0 9.523,4.3 9.523,9.587 0,0.854 -0.113,1.685 -0.323,2.474 -0.007,-0.007 -0.013,-0.015 -0.022,-0.024 z"
   id="path13"
   inkscape:connector-curvature="0" />
	
	<path
   d="M 86.853,1 H 2.147 C 1.239,1 0.5,1.743 0.5,2.657 v 28.97 C 0.5,31.833 0.667,32 0.872,32 H 88.128 C 88.333,32 88.5,31.833 88.5,31.627 V 2.657 C 88.5,1.743 87.761,1 86.853,1 z M 2.147,1.749 h 84.704 c 0.498,0 0.903,0.407 0.903,0.908 0,0 0,20.122 0,28.557 H 1.245 V 22.79 c 0,-8.436 0,-20.133 0,-20.133 0,-0.501 0.405,-0.908 0.902,-0.908 z"
   id="path41"
   inkscape:connector-curvature="0" />
</g>
</svg>