<svg xmlns="http://www.w3.org/2000/svg" xmlns:xlink="http://www.w3.org/1999/xlink" version="1.1" style="" xml:space="preserve" width="184.50000009934104" height="39.500000099341094"><rect id="backgroundrect" width="100%" height="100%" x="0" y="0" fill="none" stroke="none" style="" class=""/>
<style type="text/css">
	.st0{fill:#00AA4E;}
</style>

<g class="currentLayer" style=""><title>Layer 1</title><g id="svg_1" class="">
	<path class="st0" d="M29.030487746000293,35.84837446808815 c1.4,1.8 3.8,2.6 5.8,2.6 c2.8,0 4.8,-1.9 4.8,-4.1 l0,-29.3 c0,-2.3 -1.9,-4.1 -4.1,-4.1 h-0.2 c-2.3,0 -4.1,1.9 -4.1,4.1 l0,21.3 l-19,-22.8 c-1.4,-1.8 -3.8,-2.6 -5.8,-2.6 c-2.8,0 -4.8,1.9 -4.8,4.1 l0,29.3 c0,2.3 1.9,4.1 4.1,4.1 h0.2 c2.3,0 4.1,-1.9 4.1,-4.1 l0,-21.3 L29.030487746000293,35.84837446808815 z" id="svg_2"/>
	<g id="svg_3">
		<path class="st0" d="M181.4304877460003,31.24837446808815 L169.8304877460003,19.64837446808815 l11.6,-11.6 c1.6,-1.6 1.6,-4.2 0,-5.8 l-0.2,-0.2 c-1.6,-1.6 -4.2,-1.6 -5.8,0 l-10.1,10.1 l-0.7000000000000006,0.7000000000000006 l-0.4,0.4 c-0.2,0.2 -0.4,0.2 -0.6000000000000006,0 l-0.5,-0.5 l-0.6000000000000006,-0.6000000000000006 l-10.1,-10.1 c-1.6,-1.6 -4.2,-1.6 -5.8,0 l-0.2,0.2 c-1.6,1.6 -1.6,4.2 0,5.8 L157.8304877460003,19.64837446808815 l-11.6,11.6 c-1.6,1.6 -1.6,4.2 0,5.8 l0.2,0.2 c1.6,1.6 4.2,1.6 5.8,0 l10.1,-10.1 l0.7000000000000006,-0.7000000000000006 l0.4,-0.4 c0.2,-0.2 0.4,-0.2 0.6000000000000006,0 l0.3000000000000003,0.3000000000000003 l0.9,0.9 l10.1,10.1 c1.6,1.6 4.2,1.6 5.8,0 l0.2,-0.2 C183.0304877460003,35.44837446808815 183.0304877460003,32.84837446808815 181.4304877460003,31.24837446808815 z" id="svg_4"/>
	</g>
	<path class="st0" d="M113.3304877460003,35.84837446808815 c-1.4,1.8 -3.8,2.6 -5.8,2.6 c-2.8,0 -4.8,-1.9 -4.8,-4.1 l0,-29.3 c0,-2.3 1.9,-4.1 4.1,-4.1 h0.2 c2.3,0 4.1,1.9 4.1,4.1 l0,21.3 l19,-22.8 c1.4,-1.8 3.8,-2.6 5.8,-2.6 c2.8,0 4.8,1.9 4.8,4.1 l0,29.3 c0,2.3 -1.9,4.1 -4.1,4.1 h-0.2 c-2.3,0 -4.1,-1.9 -4.1,-4.1 l0,-21.3 L113.3304877460003,35.84837446808815 z" id="svg_5"/>
	<path class="st0" d="M97.03048774600029,4.848374468088153 c0,-2.2 -1.7000000000000002,-4 -3.7,-4 s-3.7,1.8 -3.7,4 v9.6 c0,0.2 0.2,0.4 0.4,0.4 h6.6 c0.2,0 0.4,-0.2 0.4,-0.4 L97.03048774600029,4.848374468088153 z" id="svg_6"/>
	<path class="st0" d="M97.03048774600029,18.74837446808815 c0,-0.2 -0.2,-0.4 -0.4,-0.4 H90.03048774600029 c-0.2,0 -0.4,0.2 -0.4,0.4 l0,15.8 c0,2.1 1.7000000000000002,3.9 3.7,3.9 s3.7,-1.7000000000000002 3.7,-3.9 L97.03048774600029,18.74837446808815 z" id="svg_7"/>
	<path class="st0" d="M86.23048774600029,18.348374468088153 H62.630487746000284 c-2.2,0 -4,1.5 -4,3.6 c0,2.1 1.8,3.5 4,3.5 h11.9 l-3.2,5.4 c-0.2,0.4 -0.5,0.5 -0.9,0.5 l-11.6,0 c-0.5,0 -0.7000000000000006,-0.1 -0.9,-0.5 L52.03048774600029,20.04837446808815 c-0.2,-0.3000000000000003 -0.2,-0.6000000000000006 0,-1 l5.9,-10.5 c0.2,-0.4 0.5,-0.5 0.9,-0.5 l11.6,0 c0.5,0 0.7000000000000006,0.1 1,0.5 l3.6,6 c0.2,0.3000000000000003 0.3000000000000003,0.4 0.7000000000000006,0.4 l8.2,0 l-7.9,-13.3 c-0.2,-0.3000000000000003 -0.4,-0.4 -0.8,-0.4 l-21.2,0 c-0.5,0 -0.7000000000000006,0.2 -0.9,0.6000000000000006 l-9.3,17.1 c-0.3000000000000003,0.5 -0.3000000000000003,0.8 0,1.3 l9.8,17.6 c0.2,0.4 0.5,0.5 1,0.5 l20.3,0 c0.5,0 0.8,-0.1 1,-0.6000000000000006 L86.23048774600029,18.348374468088153 z" id="svg_8"/>
</g></g></svg>